<svg width="414" height="47" viewBox="0 0 414 47" fill="none" xmlns="http://www.w3.org/2000/svg">
<g clip-path="url(#clip0_14_91)">
<path d="M-266.5 47.44L-266.5 0.499991L-266.38 0.649991L-266.19 0.549991L-265.87 0.899991C-265.87 0.989991 -265.94 1.17999 -265.98 1.38999L-265.67 1.24999L-265.57 1.52999C-265.37 1.21999 -265.24 0.869991 -264.85 0.759991L-264.49 1.12999C-264.49 1.45999 -265.05 1.34999 -264.98 1.79999L-264.66 1.51999C-264.61 1.52613 -264.562 1.5432 -264.52 1.56999C-264.477 1.59506 -264.439 1.62917 -264.41 1.66999L-264.41 1.79999C-264.395 1.84891 -264.395 1.90108 -264.41 1.94999L-264.21 1.77999L-263.9 2.20999L-263.9 2.76999L-263.82 2.76999C-263.82 2.64999 -263.82 2.53999 -263.82 2.41999L-263.82 1.97999C-263.508 2.0464 -263.233 2.22866 -263.05 2.48999L-263.22 2.78999L-262.95 3.07999L-263.07 3.21999C-262.84 3.32999 -262.6 3.42999 -262.38 3.53999C-262.16 3.64999 -262.13 3.99999 -261.82 4.06999L-261.82 4.36999L-262.03 4.45999C-262.03 4.45999 -262.03 4.52999 -262.03 4.53999C-261.82 4.64999 -261.52 4.63999 -261.47 4.97999C-261.47 5.03999 -261.32 5.06999 -261.24 5.10999L-261.71 5.42999C-261.44 5.42999 -261.25 5.48999 -261.15 5.42999C-260.93 5.20999 -260.75 5.31999 -260.6 5.42999L-260.16 5.22999L-260.28 5.64999L-259.73 6.06999C-259.67 5.58999 -259.67 5.58999 -259.34 5.38999C-259.34 5.54999 -259.34 5.68999 -259.43 5.82999L-259.59 6.30999C-259.626 6.26538 -259.67 6.22805 -259.72 6.19999L-259.9 6.19999C-259.883 6.27229 -259.883 6.34769 -259.9 6.41999L-259.39 6.41999L-259.51 6.63999L-259.15 6.63999L-259.25 6.44999L-259.08 6.23999L-258.96 6.55999L-258.5 6.11999C-258.02 6.18999 -257.98 5.70999 -257.7 5.44999L-257.14 5.71999C-256.87 5.71999 -256.96 5.35999 -256.7 5.28999C-256.44 5.21999 -256.39 5.03999 -256.18 5.08999C-256.177 5.01416 -256.16 4.9395 -256.13 4.86999C-256.101 4.86009 -256.069 4.86009 -256.04 4.86999L-255.23 5.16999C-255.165 5.15052 -255.104 5.12008 -255.05 5.07999C-255.043 5.20508 -255.023 5.3291 -254.99 5.44999L-254.84 5.44999C-254.827 5.2402 -254.827 5.02978 -254.84 4.81999L-254.29 5.17999C-254.3 5.11383 -254.303 5.04683 -254.3 4.97999C-254.3 4.91999 -254.22 4.97999 -254.21 4.97999L-253.78 5.48999L-253.5 4.84999L-252.8 4.84999L-252.8 5.05999L-253.25 5.11999L-252.88 5.31999L-252.67 5.19999L-252.67 5.76999L-252.5 5.61999L-252.29 5.96999L-251.69 5.96999L-251.13 6.36999L-250.77 7.64999L-250.58 7.45999L-250.73 7.18999L-250.5 7.09999C-250.487 7.29163 -250.46 7.4821 -250.42 7.66999L-250.1 7.48999L-249.72 7.66999C-249.732 7.85981 -249.732 8.05018 -249.72 8.23999L-249.5 7.88999L-248.95 7.82999L-249.25 7.69999L-249.25 7.22999L-249.19 7.22999C-249.177 7.36163 -249.154 7.49204 -249.12 7.61999L-248.77 7.61999L-248.55 7.15999L-248.27 7.48999L-247.89 7.08999L-247.64 7.28999L-247.92 7.56999L-247.63 7.73999C-247.43 7.67999 -247.32 7.46999 -247.23 7.24999L-246.92 7.24999C-246.939 7.13749 -246.939 7.02249 -246.92 6.90999C-246.769 6.87015 -246.611 6.87015 -246.46 6.90999C-246.31 6.94686 -246.172 7.02275 -246.06 7.12999L-246.21 6.34999C-246.07 6.34999 -245.98 6.34999 -245.94 6.44999L-245.79 6.86999L-245.89 6.97999L-245.63 7.09999C-245.93 7.42999 -246.45 7.44999 -246.63 7.90999L-246.77 7.67999L-247.32 7.67999L-247.32 7.73999L-247.11 7.82999L-246.96 8.29999C-246.799 8.19106 -246.602 8.14812 -246.41 8.17999C-246.295 7.95216 -246.119 7.76147 -245.9 7.62999C-245.683 7.50017 -245.432 7.44077 -245.18 7.45999L-245.87 8.02999C-245.77 8.35999 -245.74 8.71999 -245.43 8.94999L-244.96 8.69999L-244.4 8.85999L-244.4 8.72999L-244.64 8.61999L-244.64 8.39999C-244.37 8.52516 -244.077 8.59325 -243.78 8.59999C-243.46 8.59999 -243.16 8.47999 -242.78 8.40999C-242.68 8.58999 -242.78 8.88999 -242.45 8.92999L-242.14 8.50999L-241.91 8.65999L-241.8 8.55999L-241.34 8.81999L-241.11 8.64999L-240.8 8.90999L-240.38 8.60999L-241.01 8.18999L-240.68 8.18999L-240.55 7.90999L-240.43 8.01999L-239.74 7.87999L-239.32 8.20999L-239.18 7.91999L-238.91 8.16999L-238.72 7.76999L-238.86 7.57999L-238.48 7.30999L-238.56 7.73999L-238.28 7.88999L-238.21 7.70999L-237.91 7.54999L-237.75 7.69999L-237.88 7.92999L-237.64 8.19999L-237.42 8.06999L-237.18 8.19999L-236.96 7.55999C-236.81 7.63999 -236.66 7.70999 -236.52 7.78999C-236.38 7.86999 -236.25 7.96999 -236.14 8.03999L-236.27 8.60999L-236.03 8.46999L-235.93 8.55999L-235.26 8.13999L-235.54 7.89999C-235.2 7.82999 -235.2 7.82999 -234.61 8.00999L-234.84 8.23999L-234.34 8.60999L-234.43 8.19999L-234.18 7.77999L-233.71 8.00999L-233.86 8.29999C-233.8 8.50999 -233.99 8.80999 -233.73 9.02999C-233.82 9.27999 -233.46 9.13999 -233.47 9.35999C-233.448 9.53638 -233.382 9.7046 -233.28 9.84999C-233.197 9.98459 -233.107 10.1148 -233.01 10.24L-232.61 10.03L-232.73 9.88999C-232.73 9.53999 -232.42 9.63999 -232.18 9.50999L-232.79 9.42999L-232.52 9.03999C-232.53 9.123 -232.53 9.20699 -232.52 9.28999C-232.52 9.34999 -232.45 9.28999 -232.44 9.28999C-232.43 9.28999 -232.17 9.01999 -231.97 9.06999L-231.73 8.65999L-231.57 8.99999C-231.596 9.12951 -231.633 9.25663 -231.68 9.37999L-231.22 9.59999C-231.22 9.32999 -231.4 9.33999 -231.55 9.28999L-231.29 8.97999L-231.2 9.26999L-231.06 8.97999C-230.62 8.97999 -230.63 8.97999 -230.36 9.13999L-230.78 9.44999L-230.63 9.65999C-230.674 9.69224 -230.712 9.73304 -230.74 9.77999L-230.84 10.11C-230.47 10.05 -230.46 9.71999 -230.37 9.54999L-229.69 9.18999L-229.58 9.42999L-228.77 8.97999C-228.66 9.09999 -228.49 8.97999 -228.35 8.97999C-228.199 9.0396 -228.031 9.0396 -227.88 8.97999L-228.15 8.84999L-227.97 8.54999L-227.29 8.54999L-227.04 8.90999L-227.13 9.01999L-226.9 9.01999C-226.889 8.89537 -226.869 8.77171 -226.84 8.64999L-226.72 8.71999L-225.14 8.54999C-225.159 8.7395 -225.159 8.93048 -225.14 9.11999C-224.76 8.67999 -224.23 8.80999 -223.83 8.39999C-223.83 8.73999 -223.83 8.95999 -223.83 9.27999L-222.4 8.97999C-222.411 8.93062 -222.411 8.87937 -222.4 8.82999L-222.08 8.66999C-221.88 8.66999 -221.8 8.92999 -221.61 9.03999C-221.397 9.20172 -221.208 9.39374 -221.05 9.60999L-220.81 9.43999L-220.59 9.76999L-220.03 9.64999L-219.8 9.41999L-219.37 9.61999C-219.37 9.93999 -219.71 10.01 -220 10.22C-219.61 10.31 -219.36 10.52 -219 10.42C-219.13 10.2294 -219.19 9.99978 -219.17 9.76999C-219.158 9.53829 -219.07 9.31697 -218.92 9.13999L-218.83 9.40999L-218.5 9.27999L-218.5 9.80999L-218.41 9.80999L-218.19 9.38999L-218.07 9.94999C-218.027 9.79024 -217.932 9.64941 -217.8 9.54999C-217.671 9.44332 -217.508 9.38655 -217.34 9.38999C-217.01 9.38999 -216.69 9.28999 -216.34 9.21999L-216.08 8.97999L-215.7 8.97999L-215.27 9.40999L-214.81 8.96999L-214.72 9.21999L-213.79 9.21999L-213.57 9.59999L-213.17 9.59999L-213.47 9.66999L-213.47 9.97999L-213.22 9.97999L-213.37 9.78999L-213.14 9.72999C-213.131 9.8614 -213.111 9.99183 -213.08 10.12L-212.5 9.97999L-212.5 9.78999L-212.04 9.78999L-212.13 9.99999L-211.92 9.99999C-211.926 10.0999 -211.926 10.2001 -211.92 10.3C-211.46 10.35 -211.04 9.91999 -210.55 10.22C-210.35 10.05 -210.35 10.05 -210.3 9.76999L-209.97 9.52999C-209.978 9.556 -209.978 9.58399 -209.97 9.60999L-209.64 9.93999C-209.64 10.29 -210.1 10.51 -210.11 11.02C-209.984 10.9434 -209.869 10.8491 -209.77 10.74C-209.61 10.57 -209.49 10.97 -209.3 10.74C-209.11 10.51 -208.96 10.85 -208.89 10.8C-208.82 10.75 -208.55 10.73 -208.37 10.74L-208.46 11L-208.16 10.71L-208.22 10.63C-207.97 10.49 -207.92 10.77 -207.78 10.83L-207.57 10.47L-207.3 10.61C-207.244 10.5096 -207.194 10.4061 -207.15 10.3L-206.2 10.61L-205.89 10.33C-205.69 10.33 -205.56 10.58 -205.33 10.4C-205.1 10.22 -204.98 10.4 -204.77 10.49C-204.76 10.3481 -204.736 10.2075 -204.7 10.07L-204.11 10.26L-204.11 10.57L-203.66 10.57L-203.5 10.38L-203.03 10.38L-203.16 10.57L-202.95 10.64C-202.941 10.5086 -202.921 10.3782 -202.89 10.25L-202.33 10.25L-202.13 10.44L-202.51 10.52L-202.51 10.83L-201.51 10.46C-201.525 10.5762 -201.525 10.6938 -201.51 10.81L-201.14 10.81L-201.26 10.5L-200.95 10.5L-200.74 10.97L-200.53 11.04C-200.53 11.25 -200.53 11.29 -201.01 11.42C-200.82 11.61 -201.25 11.9 -200.9 12.06L-201.03 12.2C-201.03 12.2 -200.94 12.27 -200.93 12.26C-200.66 11.9782 -200.419 11.67 -200.21 11.34C-200.14 11.7 -199.87 11.9 -199.72 12.14L-199.45 12.14L-199.37 11.9L-198.58 11.9C-198.58 12.15 -198.82 12.07 -198.88 12.18C-198.773 12.3032 -198.656 12.4169 -198.53 12.52C-198.376 12.6119 -198.216 12.6921 -198.05 12.76L-198.05 12.42L-198.37 12.42L-198.37 12.28C-198.17 12.28 -198.16 12.1 -198.09 11.97C-197.73 12.17 -197.84 12.54 -197.76 12.77L-197.6 12.77C-197.34 12.51 -197.94 12.2 -197.54 11.95L-197.67 11.81L-197.46 11.61L-196.87 11.93L-197.23 12.1L-196.77 12.44L-196.45 12.01C-196.277 12.0444 -196.113 12.1161 -195.97 12.22C-195.822 12.327 -195.703 12.4675 -195.62 12.63L-195.3 12.63L-195.43 12.86L-194.68 12.86L-195.01 13.19L-194.94 13.29L-195.09 13.61L-195.46 13.39L-195.32 13.7L-195.42 13.82L-195.07 14.12C-195.077 14.0034 -195.077 13.8866 -195.07 13.77L-194.69 13.72L-194.81 13.42L-194.59 13.31L-194.7 13.19L-194.39 13.09L-194.45 12.95C-194.368 13.0384 -194.281 13.1218 -194.19 13.2C-194.085 13.2599 -193.974 13.3101 -193.86 13.35L-194.21 13.55C-194.142 13.7297 -194.029 13.8884 -193.88 14.01C-193.867 13.8889 -193.847 13.7687 -193.82 13.65L-193.61 13.6L-193.42 12.89L-193.1 13.02L-193.1 12.5L-193.01 12.5L-192.91 12.78L-193.13 13.46L-192.97 13.34L-192.6 13.64L-192.95 13.69L-192.95 13.8L-192.48 13.86C-192.494 14.0664 -192.494 14.2736 -192.48 14.48L-191.95 14.48L-192.18 14.74L-191.71 14.62L-191.25 14.85L-191.98 14.85L-191.98 14.98L-191.09 15.16C-190.862 14.95 -190.588 14.7959 -190.29 14.71C-189.991 14.6401 -189.679 14.6401 -189.38 14.71L-189.38 15.27L-189.3 15.32C-189.254 15.2433 -189.214 15.163 -189.18 15.08L-188.75 15.08L-188.75 14.65L-188.6 14.5L-188.29 14.63L-187.95 15.35L-187.79 15.22C-187.784 15.3379 -187.767 15.455 -187.74 15.57V15.57C-187.63 15.5 -187.74 15.25 -187.48 15.31L-187.43 15.26L-187.55 15.12L-186.99 14.56L-186.62 14.5L-186.92 14.35L-186.92 13.98C-186.785 13.98 -186.652 14.0108 -186.53 14.07C-186.403 14.128 -186.293 14.2175 -186.21 14.33L-185.89 14.15L-185.7 14.47L-185.43 14.24L-185.5 13.98L-185.06 14.16L-184.94 14.05L-184.13 14.33L-183.76 13.81L-183.92 13.53L-183.73 13.31C-183.632 13.2799 -183.528 13.2799 -183.43 13.31C-183.331 13.3389 -183.243 13.3984 -183.18 13.48L-183.41 13.74L-183.41 13.81L-183.06 13.67L-182.87 13.78C-182.77 13.65 -182.87 13.42 -182.69 13.35C-182.617 13.3334 -182.551 13.295 -182.5 13.24C-182.443 13.187 -182.404 13.1168 -182.39 13.04L-182.27 13.16L-182.04 12.93L-181.6 13.17L-181.11 12.99L-181.01 12.76L-180.91 13.05L-180.28 12.76L-180.15 13.04L-179.91 12.65L-178.99 12.82L-178.91 13.02C-178.91 13.02 -178.83 13.02 -178.84 12.97L-178.84 12.86L-178.84 12.76L-178.75 12.69L-178.65 12.69C-178.31 12.69 -178.09 12.43 -177.83 12.33L-177.62 12.67L-177.19 12.51L-177.38 12.75L-177.05 12.93L-176.79 12.51L-176.91 12.3C-176.854 12.2142 -176.791 12.1339 -176.72 12.06L-176.51 12.21L-176.16 11.9L-175.73 12.06L-175.5 11.98C-175.386 11.9996 -175.28 12.0478 -175.19 12.12C-175.099 12.1915 -175.027 12.2842 -174.98 12.39C-174.867 12.3409 -174.768 12.2655 -174.69 12.17C-174.612 12.0783 -174.551 11.9733 -174.51 11.86C-174.41 11.63 -174.29 11.4 -174.2 11.16C-174.11 10.92 -174.08 10.71 -174 10.41L-173.38 10.28L-173.71 10.09L-173.38 9.59L-173.22 9.72999C-173.238 9.60064 -173.238 9.46935 -173.22 9.34C-173.08 9.05 -172.95 8.80999 -172.82 8.56999C-172.72 8.59354 -172.616 8.59683 -172.515 8.57966C-172.414 8.56248 -172.317 8.52519 -172.23 8.47L-171.75 8.58L-171.04 8.22L-170.3 8.35L-170.43 8.1C-170.17 7.97 -170.14 8.3 -169.91 8.33L-169.71 8.16L-169.83 7.86C-169.75 7.86 -169.72 7.86 -169.68 7.86C-169.34 7.93 -169.26 8.29 -169.01 8.48L-168.62 8.48L-168.21 7.92L-168.47 7.79L-168.2 7.69L-168.33 7.52L-168.04 7.34L-167.49 7.54L-167.79 7.79L-167.71 8.24L-167.22 7.98L-166.9 7.54C-166.897 7.3477 -166.921 7.15594 -166.97 6.97C-166.843 6.94056 -166.72 6.90042 -166.6 6.85C-166.49 6.78 -166.35 7.01 -166.27 6.74C-166.261 6.88275 -166.234 7.02382 -166.19 7.16L-165.87 7.16L-165.99 6.87C-165.52 6.78 -165.36 6.87 -165.16 7.17L-164.99 6.98L-165.26 6.59L-164.64 6.38L-164.55 6.82L-164.11 6.25L-163.85 6.42L-163.64 6.29L-163.16 6.43C-162.97 6.07 -162.6 5.9 -162.33 5.54L-162.44 4.79C-162.12 4.56 -161.99 5.12 -161.69 5.01L-161.1 4.53L-161.1 4.27L-160.65 4.27L-160.45 3.27L-160.16 3.11L-159.99 3.36L-159.65 3.36L-159.65 2.89C-159.41 2.83 -159.2 2.59 -158.95 2.76L-159.5 3.2L-158.95 3.2L-158.64 2.64L-158 2.32C-157.916 2.36928 -157.83 2.41272 -157.74 2.45C-157.624 2.46022 -157.506 2.46022 -157.39 2.45L-157.5 2.98L-156.71 3.2L-156.71 3.79L-156.36 3.59L-156.53 3.17L-156.11 3.33L-156.11 2.87L-156.5 2.98L-156.74 2.57L-156.33 2.69L-155.17 2.09L-155.17 2.44L-155.43 2.54L-154.93 2.88L-154.09 2.71L-153.88 2.25L-153.67 2.39L-153.36 2.12L-153.24 2.36L-153.06 2.36C-153.071 2.24025 -153.098 2.12251 -153.14 2.01L-152.8 2.01L-152.4 1.7L-152.15 1.7L-151.88 1.45L-151.54 1.61C-151.554 1.79825 -151.581 1.98534 -151.62 2.17C-151.29 2.28 -151.48 1.73 -151.1 1.83L-150.98 1.93L-151.08 2.5L-151.38 2.64L-150.82 2.64L-150.6 2.04L-150.47 2.17L-150.34 1.98L-150.08 2.09L-149.7 1.98L-150.06 2.78C-149.69 2.72 -149.57 2.35 -149.21 2.3L-149.03 2.47L-149.13 2.6C-149.07 2.74 -148.97 2.72 -148.22 2.42L-148.04 2.75L-148.14 2.89L-147.87 2.98L-148.21 3.15L-147.87 3.15L-147.15 2.51L-147.15 2.31L-146.67 1.98L-147.03 1.79L-146.97 1.69C-146.766 1.85846 -146.532 1.98733 -146.28 2.07C-146.002 2.1305 -145.732 2.22804 -145.48 2.36L-145.23 1.97L-144.38 1.97L-144.85 1.62L-144.15 1.45L-143.47 1.79L-143.7 1.87L-143.7 1.98C-143.33 1.85 -142.9 1.92 -142.7 1.53L-141.97 1.48L-142.27 1.38L-141.95 1.01L-141.48 1.01L-141.29 1.52L-140.91 1.37L-140.67 2.02C-140.5 1.98 -140.5 1.98 -140.42 1.7C-140.17 1.57 -140.05 1.7 -139.91 1.9L-140.07 2.13C-140.01 2.13 -139.95 2.18 -139.9 2.13C-139.764 2.08752 -139.63 2.03744 -139.5 1.98L-140 1.58L-140 1.54L-139.44 1.69L-139.38 1.89L-139.05 1.89L-139.2 1.49C-138.83 1.84 -138.78 2.01 -138.88 2.4L-138.5 2.4C-138.451 2.28714 -138.375 2.18769 -138.28 2.11C-138.183 2.03301 -138.07 1.97837 -137.95 1.95L-138.09 2.22L-137.85 2.33C-137.85 2.47 -137.91 2.62 -137.95 2.8C-137.56 2.58 -137.2 2.72 -136.88 2.67L-136.51 3.35L-135.99 3.19L-136.07 3.31C-136.07 3.56 -135.82 3.63 -135.7 3.74L-135.18 3.47L-135.18 3.52L-134.5 2.87L-134.23 3.15L-133.88 2.98L-133.82 2.63L-133.14 2.83L-133.7 2.9L-133.59 3.13L-133.59 3.43C-133.5 3.35 -133.46 3.29 -133.42 3.29L-132.75 3.29L-132.58 3.53C-132.24 3.44 -131.98 3.65 -131.72 3.77L-131.16 3.27C-131.03 3.41 -130.91 3.57 -130.77 3.73C-130.075 3.59895 -129.401 3.37001 -128.77 3.05L-128.5 3.18L-128.5 2.98L-127.34 2.7L-126.87 3.01L-127.2 3.12L-126.86 3.23L-126.76 3.16L-126.35 3.59L-126.63 3.75L-126.63 3.93L-126.29 3.79C-126.29 4.01 -126.29 4.21 -126.29 4.46L-125.77 4.38L-125.58 4.68L-125.58 3.88L-125.49 3.95L-125.3 3.76L-125.45 4.15L-125.19 4.68L-125.32 5.18L-125.23 5.24L-125.06 5.07C-124.95 4.97 -125.06 4.81 -124.98 4.7C-124.906 4.55862 -124.819 4.42467 -124.72 4.3L-124.43 3.9C-124.17 4.12 -124.43 4.31 -124.43 4.47L-124.08 4.83L-123.91 4.77L-124.1 4.35L-123.33 4.52L-123.15 4.34C-122.15 4.28 -122.15 4.28 -121.63 4.56L-121.46 4.41L-120.56 4.94C-120.37 4.81 -120.15 4.67 -119.95 4.52C-119.75 4.37 -119.47 4.52 -119.1 4.64L-119.45 4.21C-119.16 4.15848 -118.876 4.08151 -118.6 3.98C-118.49 3.98 -118.41 3.81 -118.28 3.69L-118.58 3.58L-118.5 3.29L-118.13 3.29L-117.79 2.98L-117.58 3.35L-117.44 2.99L-117.1 2.99L-117.2 2.85L-116.79 2.39L-116.66 2.51L-116.42 1.98L-116.15 2.06L-115.55 1.82L-115.32 2.33C-115.2 2.33 -115.02 2.49 -114.89 2.45C-114.76 2.41 -114.63 2.33 -114.51 2.45C-114.39 2.57 -114.03 2.45 -113.95 2.8L-113.2 2.67L-113.51 3.48L-113.41 3.54L-113.14 3.18L-112.78 3.08L-112.4 3.58C-112.257 3.46187 -112.09 3.37653 -111.91 3.33C-111.728 3.29491 -111.542 3.29491 -111.36 3.33L-111.36 2.87L-111.54 3.22L-111.87 3.02C-111.78 2.94 -111.71 2.82 -111.64 2.82C-111.376 2.83127 -111.116 2.74596 -110.91 2.58C-110.799 2.6582 -110.666 2.70011 -110.53 2.7C-110.391 2.70152 -110.254 2.65957 -110.14 2.58L-110.06 2.81L-109.64 2.81L-109.55 3.07L-109.34 2.98L-109.02 3.25C-109.02 3.2 -108.96 3.15 -109.02 3.1L-109.24 2.53C-108.99 2.42 -108.96 2.74 -108.8 2.77C-108.64 2.8 -108.21 2.77 -108.06 2.58C-107.91 2.39 -107.62 2.42 -107.37 2.36L-107.59 2.12L-106.68 2.28L-106.48 2.48L-106.13 2.36L-105.69 2.89L-105.33 2.89L-105.11 2.66C-104.73 2.89 -104.37 3.23 -103.9 2.84L-104.01 2.7L-103.83 2.5L-103.56 2.91L-103.06 2.66C-102.91 2.88 -102.56 2.94 -102.5 3.31C-102.21 3.06 -102.57 2.87 -102.5 2.63C-102.19 2.63 -102.21 3.06 -101.94 3.12L-101.71 2.78L-100.83 2.78L-100.39 3.13L-99.99 2.98L-99.81 3.26L-99.7 2.98L-98.52 3.68L-98.52 3.54L-98.2 3.86L-97.42 3.86L-97.57 4.17L-97.18 4.26L-97.31 4.6L-96.69 4.47L-96.21 4.1L-96.09 4.38L-95.77 4.22C-95.55 4.31 -95.51 4.47 -95.53 4.71L-95.09 4.71L-95.01 4.97L-94.67 4.97L-94.78 4.73C-94.46 4.73 -94.38 5.03 -94.22 5.12L-93.99 5.72L-93.55 4.98C-93.4171 5.09137 -93.273 5.18856 -93.12 5.27C-92.98 5.33 -92.78 5.21 -92.66 5.48L-92.26 4.99L-91.86 5.48L-91.34 5.48L-91.16 5.14L-91.1 5.71L-90.78 6.17C-90.7688 6.05033 -90.7419 5.93265 -90.7 5.82C-90.7 5.72 -90.64 5.76 -90.6 5.73L-90.05 5.82L-89.92 6.08L-89.65 5.93L-89.38 6.38L-89.6 6.61L-89.6 6.68C-89.3638 6.73864 -89.1511 6.86768 -88.99 7.05C-88.88 7.16 -88.75 7.26 -88.6 7.39L-88.43 6.33L-88.06 6.33C-88.06 6.22 -88.06 6.11 -88.06 5.96C-87.6587 6.01011 -87.2519 5.92945 -86.9 5.73C-86.8 5.66 -86.63 5.73 -86.4 5.84L-85.93 5.35C-85.56 5.56 -85.16 5.4 -84.75 5.47L-84.43 5.95L-84.01 5.95L-83.59 6.46L-83.59 6.58L-82.59 6.77L-82.45 7.06L-82.54 7.21L-82.48 7.21L-82.03 6.98L-81.81 7.48L-81.65 7.48L-81.79 7.17L-81.41 7.06L-80.61 7.96L-80.5 7.96L-80.61 7.77L-80.4 7.77C-80.4083 7.91655 -80.4083 8.06345 -80.4 8.21L-79.99 8.52L-80.17 8.75C-80.11 8.75 -80.04 8.82 -80.01 8.75C-79.9206 8.69902 -79.8451 8.62692 -79.79 8.54C-79.68 8.4 -79.59 8.25 -79.54 8.18L-79.04 8.03L-78.87 8.85C-78.55 8.85 -78.59 8.28 -78.23 8.23C-78.03 8.75 -78.62 8.93 -78.67 9.37L-77.84 9.24L-77.61 9.64L-77.42 9.39L-77.2 9.12L-76.86 9.29L-76.67 8.98C-76.47 9.38 -76.44 9.86 -76.12 10.19L-76.44 10.34C-76.2868 10.3874 -76.1256 10.4038 -75.9659 10.3884C-75.8063 10.3729 -75.6513 10.3259 -75.51 10.25L-74.95 10.43L-75.14 10.66C-75.34 10.93 -75.14 11.16 -75.01 11.4L-74.38 11.09C-74.38 11.03 -74.38 10.96 -74.32 10.89L-74 11.07C-74.0124 11.2164 -74.0124 11.3636 -74 11.51L-73.69 11.35C-73.6803 11.469 -73.6568 11.5864 -73.62 11.7L-73.3 11.97C-73.2486 11.9425 -73.1951 11.9191 -73.14 11.9C-73.0336 11.89 -72.9264 11.89 -72.82 11.9C-72.74 12.26 -72.39 12.22 -72.15 12.33C-72.1683 12.3988 -72.1683 12.4712 -72.15 12.54L-71.73 12.54L-71.63 12.8L-71.5 12.54C-71.29 12.8 -71.29 12.8 -71.43 13.14L-71.05 13.19L-70.75 13.76L-70.34 13.76L-70.08 13.36L-69.78 13.6L-70.04 13.69C-69.95 13.96 -69.61 13.95 -69.49 14.26C-69.37 14.57 -68.99 14.43 -68.75 14.43C-68.38 14.65 -68.38 14.65 -68.19 15.1L-68.32 15.31C-67.89 15.37 -67.72 15.02 -67.4 14.88L-67.73 14.75L-67.44 14.62L-67.29 14.69L-66.83 14.09L-66.95 13.98L-66.47 13.83C-66.25 14.21 -65.79 14.14 -65.47 14.29C-65.35 14.34 -65.18 14.29 -65.01 14.24L-65.01 14.68L-65.74 14.68C-65.4193 14.7953 -65.0722 14.8161 -64.74 14.74C-64.67 14.74 -64.65 14.68 -64.55 14.74C-64.45 14.8 -64.21 14.85 -64.15 14.79C-63.88 14.48 -63.47 14.64 -63.15 14.45C-63.0377 14.4237 -62.9195 14.4416 -62.82 14.5C-62.71 14.5 -62.64 14.55 -62.36 14.41C-62.36 14.66 -62.36 14.98 -61.93 14.94C-61.86 14.94 -61.7 15.06 -61.71 15.12C-61.71 15.4 -61.43 15.64 -61.62 15.93C-61.6622 16.0234 -61.6957 16.1205 -61.72 16.22L-61.43 16.64L-61.29 16.1C-61.06 15.97 -61.1 16.2 -61.01 16.35L-60.92 16.12L-60.4 15.98C-60.4 16.23 -60.4 16.42 -60.4 16.68L-60.08 16.24L-59.73 16.48L-59.92 16.76C-59.81 16.76 -59.68 16.76 -59.68 16.76C-59.68 16.51 -59.42 16.42 -59.21 16.19L-59.12 16.76L-58.48 16.66L-58.06 17.14C-58.0962 17.2813 -58.1464 17.4187 -58.21 17.55C-57.92 17.38 -57.76 17.29 -57.59 17.2C-57.42 17.11 -57.23 16.93 -57.08 16.96C-56.8801 16.95 -56.6799 16.95 -56.48 16.96C-56.41 16.96 -56.34 17.08 -56.25 17.15L-56.51 17.25L-56.2 17.75L-55.93 17.6L-55.84 17.87C-55.8421 17.8914 -55.8485 17.9122 -55.8588 17.9311C-55.8691 17.95 -55.8831 17.9666 -55.9 17.98C-55.6 17.93 -55.34 18.06 -55.07 17.85C-54.85 18.1 -54.55 17.85 -54.26 18.02L-54.53 18.17C-54.5181 18.2504 -54.4793 18.3244 -54.42 18.38C-54.3629 18.4319 -54.2944 18.4696 -54.22 18.49C-54.1 18.49 -54.05 18.73 -53.97 18.87L-53.85 18.75L-53.55 18.89C-53.5354 19.0069 -53.5052 19.1212 -53.46 19.23C-53.3607 19.3209 -53.2497 19.3983 -53.13 19.46L-53.23 19.03L-52.99 18.91L-53.14 18.64L-52.79 18.41C-52.79 18.22 -52.79 17.98 -52.41 17.96L-52.41 18.44L-52.32 18.49L-52.14 18.16L-51.85 18.61L-51.69 18.47C-51.55 18.73 -51.83 18.78 -51.89 18.94L-51.61 19.14L-51.5 18.98L-51.58 18.82L-51.43 18.51L-51.3 18.62L-51.15 18.5L-50.91 18.88L-50.62 18.88L-50.29 18.24L-49.84 18.41L-50.18 17.84L-49.9 18L-49.78 17.69C-49.7714 17.8353 -49.7479 17.9794 -49.71 18.12L-49.41 18.12L-49.04 17.47C-48.68 17.65 -48.61 18.03 -48.41 18.28L-47.94 18.13L-47.66 18.55L-47.33 18.39L-46.92 18.93L-46.73 18.37C-46.54 18.5 -46.31 18.51 -46.29 18.76L-46 18.48L-46 19.36L-46.35 19.58C-46.14 19.75 -45.98 19.58 -45.67 19.44C-45.7346 19.5176 -45.7916 19.6014 -45.84 19.69L-45.84 19.88C-45.7143 19.8728 -45.5914 19.8387 -45.48 19.78C-45.369 19.7191 -45.2706 19.6376 -45.19 19.54L-44.68 20.15L-44.22 20.15L-44.22 20.08L-44.64 20.01L-44.3 19.83C-44.04 19.83 -43.8 19.83 -43.67 19.94C-43.54 20.05 -43.31 20 -43.15 20.07C-42.99 20.14 -42.8 20.6 -42.49 20.74C-42.5088 20.8324 -42.5088 20.9276 -42.49 21.02L-42.06 21.14L-41.81 20.78L-41.5 20.98L-41 20.81C-41.0056 20.749 -40.9878 20.6882 -40.95 20.64C-40.9343 20.6278 -40.9149 20.6212 -40.895 20.6212C-40.8751 20.6212 -40.8558 20.6278 -40.84 20.64C-40.6327 20.6956 -40.4342 20.7798 -40.25 20.89C-39.9265 21.0786 -39.5926 21.2489 -39.25 21.4C-38.89 21.59 -38.54 21.8 -38.17 22.01C-38.1602 21.8819 -38.1401 21.7549 -38.11 21.63L-37.78 21.76L-37.78 21.43L-37.23 21.43L-36.99 21.6L-37.16 21.87L-36.73 21.87L-36.36 21.49L-36.17 21.63L-35.76 21.14L-35.62 21.48L-35.5 21.39L-34.71 21.96L-34.83 22.36L-33.83 22.56L-33.76 22.76L-33.41 22.59L-33.54 22.45L-32.94 22.14L-32.43 22.14L-32.14 22.45C-32.36 22.63 -32.24 22.76 -32.04 22.9C-32.04 22.7 -32.04 22.5 -31.98 22.26L-31.43 22.26L-31.43 22.19L-31.66 22.08L-31.34 21.9L-31.08 22.16C-31.08 21.67 -30.58 21.85 -30.39 21.51C-30.4865 21.5108 -30.5817 21.5312 -30.67 21.57C-30.87 21.72 -31.01 21.57 -31.19 21.41L-30.92 21.41C-30.7038 21.43 -30.4862 21.43 -30.27 21.41L-30.45 21.2L-30.15 21.2C-29.87 21.29 -29.96 21.74 -29.56 21.71C-29.6078 21.6332 -29.6416 21.5486 -29.66 21.46L-29.66 21.12C-29.5 21.03 -29.22 21.12 -29.16 20.81C-29.0999 20.604 -29.023 20.4034 -28.93 20.21L-28.5 20.21L-28.39 20.5L-28.21 20.16L-27.9 20.38L-27.78 20.05L-27.78 20L-27.38 19.74L-27.71 19.62C-27.632 19.6013 -27.5552 19.5779 -27.48 19.55C-27.4253 19.5086 -27.3751 19.4617 -27.33 19.41C-27.3206 19.5348 -27.3005 19.6586 -27.27 19.78C-26.9 19.78 -26.86 19.33 -26.6 19.21L-26.43 19.87L-25.96 19.34L-25.72 19.71L-25.53 19.71L-24.85 19.04L-24.52 19.23C-24.36 19.11 -24.23 18.9 -23.96 18.93C-23.69 18.96 -23.9 18.49 -23.52 18.6L-23.66 18.97L-23.27 18.8C-23.48 18.6 -23.19 18.49 -23.36 18.24L-22.77 18.4L-22.1 18.12L-21.98 18.44L-21.43 18.35L-21.24 18.55L-20.73 18.55L-20.42 18.25C-20.2503 18.3424 -20.0627 18.3969 -19.87 18.41C-19.6758 18.4208 -19.4814 18.3901 -19.3 18.32L-19.93 18.27L-19.93 18.2L-19.21 18.2L-18.78 18.69L-18.6 18.55L-18.22 19.03L-17.99 18.54L-17.72 18.93C-17.701 18.7673 -17.6676 18.6067 -17.62 18.45L-17.35 19.02L-17.59 19.17C-17.6743 19.2093 -17.7611 19.2428 -17.85 19.27L-17.64 19.33C-17.4052 19.2884 -17.1633 19.3234 -16.95 19.43L-16.95 19.23L-17.43 19.15L-16.84 18.88C-16.8411 18.7672 -16.8208 18.6552 -16.78 18.55C-16.48 18.86 -16.03 18.97 -15.9 19.46L-15.47 19.46L-15.85 19.06C-15.64 18.88 -15.29 19.14 -15.23 18.79L-15.57 18.48L-15.84 18.48L-15.68 18.29L-16.04 18.23L-16.04 18.14L-15.49 18.06L-15.23 18.32L-15.34 18.44L-14.82 19.01L-14.44 19.17L-14.58 18.78L-14.28 18.63L-14.19 18.7L-13.9 18.61C-13.7836 18.5998 -13.6664 18.5998 -13.55 18.61L-13.85 18.29L-13.71 18.16C-13.46 17.99 -13.26 18.16 -13.03 18.26L-12.79 18.67L-12.63 18.36L-11.78 18.53L-12.12 17.89C-12.03 17.73 -11.96 17.65 -11.87 17.5C-11.8169 17.6208 -11.7498 17.7349 -11.67 17.84C-11.5819 17.8965 -11.4881 17.9434 -11.39 17.98L-11.48 18.45L-11.5 18.45C-11.4817 18.3724 -11.4513 18.2982 -11.41 18.23L-10.97 18.18L-10.97 17.84L-10.46 17.64L-10.57 17.5L-10.33 17.39L-10.42 17.28L-10 16.28L-9.5 16.28C-9.51941 16.1809 -9.51941 16.0791 -9.5 15.98C-9.25 16.1 -9.02002 16.15 -8.89002 15.79L-9.02002 15.6L-8.82001 15.54C-8.80951 15.6687 -8.78605 15.796 -8.75 15.92L-8.10999 15.92L-7.72998 16.3L-7.97998 16.77C-7.63998 17.09 -7.12002 17.02 -6.71002 17.34L-6.64002 17.12L-6.33002 17.12L-5.96997 16.7L-5.67999 16.88L-5.21002 16.47C-4.85002 16.59 -4.66002 16.23 -4.33002 16.1L-3.71002 16.33C-3.70174 16.1721 -3.68169 16.015 -3.65003 15.86C-3.35003 15.79 -3.14999 15.99 -2.92999 16.15L-3.08002 16.32L-2.85999 16.64C-2.75829 16.5491 -2.62642 16.4992 -2.48999 16.5C-2.3539 16.501 -2.22266 16.5507 -2.12 16.64L-1.96997 16.21L-1.84998 16.21C-1.84998 16.4 -1.59998 16.56 -1.78998 16.77L-1.59003 16.98L-1.34998 16.84L-1.15003 17.04L-0.460023 16.86L-0.460023 16.97L-0.0599983 16.58L-0.28003 16.47L0.499999 16.47C0.499999 16.72 0.839997 16.96 0.559997 17.28L1.07001 17.45C1.27001 17.19 1.65998 17.45 1.91998 17.2C2.09405 17.2208 2.26321 17.2715 2.41998 17.35C2.57475 17.4311 2.711 17.5435 2.82001 17.68L2.71997 17.09C3.13108 17.12 3.5338 17.2215 3.90997 17.39L3.78003 17.54L4.21002 17.79L4.06 17.5C4.06 17.5 4.14998 17.45 4.16998 17.5C4.25903 17.5755 4.35256 17.6457 4.45001 17.71C4.57787 17.7462 4.70823 17.773 4.84003 17.79L4.66998 18.08C4.71998 18.08 4.82002 18.14 4.83002 18.08L5.39001 17.25L4.69 17.56L4.69 17.26C4.99 16.97 5.3 17.12 5.69 17.26L5.69 17.52L6.07001 17.87L6.71002 17.78L7.42999 17.89L7.65002 17.59L8.39001 17.97L8.77002 17.76C9.05002 17.76 9.09001 18.07 9.26001 18.22L9.53003 18.07L9.61999 18.35L9.88 18.35L10.51 19.02L10.7 18.76L10.43 18.57L10.92 18.24L11.01 18.33L11.44 18.1C11.4231 18.1656 11.4231 18.2344 11.44 18.3L11.66 18.38L11.43 18.83L11.84 18.83L12.59 19.6L13.24 19.6C13.24 19.81 13.24 19.83 13.04 19.93L13.29 20.05L13.12 20.29L13.62 20.47C13.94 20.15 14.29 20.73 14.62 20.47L14.62 19.86L15.45 20.08L14.83 20.36C15.1206 20.4098 15.4154 20.4299 15.71 20.42L15.96 20.79L16.5 20.98C16.5 21.26 16.83 21.19 16.93 21.38L17.02 21.29L16.91 21.11L17.5 20.98C17.58 21.08 17.77 21.17 17.8 21.44L18.27 21.44L18.12 21.73L18.81 22.08C18.9569 22.0013 19.1245 21.9699 19.29 21.99C19.3931 21.9967 19.4946 22.0203 19.59 22.06C19.71 22.12 19.85 22.12 19.97 22.17C20.09 22.22 20.21 22.09 20.43 22C20.39 22.3321 20.39 22.6679 20.43 23C20.64 22.85 20.94 22.86 21.01 22.51L20.75 22.43L20.92 22.08L21.19 22.08L21.72 21.23L21.6 21.08L22.2 21.08L22.2 21.14L22.02 21.19L21.8 21.19L22.22 21.42L22.76 20.92L23.21 21.05C23.2335 21.1386 23.2706 21.2229 23.32 21.3C23.3293 21.2209 23.3495 21.1435 23.38 21.07C23.86 21.02 24.06 20.56 24.44 20.26L25.09 20.26L25.37 19.64L26.21 19.64L26.71 19.98L27.91 20.17L27.76 19.77L27.93 19.77L28.09 20.1L27.94 20.38L28.73 20.38L29.29 20.73L29.02 20.84L29.89 21.18C29.74 21.48 29.94 21.65 29.96 21.9L29.88 22.14L30.56 22.03L30.42 22.4L30.62 22.48L30.53 22.67L30.73 22.67C30.7403 22.538 30.7638 22.4074 30.8 22.28L31.29 22.7L31.38 22.64L31.26 22.43L31.42 22.08L32.31 21.78L32.66 22.27L32.81 21.91L32.94 22.01L33.16 21.88L33.59 22.29C33.59 22.21 33.65 22.14 33.69 22.02L34.08 22.41L34.32 22.41L34.64 21.85L35.2 21.95L35.2 21.88L34.91 21.68L34.58 21.46C34.76 21.22 34.78 21.21 35.04 21.16L35.2 20.84C35.2 20.84 35.13 20.77 35.2 20.79L35.32 20.47L35.5 20.47L35.62 20.79L35.52 20.98C35.5828 21.0096 35.6507 21.0266 35.72 21.03C35.7958 21.0207 35.87 21.0005 35.94 20.97L36.16 20.88C36.16 20.66 36.16 20.41 36.55 20.4C36.55 20.64 36.66 20.88 36.46 21.09L36.62 21.41C36.6526 21.366 36.6934 21.3287 36.74 21.3C36.8099 21.2953 36.8801 21.2953 36.95 21.3C36.9355 21.1506 36.9053 21.0031 36.86 20.86C36.86 20.86 36.92 20.86 36.94 20.86C37.12 20.99 37.42 20.97 37.45 21.3C37.45 21.3 37.6 21.38 37.79 21.47L37.09 21.47L37.09 21.58L37.69 21.64L37.56 21.89L38.08 21.73C38.34 21.84 38.43 22.27 38.82 22.07L38.72 21.94C38.89 21.94 38.9 21.94 39.07 22.06L38.97 22.17L39.27 22.6L39.79 22.7L39.98 21.88L40.46 22.22C40.4377 22.4085 40.4042 22.5954 40.36 22.78L40.8 22.51L41.35 23.13L41.5 22.98L41.35 22.8C41.4252 22.7798 41.5038 22.7747 41.581 22.785C41.6582 22.7953 41.7327 22.8208 41.8 22.86C41.9387 22.9322 42.0456 23.0534 42.1 23.2C42.3355 22.9506 42.6373 22.7736 42.97 22.69L43.1 22.8C43.3 22.69 43.41 22.38 43.82 22.41L43.43 22.72L43.55 23.28L44.22 23.47L44.09 23.47C44.0001 23.5604 43.8906 23.6288 43.77 23.67L43.69 23.67L43.69 23.74C43.69 23.79 43.69 23.83 43.69 23.84C43.69 23.85 44.01 24.01 44.03 24.13C44.0444 24.1944 44.0818 24.2513 44.1352 24.29C44.1886 24.3287 44.2544 24.3465 44.32 24.34L44.13 24.69L44.54 24.69C44.5218 24.5606 44.5218 24.4294 44.54 24.3C44.94 24.4 45.3 24.13 45.71 24.17C46.12 24.21 46.54 24.17 46.91 24.17L47.2 24.02C47.32 24.16 47.2 24.17 47.2 24.23C47.5 24.23 47.5 24.23 47.85 23.44L48.29 23.32L48.6 23.48L48.6 23.53L48.66 23.53C48.75 23.85 49.08 24.02 49.38 24.2L49.56 24.02L49.56 23.6L49.68 23.54C49.8153 23.5602 49.9468 23.6006 50.07 23.66L50.22 23.89L49.88 24.34L49.78 24.43L49.87 24.33C50.19 24.33 50.38 24.05 50.63 23.9L50.5 23.76C50.67 23.76 50.85 23.91 50.97 23.69L51.2 23.92L51.46 23.8L51.46 23.87L51.69 24.23L51.84 25.23L51.93 25.23C51.9912 25.1275 52.0448 25.0205 52.09 24.91L52.17 24.96L52.97 24.7C52.97 24.89 53.08 25.12 52.85 25.38L53.36 25.44L53.36 25.98L54.11 24.66L54.27 24.59C54.3059 24.7401 54.386 24.876 54.5 24.98L54.5 24.58L54.66 24.52L54.74 24.52L54.96 24.4L55.21 24.35C55.21 24.43 55.21 24.52 55.21 24.61L55.41 24.51L55.41 24.69L55.06 24.86L55.46 24.86L55.74 24.59L55.99 24.99L56.09 24.7L57.09 24.94L57.09 24.87L57.74 25.36L57.85 25.24L58.18 25.53L58.36 25.27C58.48 25.27 58.61 25.1 58.79 25.11L58.79 25.2L58.86 25.2L58.75 25.42L59.12 25.27C59.1297 25.3162 59.1297 25.3638 59.12 25.41L59.27 25.58L59.4 25.38L59.84 25.55L60.29 26.55L59.96 26.71L60.22 26.79L60.22 27.24L60.6 27.3L60.49 27.51L60.83 27.51C60.83 28.03 61.38 27.8 61.53 28.15L61.65 28.06L61.98 28.22L61.84 28.38L62.19 28.38L62.55 29.25L62.64 28.77L62.93 28.77L63.09 29.08L62.99 29.19L63.19 29.4L63.65 28.6L63.88 29.17L64.03 29.04C64.1278 29.0621 64.2177 29.1105 64.29 29.18C64.3612 29.2466 64.416 29.3287 64.45 29.42L65.06 29.02C65.1406 29.1314 65.2275 29.2383 65.32 29.34L64.76 29.43L64.76 29.5C64.9275 29.4589 65.1025 29.4589 65.27 29.5C65.3334 29.5501 65.4097 29.5813 65.49 29.59C65.5692 29.593 65.6471 29.5683 65.71 29.52V29.52C65.8103 29.5777 65.9179 29.6214 66.03 29.65C66.1998 29.6514 66.3683 29.6784 66.53 29.73L66.17 29.82L66.24 30.02C66.47 29.97 66.39 30.23 66.48 30.28L66.81 30.1L66.64 30.54L67.02 30.46L67.18 30.56L67.7 30.27L67.58 30.63C67.58 30.75 67.68 30.72 67.73 30.78L68.15 30.78C68.15 30.71 68.15 30.65 68.21 30.53L68.38 30.67L68.9 30.5L69.13 30.98C69.268 31.0351 69.422 31.0351 69.56 30.98C69.6983 30.9139 69.8083 30.8004 69.87 30.66L70.5 30.66L70.66 31.1L71.09 31.02L71.57 30.9C71.67 31.06 71.57 31.36 71.93 31.41L72.02 31.2L72.17 31.2C72.3872 31.3225 72.5916 31.4666 72.78 31.63C72.924 31.8001 73.045 31.9884 73.14 32.19L73.53 31.7L74.09 32.09L74.5 31.97L74.73 32.4L74.84 31.9L75.32 31.8L74.83 31.71L74.83 31.4L75 31.34L75.12 31.61L75.72 31.53L75.58 31.83L75.76 31.97C75.91 31.84 76.09 31.77 76.24 31.97L76.6 31.71C76.5956 31.7176 76.5933 31.7262 76.5933 31.735C76.5933 31.7438 76.5956 31.7524 76.6 31.76C76.6 31.76 76.6 31.76 76.6 31.76L76.48 32.02L76.75 32.14L76.99 32.02L77.28 32.39C77.4122 32.3813 77.543 32.3578 77.67 32.32C77.9 32.23 78.11 32.05 78.41 32.17C78.31 32.74 78.97 32.64 79.08 32.97L79.64 33.16L79.72 32.76L79.92 32.91L80.3 32.66L80.6 32.6L80.97 32.79L81.17 32.53L81.26 32.63L81.16 32.54L81.16 32.4L81.64 32.54L81.83 32.24C81.9 32.3 81.97 32.32 81.97 32.34C81.97 32.56 81.92 32.81 82.21 32.91C82.51 32.86 82.42 32.56 82.52 32.4L82.69 32.4C82.7035 32.5177 82.7236 32.6345 82.75 32.75L82.92 32.62L83.16 33L83.5 33L83.57 33.09L83.39 33.44L83.6 33.73L83.6 33.26C83.75 33.31 83.86 33.37 83.99 33.42L83.99 33.98L84.33 33.98L84.41 34.4L84.96 34.27L84.96 34.63L85.2 34.63L85.09 34.46L85.21 34.21L85.58 34.59L85.33 34.69L85.39 34.76L85.01 34.76L84.84 35.1L85.13 35.23L85.56 35.11L85.28 35.33L85.43 35.62L85.06 35.68L85.22 36.25L85.64 36.16L85.74 36.45L86.03 36.3L86.51 36.45L86.58 36.22L87.58 36.04L87.58 35.79L87.93 35.79L88.01 35.91L87.94 36.05L88.34 36.46L88.04 37.15L88.44 37.38L88.16 37.55C88.2083 37.6395 88.2485 37.7332 88.28 37.83L88.28 38.22L88.88 37.45C88.88 37.94 88.98 38.3 88.55 38.45L88.55 38.82L89.55 38.31L89.55 37.98L90 38.21L90.25 37.98L90.39 38.27C90.59 38.15 90.64 37.93 90.75 37.71L90.83 37.96L91.54 37.96L91.54 37.64L91.77 37.56L91.77 36.73L92.15 36.73C92.21 36.97 92.4 36.81 92.53 36.86C92.66 36.91 92.66 36.96 92.74 36.99L92.74 37.19L92.74 37.01L93.05 37.11L93.05 37.18C93.05 37.52 92.72 37.45 92.49 37.6L93.13 37.6L93.31 37.37L93.31 37.31L93.44 37.31L93.53 37.22C93.5871 37.2719 93.6556 37.3096 93.73 37.33L94.5 36.98L94.88 37.33L94.97 37.16L94.97 37.45L95.05 37.45L95.14 37.23C95.34 37.23 95.54 37.16 95.75 37.14C95.8906 37.1798 96.0394 37.1798 96.18 37.14C96.2818 37.1499 96.3804 37.1805 96.47 37.23L96.82 36.93L97.09 37.07L97.18 37.17L97.08 37.08L97.27 36.92C97.2643 37.0257 97.2814 37.1314 97.32 37.23C97.58 36.78 98.03 36.85 98.38 36.66L98.61 36.74L98.86 37.36L98.92 37.28L98.97 37.28C98.9832 37.213 99.0144 37.1508 99.06 37.1L99.06 37.02L99.36 37.17C99.3477 37.0472 99.3209 36.9264 99.28 36.81L99.52 36.81L99.94 37.2L100.07 36.93L100.01 36.81L100.2 36.81C100.219 36.9142 100.253 37.0151 100.3 37.11L100.46 36.8L101.2 37.18L101.34 37.05L101.9 37.56L102.37 37.56L102.25 37.4C102.35 36.84 102.96 36.92 103.25 36.47L103.58 36.89L103.21 37.07L103.77 37.3L103.63 37.82C103.82 37.82 103.96 38.15 104.19 37.89L104.8 38.09L105.13 37.96L105.48 38.29L105.66 38.15C105.86 38.22 105.88 38.38 105.85 38.62L105.37 38.62L105.37 38.75C105.62 39.01 105.97 38.98 106.23 39.15L106.31 39.07L106.2 38.94L106.58 38.94L106.78 39.66L107.5 39.39L107.32 39.79C107.387 39.7846 107.453 39.7846 107.52 39.79C107.6 39.52 107.91 39.51 108.05 39.26L108.16 39.57L108.49 39.3L108.64 39.3C108.755 39.3046 108.87 39.2769 108.97 39.22L108.73 39.12C108.712 39.0443 108.712 38.9657 108.73 38.89L108.93 39.07L108.93 38.68L109.85 38.32L110.11 38.75L110.36 38.75L110.72 39.11L111.27 39.41L112.11 38.96L112.31 38.63L112.45 38.94L112.79 38.77L113.1 39.05C113.179 39.0049 113.263 38.9681 113.35 38.94C113.45 39.07 113.49 38.94 113.57 38.94C113.642 38.8998 113.72 38.8695 113.8 38.85L114.19 38.95C114.27 38.79 114.34 38.68 114.41 38.56C114.514 38.628 114.636 38.6642 114.76 38.6642C114.884 38.6642 115.006 38.628 115.11 38.56L115.37 38.85L115.47 38.85C115.498 38.9006 115.531 38.9476 115.57 38.99C115.57 38.99 115.72 38.99 115.8 38.99C115.79 39.026 115.79 39.064 115.8 39.1C115.819 39.1363 115.846 39.1673 115.88 39.19C115.916 39.1955 115.954 39.1955 115.99 39.19C116.029 39.2002 116.071 39.2002 116.11 39.19L116.11 39.35L116.2 39.17L116.2 39.1L116.31 38.88C116.329 39.0181 116.355 39.155 116.39 39.29C116.53 38.88 116.53 38.48 116.95 38.38L116.95 38.24L117.09 38.41C117.26 38.18 117.44 38.27 117.69 38.27L117.29 38.57L117.29 38.64L117.73 38.57L117.87 38.85L117.64 38.92C117.69 39.04 117.79 39.09 117.88 39.2C117.97 39.31 117.88 39.49 117.88 39.66L118.12 39.66L118 39.5L118.06 39.43C118.2 39.3 118.38 39.43 118.54 39.33C118.628 39.3003 118.722 39.3003 118.81 39.33C118.902 39.3411 118.989 39.3794 119.06 39.44C119.18 39.53 119.42 39.44 119.61 39.44C119.719 39.4572 119.826 39.484 119.93 39.52L120.56 39.27L120.56 39.35L120.45 39.52L120.75 39.52L120.63 39.64L121.03 39.64C121.041 39.5179 121.064 39.3972 121.1 39.28L121.43 39.28L121.43 39.75L122.64 39.75L122.64 39.56L123.09 39.42L123.19 39.64L122.76 39.64L122.76 39.88C122.963 39.8132 123.176 39.7794 123.39 39.78C123.591 39.8714 123.78 39.9891 123.95 40.13C123.936 40.0171 123.936 39.9029 123.95 39.79L123.6 39.79C123.619 39.701 123.619 39.609 123.6 39.52L124 39.69L123.92 39.12L124.07 38.96L124.91 39.39L125.5 38.88L125.6 38.88L125.6 38.72L125.7 39.15L126.11 38.8L126.35 38.8C126.301 38.717 126.248 38.6369 126.19 38.56L126.27 38.47L126.65 38.75L126.78 38.29L126.59 38.21L126.64 38.11L127.09 38.59C127.29 38.52 127.44 38.49 127.46 38.34C127.587 38.4905 127.692 38.659 127.77 38.84L128.07 38.7C128.37 38.9 128.83 38.82 129.07 39.17C129.2 39.17 129.36 39.05 129.44 39.09C129.491 39.1303 129.555 39.1516 129.62 39.15C129.682 39.1501 129.742 39.1289 129.79 39.09L130.3 39.36L130.69 39.16L130.56 38.89L130.77 38.67L130.87 38.23L131.29 38.84L131.29 38.52L131.62 38.37L131.62 38.44C131.606 38.5192 131.582 38.5964 131.55 38.67L131.95 39.24L132.27 39.08L132.65 39.45L132.51 39.69C132.57 39.69 132.65 39.69 132.69 39.69C132.833 39.5852 132.97 39.4716 133.1 39.35L133.1 39.92L132.8 39.92C132.8 39.97 133.08 40.37 133.36 40.55C133.37 40.418 133.394 40.2874 133.43 40.16L133.77 40.16C133.757 40.2803 133.726 40.3981 133.68 40.51L134.13 40.51L134.01 40.29L134.66 40.11L134.88 40.33L134.73 40.5L135.29 40.5L135.17 40.81L135.35 41L135.7 40.98L135.86 41.14C135.67 41.3 135.86 41.45 135.86 41.6C135.86 41.75 136.25 41.8 136.43 41.97C136.468 42.1194 136.514 42.2663 136.57 42.41L137.57 42.59L137.65 42.48L137.65 42.54L137.54 42.63C137.61 42.75 137.67 42.88 137.74 43.03L138.14 42.85C138.15 43.0277 138.17 43.2047 138.2 43.38L138.91 43.38L138.91 42.63L139.35 42.56L139.06 42.12L139.82 41.35L139.72 41.27L140.09 40.66L140.51 40.85C140.64 41.09 140.66 41.42 141.02 41.48C141.12 41.59 140.94 41.81 141.17 41.83L141.31 42.07C141.387 42.0307 141.468 41.9973 141.55 41.97C141.626 41.9599 141.704 41.9599 141.78 41.97L141.78 41.58C141.86 41.58 141.93 41.58 141.94 41.43C141.993 41.5704 142.017 41.7201 142.01 41.87L142.21 41.71L142.58 42.24L142.94 42.08C143.12 42.29 142.94 42.44 142.94 42.6L143.54 42.6L143.54 42.52L143.25 42.42L143.16 42.5L143.16 42.11L143.62 42.11L143.78 42.27L143.7 42.38L143.84 42.71C143.96 42.71 144.12 42.84 144.16 42.61C144.249 42.5898 144.341 42.5898 144.43 42.61C144.518 42.6314 144.6 42.6724 144.67 42.73L144.8 42.6L145.03 42.26L144.72 42.03L144.79 41.78L144.79 41.48C145.03 41.48 145.23 41.41 145.38 41.62L145.18 41.75L145.18 42.32L145.54 42.32C145.49 42.4017 145.45 42.489 145.42 42.58L145.42 42.9C145.501 42.9723 145.597 43.0268 145.7 43.06C145.809 43.0845 145.921 43.0845 146.03 43.06C146.03 43.06 146.09 42.99 146.12 42.98C146.186 42.9212 146.256 42.8677 146.33 42.82C146.33 42.69 146.27 42.57 146.26 42.44C146.25 42.3102 146.25 42.1798 146.26 42.05L146.52 42.05L146.35 42.26L146.9 42.26L146.8 42.47L146.9 42.57L146.62 42.87L147.28 43.15L147.37 43.25L147.27 43.16L147.47 42.74L147.37 42.26L147.89 42.71L147.79 42.83L147.89 43.05L147.89 43.34L148.26 42.9C148.262 42.8176 148.278 42.7362 148.31 42.66L148.45 42.66C148.65 42.87 148.45 43.03 148.38 43.22L148.57 43.43C148.82 43.43 149.13 43.53 149.33 43.33L150.04 43.46L149.89 43.2L150.5 43.2L150.5 43.83C150.65 43.77 150.71 43.66 150.8 43.59C150.89 43.52 151.06 43.8 151.21 43.53L151.38 43.91C151.56 43.64 151.73 43.7 151.89 43.69C151.89 43.64 151.89 43.6 151.97 43.53L152.71 44.1L152.8 43.84L152.99 43.97L153.46 43.73L153.96 44.57L154.29 44.2C154.338 44.2574 154.4 44.302 154.47 44.33L155 44.16L155 43.97L155.38 43.97L155.25 44.3L155.39 44.47C155.482 44.407 155.583 44.3597 155.69 44.33C155.84 44.33 156.02 44.28 156.13 44.44C156.24 44.3 156.32 44.33 156.49 44.44C156.66 44.55 156.84 44.44 157.04 44.44L157.04 44.6L157.43 44.6L157.3 44.27L157.48 44.27C157.497 44.3702 157.527 44.4677 157.57 44.56L157.84 44.19L158.07 44.31L158.21 44.03L158.49 44.25L158.84 44.25L158.7 44.08L158.94 43.9L158.83 43.82L158.83 43.77L158.91 43.88C159.05 43.95 159.18 44.03 159.32 44.09C159.46 44.15 159.6 44.2 159.55 44.46L160.16 43.96L160.61 44.33C160.616 44.2187 160.633 44.1082 160.66 44L160.88 44.28L161.15 44.11L161.63 44.37L161.8 44.13L162 44.13L162.07 43.91L162.71 43.77L162.99 43.89L163.04 43.82L162.76 43.49L163.15 43.49L163.15 43.68L163.42 43.82C163.57 43.8146 163.718 43.7877 163.86 43.74C164 43.74 163.97 43.66 164.02 43.62C164.28 43.6498 164.52 43.7702 164.7 43.96L165.04 43.82L164.86 44.18C164.931 44.1988 165.002 44.2222 165.07 44.25L165.21 44.37C165.27 44.09 165.59 44.08 165.72 43.86C165.85 43.64 166 43.48 166.14 43.3L166.02 43.15L166.24 43.07L166.34 42.71C166.392 42.7257 166.442 42.7457 166.49 42.77C166.58 42.87 166.4 43.09 166.64 43.11L166.64 42.76C166.93 42.68 166.97 42.94 167.13 43.03L166.88 43.47L166.49 43.53L166.69 43.99L166.97 43.99C167.12 44.2 167.28 44.42 167.46 44.64L167.66 44.25L167.66 43.57C167.765 43.7234 167.91 43.8446 168.08 43.92C168.244 44.0005 168.429 44.0284 168.61 44C168.602 44.132 168.619 44.2642 168.66 44.39L168.99 44.12L168.99 44.76L169.34 45.26C169.43 44.91 169.72 44.77 170.09 44.61L170.24 44.89L171.02 44.89L171.02 45.27C171.103 45.2188 171.18 45.1585 171.25 45.09C171.37 44.94 171.46 44.77 171.6 44.57L172.12 45.05C172.12 44.84 172.21 44.7 172.21 44.48C172.238 44.3036 172.299 44.134 172.39 43.98L172.87 43.98L172.87 43.68L173.13 43.42L173.77 43.22L173.77 42.85L174.19 43.06L174.47 42.87C174.386 42.7643 174.289 42.6701 174.18 42.59C174.033 42.5312 173.883 42.4811 173.73 42.44L173.95 42.21L174.21 42.46C174.26 42.29 174.33 42.12 174.39 41.89L174.6 42.06C174.611 41.924 174.638 41.7898 174.68 41.66L175.24 41.85L175.11 42L175.33 42.08C175.46 42.24 175.21 42.56 175.67 42.64L176.12 42.64L176.12 42.15C176.38 42.24 176.32 42.46 176.39 42.6C176.501 42.7562 176.632 42.8974 176.78 43.02L176.61 43.25L176.95 43.47C177.02 43.68 177.11 43.9 177.21 44.15C177.12 44.32 177.12 44.32 177.21 44.51L176.98 44.59L177.16 45.02L177.45 44.75L177.73 44.96L177.67 44.96L178 45.31L178.21 45.1C178.53 45.1 178.4 45.53 178.72 45.59L179.1 45.49L179.49 45.29L179.7 45.48L179.58 46.01L179.97 45.86C179.958 45.9227 179.958 45.9873 179.97 46.05L179.61 46.12L179.61 46.42L179.67 46.42C180.16 46.02 180.2 46 180.79 46.19C180.797 46.118 180.813 46.0473 180.84 45.98L180.29 45.92L180.48 45.72C180.548 45.7574 180.618 45.7908 180.69 45.82C180.766 45.83 180.844 45.83 180.92 45.82C180.932 45.8986 180.952 45.9758 180.98 46.05L182.3 46.05C182.3 45.91 182.3 45.75 182.3 45.58L182.67 45.58C182.678 45.6945 182.694 45.8082 182.72 45.92C182.96 45.92 183.17 45.99 183.31 45.75L183.19 45.61C183.5 45.45 183.66 45.74 183.92 45.78C183.929 45.7735 183.939 45.77 183.95 45.77C183.961 45.77 183.971 45.7735 183.98 45.78C184.376 45.7513 184.77 45.6978 185.16 45.62C185.16 45.62 185.26 45.69 185.31 45.73L185.07 45.78L185.07 45.86L185.31 45.86L185.31 45.78L185.51 45.68L185.81 45.83L185.67 45.98L185.91 46.05L185.91 45.59L186.2 45.35L185.94 45.14L186.1 44.93L186.54 45.01L186.54 44.98L186.14 44.71C186.37 44.71 186.56 44.61 186.76 44.85L187.12 44.47C187.2 44.92 187.6 45.24 187.76 45.69L187.76 45.28L188.14 45.07L188.58 45.22L188.82 44.92C189.16 45.09 189.16 45.09 189.51 44.92L189.74 45.31L190.14 45.21L190.47 45.4L190.57 45.3L190.81 45.43L191.13 45.14L191.47 45.32L191.57 45L191.81 45.32L192.7 45.83C192.85 45.6628 193.044 45.5415 193.26 45.48C193.45 45.42 193.51 45.08 193.82 45.18L194.07 44.79L194.4 44.79C194.54 45.04 194.79 45.01 195.01 45.08C195.021 45.2013 195.041 45.3217 195.07 45.44L195.24 45.29C195.252 45.3555 195.272 45.4194 195.3 45.48L194.96 45.64L195.59 45.64L195.81 45.96L195.97 45.63C196.11 45.84 196.41 45.87 196.52 46.14C196.587 46.1457 196.653 46.1457 196.72 46.14C196.669 46.0335 196.613 45.93 196.55 45.83C196.696 45.8187 196.837 45.7705 196.96 45.69L196.96 45.81C196.96 45.81 196.96 45.73 196.96 45.71C196.991 45.8509 197.073 45.9754 197.19 46.06L197.4 45.32L197.74 45.32L197.6 45.6C198 45.43 198.36 45.4 198.67 45.03L198.17 45.03C198.08 44.78 198.17 44.61 198.4 44.4L198.4 44.52C198.4 44.7 198.48 44.68 198.57 44.62L198.7 44.54C198.69 44.6231 198.69 44.707 198.7 44.79L198.79 44.79L198.79 44.54L198.69 44.54C198.69 44.33 198.88 44.41 198.97 44.43C199.237 44.4471 199.503 44.4026 199.75 44.3L199.91 44.44L200.5 44.18L200.35 43.69L200.9 43.42L200.57 43.29L200.82 42.9C201.12 43.29 201.7 43.25 201.82 43.82L201.73 43.92C201.92 44.13 202.43 43.92 202.68 43.46L202.94 43.57L203.57 43.24L203.79 43.54L203.9 43.23L204.13 43.23L203.98 43.4L204.12 43.53C204.42 43.42 204.42 43.42 204.53 43.23L204.84 43.23L204.69 43.61L205.03 43.44L205.19 43.78C205.197 43.6021 205.217 43.4249 205.25 43.25C205.461 43.2006 205.666 43.1268 205.86 43.03L205.86 43.08C205.86 43.15 205.86 43.2 205.93 43.2C206.095 43.1841 206.262 43.2153 206.41 43.29C206.562 43.363 206.692 43.4731 206.79 43.61C206.805 43.468 206.832 43.3275 206.87 43.19L207.87 43.51L207.87 43.65L209.02 43.48L209.23 43.77C209.39 43.55 209.79 43.65 209.69 43.25L210.14 43.25L210.3 43.58L209.3 43.82C209.47 43.87 209.65 43.87 209.82 43.82C209.99 43.776 210.144 43.682 210.26 43.55L210.38 43.55C210.43 43.55 210.48 43.66 210.53 43.65C210.652 43.6216 210.769 43.5779 210.88 43.52L210.88 42.98L211.21 43.5C211.219 43.3613 211.243 43.224 211.28 43.09L211.41 43.2L212.19 42.83L212.5 42.98L212.61 42.73L213.17 42.54L213.28 42.82L214.05 42.82L214.1 43.06L214.25 42.94L214.44 43.26L214.79 42.77L215.42 43.17L215.55 43.05L215.45 42.61C215.73 42.5 216.04 42.54 216.13 42.19L216.5 42.19L216.5 42.43C216.647 42.4793 216.798 42.5194 216.95 42.55C217.116 42.57 217.284 42.57 217.45 42.55L217.55 42.83L218.04 42.69L218.31 42.86L218.41 42.55L218.84 42.62L219.01 42.06L218.63 42L218.73 41.83C218.66 41.76 218.58 41.66 218.45 41.5L219.01 41.59L219.25 41.46L219.07 41.13C218.95 41.05 218.6 41.29 218.51 40.84L218.81 40.49L218.98 40.83L218.87 40.97L219.08 41.03C219.094 40.8945 219.121 40.7606 219.16 40.63L219.38 40.63C219.43 40.86 219.59 40.73 219.73 40.73L219.73 40.41L220.11 40.35L220.11 39.98L220.46 39.8C220.477 39.9351 220.504 40.0688 220.54 40.2L220.73 39.98L220.51 39.57L220.81 39.52L221.04 39.14L221.2 39.29L221.36 38.75L221.66 39.43C221.99 39.23 221.99 39.23 222.04 38.8C222.28 38.71 222.25 38.88 222.25 39.03L222.15 39.12L222.23 39.01L222.79 38.91C222.849 38.9466 222.906 38.9867 222.96 39.03L223.2 38.89C223.191 38.9698 223.191 39.0502 223.2 39.13C223.2 39.26 223.53 39 223.55 39.26L224.11 39.26L224.32 39.06L224.03 38.89C224.09 38.81 224.1 38.76 224.12 38.76L224.68 38.63L224.77 38.73L224.67 38.65L224.87 38.49C224.859 38.5663 224.859 38.6437 224.87 38.72L225.71 38.63L225.93 38.3L226.34 38.19L226.34 38.31L227.1 38.78L227.26 38.67L227.35 38.78L227.24 38.69L227.15 38.33C227.37 38.21 227.42 38.49 227.56 38.56C227.72 38.35 227.89 38.41 228.07 38.56L228.23 38.4L228.1 38.15C228.34 37.95 228.49 38.15 228.66 38.22C228.695 38.1232 228.739 38.0295 228.79 37.94L228.95 37.94C228.936 38.0563 228.936 38.1738 228.95 38.29L228.58 38.35L228.58 38.41L228.93 38.47C228.937 38.578 228.954 38.6851 228.98 38.79C229.19 38.89 229.24 38.79 229.19 38.56L229.68 38.65C229.797 38.6013 229.905 38.5337 230 38.45C230.038 38.3997 230.09 38.3615 230.15 38.34C230.209 38.3252 230.271 38.3252 230.33 38.34L230.63 38.72C231.46 37.86 231.46 37.86 231.81 37.78C231.81 37.64 231.54 37.78 231.57 37.52C231.57 37.44 231.41 37.34 231.35 37.27L231.35 36.79L231.51 36.93L231.74 36.71L232.42 36.83L232.5 37.05C232.634 37.0611 232.768 37.037 232.89 36.98C233.012 36.9279 233.122 36.8494 233.21 36.75L233.58 37.12L233.9 36.98L234.46 37.16L234.85 36.82L234.98 37.09L235.49 37.27L235.64 37.13L235.71 37.36C235.94 37.42 236.15 37.45 236.3 37.21L236.1 36.86L236.76 37.16L236.91 37.05L237.31 37.17L237.11 36.78L237.44 36.86L237.79 36.45L237.3 36.33C237.524 36.2667 237.758 36.243 237.99 36.26C237.99 36.04 238.19 36.19 238.17 36.26L238.72 35.69L238.84 35.28L238.6 34.82L238.99 34.9L239.44 34.75L240 34.61L239.89 34.16L240.22 34.16L240.08 33.85L240.52 33.65L240.42 33.55L240.85 33.55L241.16 32.99C241.272 32.9717 241.387 32.9683 241.5 32.98L241.89 33.1L242.03 32.98L242.2 33.12C242.186 32.9904 242.186 32.8596 242.2 32.73L241.9 32.86C241.78 32.74 241.9 32.72 241.9 32.66C241.9 32.6 241.9 32.54 241.9 32.48L242.01 32.26L241.9 32.16L242.31 31.94L242.25 31.74L242.65 32.04L243.21 31.88L243.55 31.42L243.7 31.75L244.12 31.75L244.24 31.47L244.54 32.04L244.43 32.13L244.48 32.13L244.56 32.02L244.79 31.87L244.66 31.54C244.76 31.54 244.85 31.54 244.87 31.54C244.902 31.592 244.952 31.631 245.01 31.65C245.068 31.6698 245.132 31.6698 245.19 31.65L245.27 31.75L245.17 31.66L245.17 31.43L245.72 31.7L245.95 31.19L246.55 31.4L246.98 31.18L247.08 31.27L247.43 31.09L247.3 30.83L247.47 30.67C248 30.54 248.47 30.83 249.07 30.81L249.8 31.1L250.54 32.43L250.54 31.98C250.63 31.98 250.78 32.04 250.79 31.85L251 31.85L250.92 31.49C250.91 31.3702 250.91 31.2498 250.92 31.13L251.81 31.42L251.96 31.59C252.22 31.33 252.16 31.02 252.17 30.68L252.48 30.16L252.76 30.33L252.91 30.08C253.07 30.13 253.22 30.31 253.4 30.15C253.58 29.99 253.7 30.36 253.85 30.1C253.91 30 254.13 29.98 254.28 29.96C254.395 29.9299 254.515 29.9299 254.63 29.96C254.78 29.9799 254.928 30.0168 255.07 30.07L255.36 29.8L255.49 29.93L255.6 29.65L256.26 29.82C256.6 30.63 256.6 30.63 256.92 30.63L256.8 30.49C256.8 30.49 256.86 30.43 256.89 30.43C257.034 30.4805 257.181 30.5206 257.33 30.55C258.079 30.5013 258.831 30.5688 259.56 30.75L259.56 31.05L259.96 31.05L259.81 30.66L260.05 30.66C260.037 30.5798 260.055 30.4975 260.1 30.43C260.118 30.3942 260.144 30.3625 260.175 30.3367C260.206 30.3109 260.241 30.2917 260.28 30.28C260.35 30.28 260.39 30.17 260.4 30.03L259.99 30.16L259.83 29.84C259.83 29.8257 259.835 29.8118 259.844 29.8008C259.853 29.7898 259.866 29.7824 259.88 29.78L260.51 29.66L260.62 29.05L260.29 28.83C260.44 28.7 260.68 28.83 260.9 29.16L261.12 29.04L261.57 29.23L261.85 29.58C262.1 29.38 262.26 29.05 262.66 29.17L262.55 29.33L262.73 29.58L263.29 28.9L263.67 29.17L263.74 29.12C263.696 29.0543 263.659 28.9839 263.63 28.91L263.63 28.59L264.11 28.27L264.31 29.1L264.64 29.01L264.64 29.12L264.72 29.01L265.09 28.57L264.95 28.41L265.37 28.2L265.23 28.49L265.53 28.49L265.93 28.08L266.49 28.26L266.5 27.98L267.11 27.98L267.11 27.9L266.48 27.82C266.81 27.66 266.9 27.26 267.33 27.22C267.316 27.3728 267.286 27.5237 267.24 27.67L267.58 27.84L267.73 27.53C267.51 27.34 267.68 27.09 267.62 26.85C267.99 26.85 268.01 27.08 268.02 27.31C268.21 27.36 268.37 27.59 268.65 27.41L268.52 27.15C268.52 27.1 268.59 27.04 268.62 26.97L269.04 27.1L268.89 27.29L269 27.42L269 27.56C269.16 27.65 269.46 27.56 269.5 27.9L268.92 28.29C269.005 28.3393 269.103 28.3603 269.2 28.35C269.301 28.3425 269.397 28.308 269.48 28.25C269.569 28.3274 269.641 28.4228 269.69 28.53C269.74 28.6371 269.77 28.7523 269.78 28.87L269.68 28.96L269.77 28.86L270.13 28.86L270.5 28.48L270.6 28.78L271.03 28.35L271.24 28.5L271.31 28.36L271.44 28.64L271.74 28.49L271.83 28.6L271.73 28.51L271.73 28.18C271.95 28.36 272.2 28.3 272.35 28.5L272.1 28.5L272.1 28.74L272.31 28.74L272.31 28.5L272.62 28.5L272.82 28.9L272.67 29.13L272.91 29.13L273 29.24L272.9 29.15L273.22 28.73C273.231 28.8652 273.254 28.9991 273.29 29.13L273.53 29.13L273.38 28.95L273.62 28.89L273.49 28.59C273.598 28.5357 273.72 28.5149 273.84 28.53C273.962 28.5396 274.079 28.581 274.18 28.65C274.132 28.5466 274.092 28.4396 274.06 28.33C274.06 28.23 274.17 28 274.24 27.81L274.11 27.66L275.02 27.31L274.77 27.2C275.08 26.76 275.56 26.91 276.03 26.86L275.94 26.51C275.94 26.51 276.02 26.36 276.07 26.23L276.25 26.23L276.13 26.49C276.13 26.49 276.19 26.59 276.21 26.58C276.59 26.58 276.97 26.49 277.36 26.44C277.413 26.3725 277.456 26.2986 277.49 26.22C277.673 26.1614 277.86 26.1179 278.05 26.09L278.65 26.09L278.93 26.71L279.56 26.71L280.31 27.48L280.56 27.48L280.75 27.74L280.75 27.54L281.24 27.38C281.46 27.38 281.57 27.76 281.88 27.74L282.15 27.52L281.76 27.45L281.76 27.38L282.34 27.38L282.24 27.52L282.72 28.33L283.05 28.4L283.19 28.71L282.95 28.83C283.14 29.1 283.14 29.1 283.54 29.25L283.44 29.11C283.67 28.92 283.51 28.65 283.56 28.41C283.63 28.3943 283.703 28.3933 283.773 28.407C283.844 28.4208 283.911 28.4491 283.97 28.49C283.97 28.49 284.16 28.44 284.26 28.41C284.384 28.352 284.515 28.3116 284.65 28.29C284.823 28.3157 284.994 28.3559 285.16 28.41L285.81 28.06C285.78 27.9739 285.743 27.8903 285.7 27.81L286.1 27.81L286.43 27.36L287.04 27.48L286.88 27.77C287.14 27.6 287.33 27.63 287.44 27.38C287.55 27.13 287.81 27.23 288 27.17L288.2 26.8L289.2 26.8L288.59 26.49C288.82 26.37 289.03 26.21 289.33 26.34L289.33 26.98C289.535 26.9904 289.741 26.9702 289.94 26.92C290.005 26.8705 290.084 26.8437 290.165 26.8437C290.246 26.8437 290.325 26.8705 290.39 26.92L290.87 26.76L290.72 26.49L290.94 26.41C290.87 26.31 290.6 26.41 290.74 26.1L291.07 26.1C291.07 26.37 291.07 26.37 291.32 26.29L291.32 25.98L292.19 25.2L292.57 25.2L292.34 24.76L292.53 24.69L292.62 24.48L293.02 24.7L293.12 24.61L293.61 24.94L293.31 25.15L293.48 25.32L293.56 25.32C293.7 25.2 293.93 25.2 293.97 24.92C294.01 24.64 294.24 24.73 294.42 24.71C294.435 24.6156 294.465 24.5243 294.51 24.44L294.8 24.6C294.839 24.4963 294.893 24.3987 294.96 24.31C295.048 24.2314 295.149 24.1703 295.26 24.13L295.64 24.33C295.74 24.18 295.92 24.23 296.07 24.22L296.07 24.48L296.31 24.48L296.31 24.27L296.08 24.27C296.08 24.27 296.08 24.19 295.98 24.11L296.08 24.11C296.17 24.1094 296.257 24.0815 296.33 24.03L296.71 24.31L297.36 24.22L298.02 24.33L298.34 23.9L298.34 23.71L298.9 23.53L299.32 23.7L299.32 23.98L298.8 23.71C298.91 24.01 298.89 24.39 299.35 24.57L299.16 24.18C299.291 24.1586 299.418 24.1217 299.54 24.07C299.656 23.9792 299.794 23.9206 299.94 23.9L299.83 24.06C300.02 24.21 300.09 24.06 300.19 23.92L300.06 23.77L300.57 23.6L300.57 23.71L300.66 23.6L301.21 23.46C301.2 23.6349 301.177 23.8087 301.14 23.98L301.04 24.07L301.13 23.97L301.47 23.72L301.79 23.72L301.88 23.82L301.78 23.74C301.78 23.74 301.89 23.62 301.92 23.63C302.183 23.7121 302.455 23.7592 302.73 23.77C302.73 23.77 302.81 23.84 302.85 23.88L303.36 23.71L303.27 23.37L303.68 23.37L303.52 23.98L303.73 23.98L303.94 23.42L303.38 23.12L303.38 22.89L304.1 22.89L303.83 23L304.25 23.42L304.25 23.28L304.59 23.37L304.96 23.46C304.96 23.46 305.06 23.34 305.14 23.25L305.35 23.39L305.61 23.18L305.51 23.08L305.66 22.6C305.85 22.69 305.85 22.69 305.88 22.95C305.88 22.95 305.97 23 305.99 22.95C306.033 22.9023 306.088 22.8676 306.15 22.85C306.21 22.8405 306.27 22.8405 306.33 22.85C306.393 22.861 306.453 22.8812 306.51 22.91C306.563 22.9427 306.607 22.9872 306.64 23.04L306.88 22.74L306.73 22.47L307.48 22.14L307.48 22.71L307.84 22.61C307.92 22.61 308.01 22.52 308.13 22.47L308.73 22.86L309.04 22.86L309.45 23.27L309.76 23.08L310.16 23.49L310.47 23.49C310.462 23.5631 310.462 23.6369 310.47 23.71C310.89 23.42 311.47 23.47 311.8 23.14L311.57 22.89C311.49 22.6 311.74 22.49 311.88 22.33L312.53 22.33C312.542 22.2088 312.562 22.0885 312.59 21.97L312.81 21.97L312.69 22.23C312.94 22.52 312.94 22.52 313.25 22.36L313.44 22.61L313.44 22.88L313.7 22.83L313.57 22.61L313.74 22.61L314.16 23.61L314.06 23.71L314.3 23.8L314.2 24C314.55 24 314.76 24.13 314.71 24.51L315.15 24.51L315.26 24.75L315.32 24.75L315.23 24.18C315.23 24.09 315.7 24.25 315.58 23.87C315.84 23.92 315.96 24.03 315.95 24.25C315.94 24.47 315.61 24.52 315.69 24.78L315.59 24.86L315.68 24.76C315.8 24.7861 315.925 24.7805 316.043 24.7436C316.16 24.7068 316.266 24.6401 316.35 24.55L316.55 24.98L316.88 24.53C317.08 24.43 317.36 24.22 317.7 24.59L317.39 24.76C317.46 24.84 317.48 24.89 317.51 24.89C317.818 24.8921 318.123 24.9497 318.41 25.06L318.24 25.42L318.8 25.27L318.89 25.37L318.78 25.28C318.73 24.99 319.04 24.93 319.13 24.72L319.03 24.59L319.34 24.34L319.99 24.47L319.53 24.58L319.67 24.75L319.41 24.75L319.04 25.07L319.21 25.24L319.6 25.24C319.82 25.57 319.31 25.43 319.43 25.72L319.74 25.77C319.85 25.28 320.3 25.17 320.64 24.84L320.64 25.17L321.26 25.44L320.78 25.53L320.78 25.74C321.059 25.6288 321.362 25.591 321.66 25.63L321.75 25.73L321.65 25.64L321.23 25.29L321.47 24.78L321.56 25.27L321.83 24.86L322.07 25.36L322.45 24.87L322.54 24.95L322.99 24.5L323.77 24.5C323.766 24.5259 323.756 24.5503 323.74 24.5712C323.724 24.5921 323.704 24.6089 323.68 24.62C323.495 24.6168 323.311 24.6336 323.13 24.67C323.411 24.7417 323.701 24.7686 323.99 24.75L324.08 24.85L323.98 24.76C323.98 24.56 324.17 24.67 324.3 24.63L324.49 24.89L325.05 24.89L325.31 24.65C325.45 24.84 325.64 24.75 325.83 24.76C325.811 24.6913 325.811 24.6187 325.83 24.55C326.12 24.41 326.32 24.66 326.55 24.77L326.99 24.61L327.17 24.97L327.06 25.1L327.38 25.3C327.47 25.14 327.13 24.99 327.46 24.89L327.69 25.16C327.83 25.4 328.25 25.16 328.25 25.62L328.52 25.4C328.9 25.4 329.08 25.77 329.24 26.03L329.5 26.03L329.73 25.66L330.14 26.13C330.44 26.05 330.27 25.73 330.35 25.52C330.64 25.69 330.7 26.09 331.05 26.15L331.1 25.79L331.44 25.99L331.18 26.1L331.57 26.36L331.44 26.49L331.76 26.49L331.64 26.66L331.93 26.5C331.98 26.58 332.06 26.67 332.15 26.82L332.22 26.53L332.56 26.53C332.677 26.6995 332.762 26.8894 332.81 27.09C332.81 27.42 333.03 27.45 333.28 27.45C333.299 27.5525 333.299 27.6576 333.28 27.76C333.27 27.8682 333.24 27.9734 333.19 28.07C333.54 28.07 333.47 27.72 333.7 27.59L334.5 27.59L334.37 27.76C334.44 27.88 334.72 27.85 334.98 27.71C335.06 27.71 335.15 27.81 335.23 27.86C335.04 28.24 334.77 28.05 334.51 27.86L334.51 27.98C334.51 28.03 334.67 28.16 334.75 28.16C335.02 28.16 335.14 28.3 335.16 28.58L335.42 28.32L335.77 28.49L335.39 28.67L336.08 28.67L336.08 29.26L336.37 29.02L336.21 28.77L336.57 28.49C336.68 28.49 336.91 28.35 337.07 28.59L336.97 28.68L337.05 28.58L337.57 28.73L337.5 28.98L337.86 29.16C337.839 29.0984 337.839 29.0317 337.86 28.97L338.86 28.76L338.77 28.35L339.57 27.81L339.65 27.9C339.65 27.9 339.7 27.82 339.72 27.79L339.82 27.57L340.22 28.05L340.41 27.91L340.75 28.27L341.23 28.27L341.07 28.05L341.23 27.8L341.82 27.8C341.801 27.9125 341.801 28.0275 341.82 28.14L342.14 28C342.145 28.1253 342.165 28.2495 342.2 28.37C342.741 28.0635 343.299 27.7864 343.87 27.54C344.08 27.46 344.18 27.17 344.43 27.27L344.52 27.37L344.42 27.28L344.42 26.98C344.61 27.12 344.78 26.89 344.97 26.98C344.989 27.0448 345.013 27.1082 345.04 27.17L345.55 27.34L345.78 27.18L346.07 27.54L346.5 27.42L346.5 27.18C346.77 27 346.89 26.66 347.12 26.51L348.3 26.23L348.66 26.41L348.24 26.49L348.24 26.56L348.71 26.56L349.3 25.98L349.97 26.39L349.88 25.92L350.43 26.08L350.5 25.98C350.451 25.9694 350.404 25.9526 350.36 25.93C350.29 25.87 350.22 25.82 350.16 25.76L350.16 24.9L350.44 25.13L350.77 24.79C351.05 24.84 350.98 25.12 351.06 25.28L351.27 25.17L351.46 24.76L351.81 24.93L352.12 24.5L352.55 24.66L353.11 23.86L353.39 24.02C353.456 24.1835 353.512 24.3504 353.56 24.52L353.88 24.52C353.891 24.3689 353.911 24.2187 353.94 24.07L354.08 24.38L354.24 24.29C354.38 24.54 354.07 24.57 354.04 24.79L354.5 24.68C354.48 24.7384 354.48 24.8017 354.5 24.86C354.584 25.0125 354.677 25.1595 354.78 25.3L355.12 25.3L355.12 25.06L355.32 24.94L355.43 25.04L355.5 24.98L355.68 25.28C355.68 25.34 355.62 25.4 355.58 25.45L355.65 25.51L355.94 25.32C355.88 25.15 355.61 25.1 355.74 24.84L355.9 24.98L356.15 24.6L356.4 24.86L356.49 24.34C356.81 24.34 356.85 24.55 356.83 24.77L357.18 25L357.02 25.29L357.27 25.37L357.18 25.75C357.53 25.75 357.59 25.5 357.55 25.25L358.08 25.12C358.08 25.12 358.14 24.9 358.25 24.86C358.325 24.842 358.394 24.804 358.45 24.75C358.509 24.6886 358.55 24.6127 358.57 24.53L358.31 24.41C358.55 24.2 358.87 24.49 359.1 24.23C359.35 24.43 359.66 24.3 359.97 24.35L359.81 24.13L360.04 24L360.23 24.13L360.56 23.62L360.26 23.51L360.6 23.29C360.68 23.29 360.83 23.43 361.04 23.35C361.25 23.27 361.43 23.48 361.6 23.57L362.22 23.93L362.04 23.45L362.53 23.06L363.2 23.14L363.2 22.94L363.32 22.94L363.5 22.98L363.4 22.89L363.27 22.77L363.34 22.64C363.7 22.64 363.67 23.08 364.05 23.2L363.87 22.87C363.951 22.7934 364.024 22.7098 364.09 22.62C364.3 22.69 364.43 22.79 364.4 23.02C364.4 23.02 364.52 22.96 364.52 22.92L364.52 22.36L365.02 22.59L365.02 22.79L365.22 22.53L365.36 22.53C365.371 22.6718 365.395 22.8123 365.43 22.95L365.76 22.79L365.85 22.89L365.75 22.8C365.75 22.69 365.75 22.54 365.75 22.49C365.43 22.17 365.75 21.88 365.75 21.58C365.75 21.52 365.91 21.41 365.98 21.41C366.36 21.41 366.33 21.15 366.39 20.92C366.48 20.92 366.56 21.02 366.64 21.02C366.72 21.02 367.02 20.86 367.14 20.91C367.282 20.9829 367.44 21.0207 367.6 21.02L367.79 21.02C367.898 21.1461 368.047 21.2309 368.21 21.26C368.377 21.2875 368.548 21.2519 368.69 21.16C368.96 21.4 369.29 21.22 369.58 21.27C369.63 21.27 369.68 21.27 369.73 21.15L368.99 21.15L368.99 20.58C369.28 20.85 369.55 20.58 369.81 20.58C370.079 20.5496 370.328 20.4215 370.51 20.22L370.98 20.36L370.88 20.48L371.34 21.05L371.6 20.92L371.73 21.13L371.51 21.21C371.78 21.35 371.95 21.7 372.38 21.61L372.25 21.44C372.278 21.2302 372.386 21.0395 372.552 20.9087C372.719 20.7779 372.93 20.7173 373.14 20.74C373.241 20.7504 373.342 20.7295 373.43 20.68C373.524 20.6294 373.598 20.5483 373.64 20.45C373.72 20.28 373.96 20.19 374.14 20.05L373.84 19.93L374.07 19.73C374.28 19.78 374.4 19.89 374.38 20.11L374.8 20.11C374.96 19.99 374.9 19.71 375.11 19.62L375.21 19.72L375.11 19.64C375.11 19.4 375.35 19.57 375.44 19.49L375.34 19.08L375.54 18.88L375.73 19.13L375.73 18.9L376.23 18.85L376.23 18.63C376.372 18.6492 376.516 18.6211 376.64 18.55C376.768 18.4775 376.864 18.3598 376.91 18.22L377.47 18.31L377.47 18.16L377.69 18.08C377.69 17.98 377.69 17.86 377.74 17.7L378.05 17.84C378.05 17.7 378.05 17.55 378.05 17.4L378.4 17.22L378.4 17.48L378.65 17.48L379.03 17.76L379.25 17.51C379.33 17.565 379.423 17.5962 379.52 17.6C379.612 17.6251 379.708 17.6251 379.8 17.6L379.61 17.41L379.25 17.55L379.25 17.11L378.89 16.9L379.51 16.67C379.78 16.8 379.78 16.8 380.44 16.75L380.12 16.61C380.348 16.3881 380.484 16.088 380.5 15.77C380.76 15.77 380.5 15.47 380.7 15.4L380.83 15.67L381.14 15.51L381.57 15.99L381.78 15.65C382.066 15.5857 382.366 15.6209 382.63 15.75C382.61 15.6665 382.58 15.5858 382.54 15.51C382.404 15.3365 382.278 15.1563 382.16 14.97C382.11 14.88 382.16 14.75 382.16 14.62C382.57 14.62 382.5 15.18 382.88 15.25C382.832 14.951 382.896 14.6447 383.06 14.39C383.18 14.56 383.35 14.5 383.51 14.5C383.7 14.71 383.72 15.06 384.15 15.18L383.98 14.86L384.38 14.55L384.38 14.12L384.55 14.28L384.39 14.45C384.45 14.45 384.54 14.52 384.55 14.45L385.34 13.45L385.52 13.45L385.66 13.67L385.53 13.88L385.71 13.88L385.91 13.34L386.4 13.74L386.32 13.4L386.42 13.16L387.42 12.96L387.42 12.67C387.71 12.67 387.7 12.35 387.88 12.23L388.5 12.23L388.79 11.78C389.19 11.66 389.61 11.86 390 11.63L390.46 12.12C390.521 12.0444 390.605 11.9915 390.7 11.97C390.787 11.937 390.883 11.937 390.97 11.97C391.33 12.1575 391.737 12.234 392.14 12.19L392.14 12.57L392.43 12.57C392.74 12.84 392.57 13.25 392.67 13.63L393.73 12.84L393.49 12.71L393.77 12.18L394.07 12.35L394.15 12.09L394.77 11.97L394.93 12.41L395.26 11.94L395.26 11.5L395.46 11.85C395.68 11.68 395.81 11.59 395.95 11.85L396.37 11.28L396.77 11.63L397.33 11.54L397.66 11.22L398.06 12.01L398.29 11.56C398.345 11.4311 398.427 11.3153 398.53 11.22C398.638 11.1279 398.764 11.0597 398.9 11.02L398.75 11.29L399.08 11.29L399.15 11.07L399.5 11.07L399.76 10.51L400.15 10.71L400.24 10.46C400.29 10.41 400.51 10.57 400.62 10.76L401.36 10.93L401.23 10.58L401.61 10.51L401.47 10.16L401.84 10.16L401.84 10.51L402.09 10.16L402.5 9.82002L402.58 10.02L403.76 9.32002L403.86 9.59002L404.04 9.32002L404.48 9.45002C404.78 8.83002 405.31 9.12002 405.73 9.04002L405.98 9.46002L406.4 8.89002L406.54 8.89002L406.41 9.46002C406.64 9.22002 406.91 9.09002 407.08 8.89002L407.42 8.98002L407.56 9.15002L407.85 8.70002L408.03 8.92002L407.93 9.04002L408.35 9.26002L409.17 8.90002C409.25 8.95002 409.33 9.17002 409.49 9.12002L410.05 8.56002L410.52 8.69002L410.68 8.51002L411.61 8.33002L411.39 8.58002L411.88 8.58002L412.04 8.81002C412.273 8.78766 412.507 8.84782 412.7 8.98002L412.75 9.08002L412.83 8.98002L413.33 8.66002L413.02 9.49002C413.25 9.49002 413.28 9.27002 413.48 9.24002L413.67 9.35002C413.686 9.26696 413.713 9.18631 413.75 9.11002L414.17 9.11002L414.22 8.90002C414.47 8.90002 414.78 9.11002 414.98 8.90002L415.85 9.20002L415.96 9.30002L415.67 9.53002L415.49 9.16002C415.484 9.31435 415.468 9.46808 415.44 9.62002L416.07 9.62002L416.21 9.73002L416.3 9.85002L416.2 9.94002L416.29 9.84002C416.62 9.84002 416.71 9.60002 416.81 9.37002L417.22 9.48002L417.47 9.88002C417.47 9.78002 417.54 9.73002 417.53 9.68002L417.3 8.98002C417.39 8.97518 417.48 8.97518 417.57 8.98002L417.95 9.07002C418.39 8.71002 418.7 8.63002 418.95 8.77002L419.4 8.62002L419.59 8.18002C419.71 8.18002 419.88 8.05002 419.93 8.28002L419.83 8.37002L419.91 8.27002L420.25 8.36002L420.5 8.32002L420.76 8.89002L420.89 8.78002L421.3 9.24002L421.18 9.37002L421.52 9.37002L421.73 9.72002L421.89 9.30002C421.923 9.3993 421.963 9.49619 422.01 9.59002L422.5 9.59002L422.65 9.92002L422.4 10.02L422.54 10.29L423.43 10.51L423.11 10.87C423.288 10.8035 423.472 10.7566 423.66 10.73C423.831 10.7499 423.999 10.7902 424.16 10.85L424.49 11.32C424.74 11.32 424.8 10.97 425.05 11.05L425.14 11.16L425.14 11.11L425.04 11.03L425.41 10.75L425.57 10.9L426 10.66L427.2 10.66L427.33 10.92L428.09 10.67L427.95 11.19C428.041 11.169 428.128 11.1353 428.21 11.09C428.21 10.89 428.35 10.94 428.45 10.9C428.53 10.68 428.15 10.5 428.45 10.26C428.67 10.45 428.76 10.74 428.95 10.95C429.14 11.16 428.95 11.47 429.23 11.58C429.282 11.496 429.31 11.399 429.31 11.3C429.31 11.201 429.282 11.1041 429.23 11.02L429.5 10.48L429.35 10.06L429.43 10L429.43 10.32L429.57 10.2L429.57 11.05L429.77 10.73L430.32 10.79L430.32 10.18L430.67 10.32L430.67 10.15L430.34 10L430.66 9.76002C430.66 9.76002 430.66 9.65002 430.55 9.55002C430.75 9.63002 430.85 9.65002 430.96 9.69002L431.12 9.53002L430.88 9.42002L431.32 9.11002L432.43 9.39002C432.421 9.42269 432.421 9.45736 432.43 9.49002L432.5 9.62002C432.6 9.56002 432.7 9.52002 432.8 9.46002C433.307 9.78467 433.876 10.0024 434.47 10.1C434.551 10.1115 434.629 10.1387 434.7 10.18L435.07 9.69002C435.23 9.91002 435.51 9.96002 435.62 10.22C435.84 10.13 436.07 9.96002 436.27 9.98002C436.47 10 436.63 9.60002 436.92 9.71002C437.05 9.88002 437.17 9.88002 437.29 9.71002L437.49 9.82002C437.549 9.66627 437.599 9.50936 437.64 9.35002L437.08 9.29002L437.75 9.06002C437.761 9.17475 437.781 9.28843 437.81 9.40002L438.2 9.60002L438.49 9.33002L439.1 9.96002L439.1 9.90002L439.66 10.22L439.75 10.32L439.65 10.23C439.731 10.1757 439.808 10.1155 439.88 10.05C439.88 10.05 439.88 9.91002 439.94 9.88002C440 9.85002 439.89 9.73002 439.94 9.61002L440.46 9.76002C440.644 9.59097 440.758 9.35907 440.78 9.11002C441.156 9.06922 441.536 9.09975 441.9 9.20002C441.888 9.04843 441.865 8.89798 441.83 8.75002L442.06 8.65002L441.91 8.38002C441.91 8.38002 442.05 8.32002 442.07 8.38002C442.09 8.44002 442.34 8.71002 442.47 8.87002L442.69 8.87002C442.81 8.76002 442.61 8.77002 442.69 8.62002C442.69 8.62002 442.69 8.62002 442.69 8.56002C442.69 8.50002 442.63 8.50002 442.59 8.45002L443.15 7.98002L443.23 7.98002L443.13 8.32002L443.5 8.32002C443.491 8.24361 443.491 8.16643 443.5 8.09002C443.612 8.08371 443.723 8.06356 443.83 8.03002C443.874 8.01014 443.922 7.99986 443.97 7.99986C444.018 7.99986 444.066 8.01014 444.11 8.03002L443.65 8.41002C443.81 8.41002 443.96 8.67002 444.2 8.55002L444.09 8.37002C444.26 8.12002 444.26 8.12002 444.56 8.08002C444.568 8.21486 444.588 8.34872 444.62 8.48002C444.659 8.48133 444.697 8.47493 444.733 8.46119C444.769 8.44745 444.802 8.42666 444.83 8.40002L444.99 7.80002L445.39 7.98002L445.58 7.47002L446.14 7.47002L446.46 7.77002L446.13 7.93002L446.76 7.93002C447 8.34002 447.44 8.28002 447.76 8.44002C447.742 8.38134 447.742 8.3187 447.76 8.26002L447.53 8.18002L447.85 8.10002L448.12 7.84002L448.93 8.02002L448.45 8.33002L449.23 8.33002L449.5 8.76002C449.95 8.42002 450.57 8.51002 450.98 8.03002C450.98 8.08002 451.03 8.12002 451.05 8.18002L450.7 8.40002L451.17 8.78002L451.17 8.98002L451.86 9.59002L452.13 9.59002L452.13 9.50002L451.86 9.38002L452.05 9.30002L452.16 8.81002C452.5 8.81002 452.78 9.10002 453.16 9.05002L453.01 8.85002L453.26 8.65002L453.97 9.21002L454.03 9.16002L453.72 8.48002L454.12 8.53002L454.31 8.43002L454.45 8.71002L454.58 8.58002L454.79 9.19002L455.5 9.19002L455.15 9.07002L455.02 8.44002C455.135 8.41615 455.246 8.37573 455.35 8.32002C455.47 8.44002 455.35 8.69002 455.65 8.70002L455.57 8.14002L455.92 7.98002L456.03 8.20002L456.42 8.20002L456.92 8.52002L457.25 8.34002L457.09 8.74002L457.31 8.80002L457.42 8.52002L457.74 8.81002L457.94 8.65002L458.15 9.12002L459 9.31002L459.5 8.98002L459.28 8.90002L459.28 8.57002C459.35 8.57002 459.4 8.52002 459.42 8.57002C459.67 8.72002 459.86 8.96002 460.2 8.95002C460.29 8.95002 460.38 9.11002 460.45 9.18002C460.52 9.25002 460.63 9.09002 460.83 8.99002L460.64 9.45002L460.31 9.27002C460.32 9.41319 460.32 9.55686 460.31 9.70002L460.71 9.52002L460.6 9.93002L460.9 10.17L460.96 9.50002L461.72 9.30002L461.55 8.89002L462.15 8.68002L462.8 9.04002L463.08 9.56002L463.5 9.56002L463.5 9.45002C463.36 9.32002 463.21 9.20002 463.07 9.08002C463.33 8.92002 463.54 9.16002 463.78 9.20002L463.78 9.66002L464.1 9.66002L464.31 9.44002L464.6 9.58002L464.78 10.58L465.26 10.58L465.26 10.88L465.88 11.4C466.19 11.51 466.31 10.94 466.64 11.2L466.5 11.98C466.67 12.14 466.8 12.38 466.97 12.41C467.14 12.44 467.13 12.8 467.53 12.8L467.83 12.69L468.03 12.83L468.31 12.68L468.76 13.25L468.83 12.8L469.48 13.01L469.19 13.4L469.37 13.58L469.46 13.37C469.65 13.27 469.86 13.09 470.19 13.25L470.06 13.57L470.43 13.57L470.43 13.26C470.691 13.2459 470.953 13.2833 471.2 13.37L471.04 13.72L471.16 13.9L471.05 14.02C471.37 14.16 471.49 14.63 471.93 14.59L472.01 14.7L471.91 14.6L471.82 14.46L471.97 14.29L471.69 13.94L472.25 13.72L472.44 13.97L472.33 14.1L472.6 14.21L472.35 14.32L472.75 14.89L473.05 14.89C473.33 14.72 473.41 14.27 473.9 14.25L473.77 14.6L473.93 14.76C474.17 14.85 474.22 14.37 474.49 14.56L474.36 14.71C474.463 14.7595 474.577 14.7802 474.69 14.77C474.803 14.7512 474.907 14.699 474.99 14.62C475.15 14.85 475.55 14.62 475.62 15C475.82 15 476 15.09 476.14 14.92L476.7 15.12L476.84 14.99C476.904 15.1949 477.002 15.3876 477.13 15.56C477.33 15.74 477.13 15.97 477.3 16.13L477.43 16.01L477.73 16.46L477.49 16.71L478.05 16.83C478.191 17.5766 478.537 18.2692 479.05 18.83C479.145 18.6322 479.308 18.4758 479.51 18.39C479.563 18.4178 479.61 18.4551 479.65 18.5L479.55 18.58L479.63 18.48L480.15 18.33L480.49 18.63L480.73 18.49L480.87 18.77L480.8 18.93C480.9 19.06 480.88 19.31 481.13 19.37L481.38 19.17L481.19 18.97L481.61 19.08L481.82 18.75C482.12 18.9 482.37 19.16 482.75 19.11L483.01 19.5L483.01 19.37L483.95 19.18L484.19 19.54L484.31 19.27L484.93 19.57L485.07 19.26L485.14 19.52C485.22 19.5097 485.3 19.5097 485.38 19.52C485.464 19.5581 485.541 19.6087 485.61 19.67L485.99 19.4L486.32 19.63L486.44 19.51C486.466 19.584 486.507 19.652 486.56 19.71C486.61 19.7705 486.671 19.8213 486.74 19.86C486.85 19.93 486.87 20.13 486.93 20.27L487.08 20.13L487.54 20.35C487.463 20.2039 487.361 20.072 487.24 19.96L487.43 19.78L487.77 19.78C487.858 19.8445 487.941 19.9147 488.02 19.99L487.86 20.28L488.12 20.66C487.88 20.8 488.01 20.99 488.03 21.23L488.37 20.78L489.05 20.51L489.14 20.63L489.49 20.54L489.37 20.73L489.66 20.97L489.8 20.64L490.17 20.79C490.17 20.79 490.17 20.7 490.24 20.66L490.85 20.42L490.85 20.73L490.54 20.88L490.92 20.88C491.09 21.06 491.27 21.27 491.48 21.47L491.4 21.56L491.73 21.84C491.73 21.75 491.73 21.63 491.8 21.49L491.96 21.63L492.31 20.89L492.59 20.77C492.86 20.86 492.73 21.13 492.78 21.33C492.893 21.3448 493.003 21.3717 493.11 21.41C493.2 21.46 493.24 21.57 493.38 21.74L493.38 20.98C493.688 20.9291 494.004 20.9466 494.305 21.0313C494.605 21.116 494.884 21.2657 495.12 21.47L496 21.3L495.34 21.23L495.76 21.01L496.22 21.22C496.146 21.1288 496.079 21.0318 496.02 20.93L496.51 20.85L496.51 20.25L497 20.25L497 20.17L496.64 20.08L496.89 19.74L497.15 19.9L496.92 19.14C496.92 19.14 497 19.05 497.1 18.96C497.109 19.1482 497.133 19.3354 497.17 19.52L497.49 19.35C497.55 19.65 497.44 20.06 497.88 20.17L497.88 20.52C497.99 20.52 498.09 20.47 498.11 20.43C498.151 20.2965 498.178 20.1591 498.19 20.02L497.9 19.85C498.02 19.79 498.14 19.72 498.26 19.65C498.38 19.58 498.4 19.51 498.54 19.38L498.69 19.74L498.62 19.86L498.85 19.86L498.72 20.2L499.1 20.26C499.1 20.37 499.1 20.49 499.1 20.67L499.39 20.24L499.52 19.99L499.1 20.13C499.07 19.9849 499.07 19.8352 499.1 19.69L498.88 19.6L498.88 19.39L499.5 19.39L499.35 19.21C499.41 19.02 499.7 19.27 499.71 19.01L499.84 18.88C500.03 18.88 499.95 18.72 499.94 18.66C500.121 18.6072 500.305 18.5639 500.49 18.53L500.77 18.91L501.25 18.67L500.95 18.42L501.5 17.98L501.62 18.32C501.659 18.4604 501.682 18.6046 501.69 18.75C501.65 18.885 501.596 19.0156 501.53 19.14L501.76 19.19L502 18.34L502.44 18.77L502.1 18.83L502.1 19.12C502.47 19.12 502.65 18.76 502.94 18.63L502.52 18.34C502.828 18.3001 503.139 18.2801 503.45 18.28L503.45 18.55L503.83 18.55C503.85 18.4679 503.85 18.3821 503.83 18.3L504.06 18.3L504.27 17.82L505.01 18.73C505.23 18.66 505.01 18.59 505.01 18.54C505.01 18.49 505.12 18.4 505.12 18.34C505.12 18.28 505.05 18.15 505.04 18.05C505.03 17.95 505.04 17.94 505.11 17.88C504.949 17.8203 504.771 17.8203 504.61 17.88L504.61 17.79C504.61 17.63 504.61 17.53 504.69 17.52C504.79 17.4721 504.874 17.3955 504.93 17.3C504.992 17.2055 505.02 17.0927 505.01 16.98L505.41 16.98L505.29 17.16L505.29 17.31L505.63 17.31C505.63 17.23 505.63 17.12 505.63 16.95L506.63 17.36L506.72 17.47L506.62 17.38L506.62 16.98L506.24 16.91L506.36 16.69L506.92 16.69L506.97 17.05L507.22 17.05L507.04 16.84L507.52 16.84L507.61 17.08L508.09 17.08L508.09 16.77L508.64 16.58C508.655 16.7049 508.678 16.8285 508.71 16.95C508.805 16.975 508.905 16.975 509 16.95C509.098 16.9309 509.19 16.8899 509.27 16.83C509.45 17.05 509.62 16.92 509.82 16.83L510.15 17.13L510.63 16.98L511.13 16.83L511.24 17.13L511.5 16.98L511.85 17.29L512.17 17.1C512.196 17.0928 512.224 17.0928 512.25 17.1L512.19 17.18L512.51 17.56L512.4 17.21L512.66 17.21C512.83 17.21 512.99 17.32 513.18 17.21C513.37 17.1 513.44 17.36 513.64 17.21C513.84 17.06 513.93 17.37 514.12 17.45C514.19 16.99 513.72 16.78 513.69 16.37L514.05 16.03L514.28 16.27C514.4 16.39 514.37 16.62 514.64 16.69L514.88 16.56L515.13 16.19L515.62 16.19L515.62 16.44L515.38 16.64C515.598 16.5983 515.823 16.6413 516.01 16.76L516.1 16.86L516 16.77L516 16.48L516.25 16.36L516.1 16.2L516.62 16.2L516.62 16.39L516.06 16.62C516.109 16.6502 516.163 16.669 516.22 16.675C516.277 16.6811 516.334 16.6743 516.388 16.655C516.442 16.6358 516.491 16.6047 516.531 16.564C516.571 16.5233 516.602 16.4741 516.62 16.42L517.21 16.55C517.221 16.4214 517.245 16.2942 517.28 16.17L517.5 16.17L517.33 16.36L517.57 16.48L517.57 16.14L517.24 15.98L517.64 15.98L517.87 15.6L518.5 15.6C518.497 15.6212 518.5 15.643 518.509 15.6625C518.517 15.6821 518.532 15.6986 518.55 15.71L518.63 15.6L518.83 15.6C518.847 15.5062 518.877 15.4153 518.92 15.33L519.32 15.74C519.64 15.74 519.69 15.24 520.11 15.38L520.4 15.69L521.01 15.69C521.01 15.93 521.22 15.79 521.34 15.8C521.506 15.8029 521.668 15.859 521.8 15.96C521.933 16.0631 522.028 16.2073 522.07 16.37L522.15 15.92L522.49 16.21L522.49 15.58L522.73 15.77L522.62 15.9C522.62 15.9 522.68 15.82 522.71 15.79L522.88 15.58C523.043 15.7195 523.144 15.9178 523.161 16.1314C523.177 16.3451 523.109 16.5568 522.97 16.72C523.3 16.96 523.53 16.57 523.87 16.56L523.26 16.03L523.77 15.73L523.89 15.98C524.18 16.07 524.39 15.98 524.52 16.15L524.76 15.78L525.05 15.98C525.22 15.78 525.35 15.48 525.54 15.41C525.73 15.34 525.67 14.91 526.1 15.13C526.1 15.13 526.41 15.05 526.37 15.32L527.73 15.66L527.73 14.81C528.17 15.13 528.73 15.03 529.07 15.52C529.073 15.3187 529.093 15.1179 529.13 14.92C529.13 14.92 529.23 14.87 529.24 14.92C529.45 15.09 529.7 15.02 529.94 15.04C530.18 15.06 530.41 15.04 530.71 15.13L530.84 15.04C530.82 15.1592 530.82 15.2808 530.84 15.4L531.1 15.4L530.95 15.2L531.34 14.91L531.89 14.91L532.13 15.19L531.83 15.32L531.83 15.4L532.67 15.31L533.47 15.76L533.59 15.52L534.2 15.9C534.28 16.02 534.42 16.23 534.57 16.43L534.72 16.43L534.51 15.99L534.64 15.79L534.24 15.52C534.37 15.22 534.61 15.32 534.8 15.3L535.06 15.57L535.15 15.29L535.31 15.44L535.48 15.62L535.11 15.86L535.11 15.94L535.6 15.77L535.5 15.34C535.537 15.2357 535.584 15.1352 535.64 15.04L535.9 15.41C535.997 15.418 536.091 15.4416 536.18 15.48C536.26 15.48 536.31 15.63 536.39 15.74L536.51 15.42C536.58 15.5 536.65 15.56 536.71 15.64C536.77 15.72 536.71 15.72 536.71 15.8L536.23 15.8L536.23 15.91C536.32 15.8744 536.42 15.8744 536.51 15.91C536.554 15.9346 536.592 15.9676 536.623 16.007C536.654 16.0465 536.677 16.0917 536.69 16.14L536.57 16.32L536.79 16.5L536.67 16.5L536.73 16.76L536.79 16.71L536.79 16.49C536.88 16.49 537.02 16.55 537.03 16.36C537.22 16.36 537.43 16.36 537.52 16.14L537.5 15.98C537.533 15.85 537.576 15.7229 537.63 15.6C537.69 15.49 537.81 15.43 537.87 15.33C537.967 15.1722 538.019 14.9904 538.019 14.805C538.019 14.6196 537.967 14.4378 537.87 14.28L538.31 14.05L538.61 14.51L538.49 14.79L538.61 14.79L538.99 14.5L538.74 14.23L539.5 14.08C539.65 14.38 539.41 14.33 539.31 14.41L539.98 14.85L540.11 14.75L540.26 14.88C540.26 14.72 540.41 14.58 540.18 14.54C540.29 14.29 540.4 14.12 540.67 14.1C540.78 14.1 540.89 13.95 541.02 13.86L541.24 14.5L541.5 14.4L541.71 14.51L541.97 14.28L541.82 14.02L542.04 13.91L542.29 14.03L542.29 14.22L542.61 14.07L542.46 13.67L542.91 13.88L542.75 14.06L542.96 14.51L543.18 14.17L543.34 14.53L543.74 14.24C543.846 14.22 543.954 14.22 544.06 14.24C544.169 14.2579 544.272 14.3026 544.36 14.37L544.51 14.25L544.71 14.48L545.04 14.48L544.5 14.98L544.94 15.29C544.966 15.2517 544.98 15.2064 544.98 15.16C544.98 15.1136 544.966 15.0683 544.94 15.03L545 15.03C545.22 15.11 545.33 15.15 545.47 15.19L545.9 14.96L545.96 15.03C546.08 15.03 546.2 14.97 546.22 14.65C546.301 14.8785 546.394 15.1022 546.5 15.32C546.81 15.32 546.82 15.08 546.84 14.81C547.17 14.87 547.48 14.95 547.84 14.99C548.135 14.9941 548.427 14.9255 548.69 14.79L548.69 14.98L548.44 15.11C548.68 15.31 548.82 14.99 549 15.04C549.168 15.0997 549.331 15.1698 549.49 15.25C549.8 14.97 549.8 14.97 549.94 14.34L549.27 13.83C549.516 13.8005 549.764 13.8495 549.98 13.97C550.194 14.0922 550.365 14.2773 550.47 14.5L551.06 14.6L551.25 14.17L551.51 14.07L550.95 14L550.75 14.21C550.59 14.06 550.43 13.91 550.26 13.78C550.044 13.6593 549.82 13.5524 549.59 13.46L549.93 13.36C549.93 13.36 549.93 13.27 549.83 13.19L550.02 12.98C550.07 12.8983 550.11 12.8111 550.14 12.72C550.49 12.95 550.14 13.17 550.14 13.38L551 13.24L551 13.66L551.28 13.66L551.71 14.23L552.01 14.01L551.81 13.79L551.94 13.5L552.38 13.93L552.52 14.18L552.21 14.37L553.01 14.59L552.85 14.81C552.95 14.96 553 15.13 553.18 15.06L553.18 14.45C553.02 14.45 552.84 14.32 552.88 14.05L553.22 14.05C553.235 13.9219 553.258 13.7949 553.29 13.67L553.35 13.67L553.35 14.14L553.01 14.26L553.57 14.32C553.617 14.417 553.657 14.5173 553.69 14.62C553.699 14.445 553.722 14.2711 553.76 14.1L554.11 13.92L554.46 14.09C554.46 13.89 553.95 13.09 553.97 12.93L554.18 12.27C554.18 12.41 554.65 12.19 554.62 12.32L555.02 12.08C555.13 11.67 554.4 11.51 554.53 11.08L555.08 10.71L555.68 10.71L555.92 10.34L556.11 10.44L556.19 10.55L556.08 10.46L556.08 9.85003L556.34 10L556.62 9.76003L556.22 9.70003L556.22 9.50003L556.97 9.50003L557.19 10.11L557.5 10.11L557.59 10.21L557.49 10.12C557.49 9.86003 557.69 9.78003 557.81 9.60003L557.89 9.84003L557.97 9.84003C558.12 9.69233 558.301 9.57965 558.5 9.51003C558.443 9.59811 558.397 9.69198 558.36 9.79003C558.35 9.88644 558.35 9.98362 558.36 10.08L558.6 10.08C558.613 9.94432 558.64 9.81029 558.68 9.68003L559.16 9.44003L559.89 9.12003L559.89 9.35003L560.14 9.35003C560.42 9.53003 560.14 8.98003 560.38 9.24003L560.5 9.08003L560.95 8.98003L561.01 8.46003L561.24 8.78003L561.01 8.45003L562.09 9.07003L562.09 8.50003L562.21 8.18003L562.35 8.47003C562.314 8.5008 562.281 8.53423 562.25 8.57003L562.66 8.57003L562.5 8.39003L563.01 8.31003L563.01 7.77003L562.68 7.90003L562.53 7.42003L562.64 7.37003L562.53 7.29003L562.39 7.03003L562.78 7.16003L562.78 7.72003L563.16 7.43003L563.5 7.30003L563.5 7.55003L563.57 7.55003L563.57 7.31003L563.5 7.31003L563.31 6.91003L563.79 7.04003C564.05 6.64003 564.19 7.38003 564.54 7.11003L564.44 6.61003C564.44 6.61003 564.5 6.52003 564.5 6.46003C564.5 6.40003 564.63 6.76003 564.76 6.65003C564.89 6.54003 564.85 6.52003 564.92 6.32003C565.2 6.24003 565.44 6.06003 565.37 5.95003L565.1 5.95003C565.03 6.07003 564.98 6.20003 564.92 6.32003L564.69 6.32003L564.69 6.03003C564.95 5.91003 565.01 5.59003 565.25 5.47003C565.49 5.35003 565.81 6.38003 566.06 6.27003L566.06 5.97003L566.23 5.71003C566.17 5.60003 565.9 4.66003 565.84 4.57003C565.996 4.34495 566.232 4.18767 566.5 4.13003C566.5 4.40003 566.8 4.07003 566.83 4.33003L566.89 4.33003L566.89 3.79003L567.05 3.56003L567.63 4.17003L568 4.35003L568.17 4.58003C568.17 4.51003 568.45 4.49003 568.41 4.47003C568.37 4.45003 568 4.08003 567.78 3.92003L567.97 3.76003C567.97 3.92003 568.1 3.93003 568.16 3.88003C568.183 3.86548 568.201 3.84392 568.212 3.81844C568.222 3.79295 568.224 3.76486 568.217 3.7382C568.211 3.71154 568.196 3.68767 568.175 3.67003C568.154 3.65239 568.127 3.64189 568.1 3.64003C568.1 3.45003 568.25 3.53003 568.35 3.51003C568.35 3.28003 568.45 3.19003 568.63 3.11003C568.72 3.41003 568.72 3.41003 568.35 3.51003C568.52 3.63003 568.56 3.58003 568.63 3.78003L568.53 3.87003L568.62 3.77003C568.62 3.77003 568.75 3.77003 568.8 3.87003C568.85 3.97003 568.8 3.69003 568.8 3.72003L568.95 3.72003L569.1 3.63003L568.87 3.31003L568.96 2.98003L569.18 2.73003L569.5 2.98003L569.84 2.63003L570.02 2.76003L570.37 2.76003L570.76 3.57003L570.89 3.31003L570.76 3.10003L570.97 3.05003C570.986 2.92535 571.009 2.80177 571.04 2.68003L571.25 2.68003L571.15 3.09003L571.56 3.09003L571.85 3.09003L572.5 2.61003L572.59 2.70003L572.77 2.59003L573.18 2.77003L573.18 3.22003C573.18 3.07003 573.25 3.22003 573.26 3.05003L573.77 2.73003L573.99 2.85003L573.99 2.79003L573.84 2.55003L573.65 2.31003L574.01 2.15003C574.068 2.20236 574.121 2.25921 574.17 2.32003L574.35 1.82003L575.04 2.60003C575.142 2.57489 575.235 2.52312 575.31 2.45003C575.403 2.38104 575.47 2.28226 575.5 2.17003L575.39 2.05003C575.39 1.80003 575.59 2.77003 575.73 2.71003L575.9 2.18003L575.56 1.98003L575.95 1.98003L576.07 2.29003C576.07 1.95003 576.26 2.62003 576.49 2.36003C576.467 2.43833 576.467 2.52173 576.49 2.60003L576.57 2.60003L576.57 2.35003L576.5 2.35003L576.5 2.25003C576.564 2.17147 576.635 2.09792 576.71 2.03003L576.88 2.35003C577.13 2.23003 577.13 2.23003 577.18 1.98003L576.98 2.09003L576.71 1.63003L576.93 1.55003C576.923 1.48687 576.923 1.42318 576.93 1.36003L577.3 1.36003L577.16 1.53003C577.183 1.5541 577.21 1.57434 577.24 1.59003C577.67 1.62305 578.101 1.55454 578.5 1.39003C578.76 1.31003 579.02 1.39003 578.95 1.54003C578.88 1.69003 579.07 1.82003 579 1.97003C579.023 2.04143 579.057 2.10889 579.1 2.17003L579 2.29003L579.11 2.44003C579.125 2.50249 579.125 2.56757 579.11 2.63003L579.36 2.37003L580 2.37003C580.064 2.53167 580.16 2.67877 580.282 2.8025C580.404 2.92622 580.549 3.02402 580.71 3.09003L581.5 3.09003L580.98 2.76003L581.35 2.76003L581.5 3.03003C581.77 3.03003 582 2.73003 582.25 3.03003L582.95 2.88003L583.14 2.68003L583.31 2.76003C583.31 2.76003 583.37 2.83003 583.4 2.87003L583.5 2.78003L583.39 2.70003C583.39 2.44003 583.69 2.70003 583.78 2.46003L583.5 2.09003L583.82 2.09003L584.1 2.65003L584.1 1.85003L584.81 2.13003L584.92 1.81003C585.02 1.95003 585.11 2.07003 585.18 2.19003L585.56 1.98003L585.74 2.21003L585.92 2.48003C586.353 2.44183 586.787 2.55107 587.15 2.79003C587.38 2.90003 587.64 2.93003 587.67 3.24003L588.23 3.05003C588.21 2.98826 588.21 2.9218 588.23 2.86003L588.33 2.86003C588.315 3.04972 588.315 3.24033 588.33 3.43003L588.5 3.59003L588.7 3.48003L588.84 3.28003L589.2 3.73003L589.53 3.49003C589.62 3.73003 589.53 4.06003 589.91 4.15003C589.91 4.15003 589.91 4.26003 589.91 4.32003C589.917 4.39288 589.945 4.46219 589.99 4.52003C590.036 4.57426 590.1 4.60984 590.17 4.62003C590.17 4.62003 590.24 4.49003 590.27 4.50003C590.5 4.56003 590.68 4.42003 590.88 4.34003C590.97 4.28311 591.074 4.25289 591.18 4.25289C591.286 4.25289 591.39 4.28311 591.48 4.34003L591.59 4.24003L591.88 4.38003L592.08 5.07003L592.26 5.07003L592.26 5.40003C592.49 5.32003 592.55 4.97003 592.86 5.04003L592.94 5.14003L592.84 5.05003L593.5 4.26003L593.64 4.45003L593.54 4.53003L593.62 4.43003C593.86 4.43003 593.7 4.20003 593.74 4.08003C593.78 3.96003 593.63 3.75003 593.84 3.64003C593.9 3.71003 593.93 3.79003 593.97 3.79003C594.147 3.81717 594.329 3.80349 594.5 3.75003C594.671 3.69164 594.823 3.58796 594.94 3.45003L595.32 3.45003L595.5 3.18003L595.7 3.98003C595.92 3.77003 595.92 3.77003 595.92 3.22003L596.27 2.87003L596.5 2.87003C596.6 2.59003 596.93 2.55003 597.1 2.27003C597.27 1.99003 597.54 1.97003 597.79 1.81003L597.79 1.32003C597.853 1.30994 597.917 1.30994 597.98 1.32003C598.11 1.35785 598.237 1.40462 598.36 1.46003L598.59 0.980029L599.15 1.14003L599.23 1.37003L599.36 1.10003L599.5 1.10003L599.35 1.37003L599.5 1.56003C599.514 1.56793 599.529 1.57209 599.545 1.57209C599.561 1.57209 599.576 1.56793 599.59 1.56003L599.96 0.980029L600.3 1.30003L600.62 1.30003L601.41 1.87003L601.5 1.64003L601.86 1.72003L601.68 1.35003L601.5 1.48003L601.03 1.26003L601.59 1.18003L601.5 0.980029L601.8 0.730029L602.05 1.17003C602.21 1.17003 602.41 1.26003 602.57 1.05003L602.79 1.27003L602.41 1.32003C602.402 1.39187 602.386 1.46244 602.36 1.53003L602.81 1.41003L603.25 1.98003L603.25 2.25003L603.5 2.25003L603.5 1.98003L603.28 1.98003L603.28 1.66003L603.72 1.96003C604.04 1.64003 604.37 2.21003 604.72 1.96003L604.89 2.30003L604.79 2.42003L605.17 2.61003C605.17 2.34003 604.82 2.04003 605.27 1.84003L605.27 2.58003L605.9 2.58003L605.44 1.98003L605.44 1.58003C605.527 1.49574 605.629 1.42797 605.74 1.38003C605.848 1.33893 605.964 1.32187 606.08 1.33003C606.14 1.33003 606.19 1.25003 606.25 1.21003C605.99 1.21003 606.25 0.970029 606.08 0.890029L606.57 0.780029L606.97 1.26003L607.25 1.11003L607.25 1.37003C607.34 1.37003 607.48 1.43003 607.45 1.24003C607.68 1.33003 607.88 1.39003 607.94 1.62003L608.12 1.62003L608.21 1.72003L608.11 1.63003L608 1.43003L608.55 1.25003L608.69 1.37003L608.9 1.18003L608.74 1.74003L609.19 1.79003L609.33 1.50003L609.79 1.73003L609.63 2.16003C609.688 2.14022 609.752 2.14022 609.81 2.16003C609.869 2.18236 609.919 2.22484 609.95 2.28003L610.26 2.79003L610.16 2.96003C610.541 3.43713 610.876 3.94945 611.16 4.49003L611.62 4.17003L612.25 4.29003C612.259 4.20677 612.241 4.12282 612.2 4.05003L612.8 4.05003L612.43 4.23003L612.5 4.35003L612.31 4.56003L612.81 4.42003L613.04 4.78003L613.34 4.48003L613.22 4.05003L613.6 4.05003C613.71 4.24003 613.81 4.41003 613.9 4.59003L613.76 4.76003L614.19 5.14003C614.34 5.28003 614.31 5.57003 614.61 5.61003L614.61 5.93003L614.83 5.93003C614.83 5.70003 614.94 5.48003 614.73 5.37003L614.9 4.64003C614.96 4.89003 615.03 5.10003 615.13 5.45003L615.37 4.45003L615.83 4.32003C615.819 4.4097 615.819 4.50036 615.83 4.59003L615.45 4.98003C615.37 5.30003 615.63 5.38003 615.79 5.62003L615.79 5.25003L616.24 5.25003L616.55 4.49003L616.23 4.61003C616.13 4.51003 616.17 4.38003 616.41 4.11003L616.67 4.18003L617.14 3.67003C617.14 3.15003 617.21 3.02003 617.56 2.77003C617.67 3.11003 617.56 3.26003 617.28 3.46003L617.28 4.32003C617.28 4.32003 617.5 4.34003 617.5 4.38003L617.24 4.59003C617.32 4.92003 617.67 4.94003 617.88 5.15003L617.88 5.24003L617.99 5.14003L618.21 5.27003C618.22 5.14531 618.24 5.02159 618.27 4.90003L618.66 4.90003C619.05 4.56003 619.22 3.98003 619.77 3.81003L619.77 3.53003L620.2 3.63003L620.42 3.37003L621 3.37003L621.17 3.55003C621.125 3.58841 621.085 3.63205 621.05 3.68003L621.43 3.88003L621.85 3.64003L622.16 3.80003C621.95 4.06003 622.07 4.36003 622.08 4.62003C622.17 4.37003 622.23 4.11003 622.48 4.02003L624.01 4.26003L624.14 4.44003L625.07 4.63003L625.38 4.20003C625.431 4.25742 625.492 4.30489 625.56 4.34003C625.633 4.35513 625.707 4.35513 625.78 4.34003C625.854 4.34224 625.928 4.32917 625.997 4.30165C626.065 4.27412 626.128 4.23272 626.18 4.18003C626.34 4.38003 626.57 4.32003 626.79 4.33003C626.88 4.05003 627.12 4.28003 627.25 4.17003C627.38 4.06003 627.31 4.08003 627.33 3.98003L627.96 3.98003C627.981 4.05523 628.008 4.12876 628.04 4.20003L628.5 4.20003L628.14 4.06003C628.152 3.95036 628.152 3.8397 628.14 3.73003L628.66 3.73003L629.34 3.42003L629.69 2.98003C629.85 3.26003 630.09 3.41003 630.21 3.67003C630.33 3.93003 630.81 3.83003 630.94 4.16003L631.37 4.16003C631.49 4.38003 631.61 4.57003 631.88 4.53003C631.88 5.00003 632.26 5.01003 632.57 5.10003C632.88 5.19003 633.01 5.75003 633.5 5.88003L633.5 47.44L-266.5 47.44Z" fill="white"/>
</g>
<defs>
<clipPath id="clip0_14_91">
<rect width="47" height="414" fill="white" transform="translate(414) rotate(90)"/>
</clipPath>
</defs>
</svg>
