<svg xmlns="http://www.w3.org/2000/svg" fill="none" viewBox="0 0 414 47">
  <g clip-path="url(#a)">
    <path fill="#fff" d="M-266.5 47.44V.5l.12.15.19-.1.32.35c0 .09-.07.28-.11.49l.31-.14.1.28c.2-.31.33-.66.72-.77l.36.37c0 .33-.56.22-.49.67l.32-.28c.05.006.098.023.14.05.043.025.081.06.11.1v.13a.256.256 0 0 1 0 .15l.2-.17.31.43v.56h.08v-.79c.312.066.587.249.77.51l-.17.3.27.29-.12.14c.23.11.47.21.69.32.22.11.25.46.56.53v.3l-.21.09v.08c.21.11.51.1.56.44 0 .06.15.09.23.13l-.47.32c.27 0 .46.06.56 0 .22-.22.4-.11.55 0l.44-.2-.12.42.55.42c.06-.48.06-.48.39-.68 0 .16 0 .3-.09.44l-.16.48a.45.45 0 0 0-.13-.11h-.18a.48.48 0 0 1 0 .22h.51l-.12.22h.36l-.1-.19.17-.21.12.32.46-.44c.48.07.52-.41.8-.67l.56.27c.27 0 .18-.36.44-.43s.31-.25.52-.2a.617.617 0 0 1 .05-.22.14.14 0 0 1 .09 0l.81.3a.582.582 0 0 0 .18-.09c.007.125.027.25.06.37h.15c.013-.21.013-.42 0-.63l.55.36c-.01-.066-.013-.133-.01-.2 0-.06.08 0 .09 0l.43.51.28-.64h.7v.21l-.45.06.37.2.21-.12v.57l.17-.15.21.35h.6l.56.4.36 1.28.19-.19-.15-.27.23-.09c.013.192.04.382.08.57l.32-.18.38.18c-.012.19-.012.38 0 .57l.22-.35.55-.06-.3-.13v-.47h.06c.013.132.036.262.07.39h.35l.22-.46.28.33.38-.4.25.2-.28.28.29.17c.2-.06.31-.27.4-.49h.31a1.021 1.021 0 0 1 0-.34.9.9 0 0 1 .46 0c.15.037.288.113.4.22l-.15-.78c.14 0 .23 0 .27.1l.15.42-.1.11.26.12c-.3.33-.82.35-1 .81l-.14-.23h-.55v.06l.21.09.15.47a.76.76 0 0 1 .55-.12 1.35 1.35 0 0 1 .51-.55c.217-.13.468-.19.72-.17l-.69.57c.1.33.13.69.44.92l.47-.25.56.16v-.13l-.24-.11V8.4c.27.125.563.193.86.2.32 0 .62-.12 1-.19.1.18 0 .48.33.52l.31-.42.23.15.11-.1.46.26.23-.17.31.26.42-.3-.63-.42h.33l.13-.28.12.11.69-.14.42.33.14-.29.27.25.19-.4-.14-.19.38-.27-.08.43.28.15.07-.18.3-.16.16.15-.13.23.24.27.22-.13.24.13.22-.64c.15.08.3.15.44.23.14.08.27.18.38.25l-.13.57.24-.14.1.09.67-.42-.28-.24c.34-.07.34-.07.93.11l-.23.23.5.37-.09-.41.25-.42.47.23-.15.29c.06.21-.13.51.13.73-.09.25.27.11.26.33.022.176.088.345.19.49.083.135.173.265.27.39l.4-.21-.12-.14c0-.35.31-.25.55-.38l-.61-.08.27-.39c-.01.083-.01.167 0 .25 0 .06.07 0 .08 0 .01 0 .27-.27.47-.22l.24-.41.16.34c-.026.13-.063.257-.11.38l.46.22c0-.27-.18-.26-.33-.31l.26-.31.09.29.14-.29c.44 0 .43 0 .7.16l-.42.31.15.21a.41.41 0 0 0-.11.12l-.1.33c.37-.06.38-.39.47-.56l.68-.36.11.24.81-.45c.11.12.28 0 .42 0a.64.64 0 0 0 .47 0l-.27-.13.18-.3h.68l.25.36-.09.11h.23c.011-.125.031-.248.06-.37l.12.07 1.58-.17c-.019.19-.019.38 0 .57.38-.44.91-.31 1.31-.72v.88l1.43-.3a.345.345 0 0 1 0-.15l.32-.16c.2 0 .28.26.47.37.213.162.402.354.56.57l.24-.17.22.33.56-.12.23-.23.43.2c0 .32-.34.39-.63.6.39.09.64.3 1 .2a1 1 0 0 1-.17-.65c.012-.232.1-.453.25-.63l.09.27.33-.13v.53h.09l.22-.42.12.56c.043-.16.138-.3.27-.4a.699.699 0 0 1 .46-.16c.33 0 .65-.1 1-.17l.26-.24h.38l.43.43.46-.44.09.25h.93l.22.38h.4l-.3.07v.31h.25l-.15-.19.23-.06c.009.131.029.262.06.39l.58-.14v-.19h.46l-.09.21h.21c-.006.1-.006.2 0 .3.46.05.88-.38 1.37-.08.2-.17.2-.17.25-.45l.33-.24a.136.136 0 0 0 0 .08l.33.33c0 .35-.46.57-.47 1.08.126-.077.241-.17.34-.28.16-.17.28.23.47 0 .19-.23.34.11.41.06.07-.05.34-.07.52-.06l-.09.26.3-.29-.06-.08c.25-.14.3.14.44.2l.21-.36.27.14c.056-.1.106-.204.15-.31l.95.31.31-.28c.2 0 .33.25.56.07.23-.18.35 0 .56.09.01-.142.034-.283.07-.42l.59.19v.31h.45l.16-.19h.47l-.13.19.21.07c.009-.131.029-.262.06-.39h.56l.2.19-.38.08v.31l1-.37a1.367 1.367 0 0 0 0 .35h.37l-.12-.31h.31l.21.47.21.07c0 .21 0 .25-.48.38.19.19-.24.48.11.64l-.13.14s.09.07.1.06c.27-.282.511-.59.72-.92.07.36.34.56.49.8h.27l.08-.24h.79c0 .25-.24.17-.3.28.107.123.224.237.35.34.154.092.314.172.48.24v-.34h-.32v-.14c.2 0 .21-.18.28-.31.36.2.25.57.33.8h.16c.26-.26-.34-.57.06-.82l-.13-.14.21-.2.59.32-.36.17.46.34.32-.43c.173.034.337.106.48.21.148.107.267.247.35.41h.32l-.13.23h.75l-.33.33.07.1-.15.32-.37-.22.14.31-.1.12.35.3a2.92 2.92 0 0 1 0-.35l.38-.05-.12-.3.22-.11-.11-.12.31-.1-.06-.14c.082.088.169.172.26.25.105.06.216.11.33.15l-.35.2c.068.18.181.338.33.46.013-.121.033-.241.06-.36l.21-.05.19-.71.32.13v-.52h.09l.1.28-.22.68.16-.12.37.3-.35.05v.11l.47.06a4.581 4.581 0 0 0 0 .62h.53l-.23.26.47-.12.46.23h-.73v.13l.89.18c.228-.21.502-.364.8-.45a2 2 0 0 1 .91 0v.56l.08.05c.046-.077.086-.157.12-.24h.43v-.43l.15-.15.31.13.34.72.16-.13c.006.118.023.235.05.35.11-.07 0-.32.26-.26l.05-.05-.12-.14.56-.56.37-.06-.3-.15v-.37c.135 0 .268.03.39.09a.822.822 0 0 1 .32.26l.32-.18.19.32.27-.23-.07-.26.44.18.12-.11.81.28.37-.52-.16-.28.19-.22a.51.51 0 0 1 .55.17l-.23.26v.07l.35-.14.19.11c.1-.13 0-.36.18-.43a.371.371 0 0 0 .19-.11.363.363 0 0 0 .11-.2l.12.12.23-.23.44.24.49-.18.1-.23.1.29.63-.29.13.28.24-.39.92.17.08.2s.08 0 .07-.05V12.76l.09-.07h.1c.34 0 .56-.26.82-.36l.21.34.43-.16-.19.24.33.18.26-.42-.12-.21c.056-.086.119-.166.19-.24l.21.15.35-.31.43.16.23-.08a.71.71 0 0 1 .52.41.77.77 0 0 0 .29-.22c.078-.092.139-.197.18-.31.1-.23.22-.46.31-.7.09-.24.12-.45.2-.75l.62-.13-.33-.19.33-.5.16.14a1.415 1.415 0 0 1 0-.39c.14-.29.27-.53.4-.77a.77.77 0 0 0 .59-.1l.48.11.71-.36.74.13-.13-.25c.26-.13.29.2.52.23l.2-.17-.12-.3h.15c.34.07.42.43.67.62h.39l.41-.56-.26-.13.27-.1-.13-.17.29-.18.55.2-.3.25.08.45.49-.26.32-.44a2.108 2.108 0 0 0-.07-.57c.127-.03.25-.07.37-.12.11-.07.25.16.33-.11.009.143.036.284.08.42h.32l-.12-.29c.47-.09.63 0 .83.3l.17-.19-.27-.39.62-.21.09.44.44-.57.26.17.21-.13.48.14c.19-.36.56-.53.83-.89l-.11-.75c.32-.23.45.33.75.22l.59-.48v-.26h.45l.2-1 .29-.16.17.25h.34v-.47c.24-.06.45-.3.7-.13l-.55.44h.55l.31-.56.64-.32c.084.05.17.093.26.13.116.01.234.01.35 0l-.11.53.79.22v.59l.35-.2-.17-.42.42.16v-.46l-.39.11-.24-.41.41.12 1.16-.6v.35l-.26.1.5.34.84-.17.21-.46.21.14.31-.27.12.24h.18a1.356 1.356 0 0 0-.08-.35h.34l.4-.31h.25l.27-.25.34.16a4.228 4.228 0 0 1-.08.56c.33.11.14-.44.52-.34l.12.1-.1.57-.3.14h.56l.22-.6.13.13.13-.19.26.11.38-.11-.36.8c.37-.06.49-.43.85-.48l.18.17-.1.13c.06.14.16.12.91-.18l.18.33-.1.14.27.09-.34.17h.34l.72-.64v-.2l.48-.33-.36-.19.06-.1c.204.168.438.297.69.38.278.06.548.158.8.29l.25-.39h.85l-.47-.35.7-.17.68.34-.23.08v.11c.37-.13.8-.06 1-.45l.73-.05-.3-.1.32-.37h.47l.19.51.38-.15.24.65c.17-.04.17-.04.25-.32.25-.13.37 0 .51.2l-.16.23c.06 0 .12.05.17 0 .136-.042.27-.093.4-.15l-.5-.4v-.04l.56.15.06.2h.33l-.15-.4c.37.35.42.52.32.91h.38a.774.774 0 0 1 .55-.45l-.14.27.24.11c0 .14-.06.29-.1.47.39-.22.75-.08 1.07-.13l.37.68.52-.16-.08.12c0 .25.25.32.37.43l.52-.27v.05l.68-.65.27.28.35-.17.06-.35.68.2-.56.07.11.23v.3c.09-.08.13-.14.17-.14h.67l.17.24c.34-.09.6.12.86.24l.56-.5c.13.14.25.3.39.46a7.493 7.493 0 0 0 2-.68l.27.13v-.2l1.16-.28.47.31-.33.11.34.11.1-.07.41.43-.28.16v.18l.34-.14v.67l.52-.08.19.3v-.8l.09.07.19-.19-.15.39.26.53-.13.5.09.06.17-.17c.11-.1 0-.26.08-.37.074-.141.161-.275.26-.4l.29-.4c.26.22 0 .41 0 .57l.35.36.17-.06-.19-.42.77.17.18-.18c1-.06 1-.06 1.52.22l.17-.15.9.53c.19-.13.41-.27.61-.42.2-.15.48 0 .85.12l-.35-.43c.29-.052.574-.128.85-.23.11 0 .19-.17.32-.29l-.3-.11.08-.29h.37l.34-.31.21.37.14-.36h.34l-.1-.14.41-.46.13.12.24-.53.27.08.6-.24.23.51c.12 0 .3.16.43.12.13-.04.26-.12.38 0s.48 0 .56.35l.75-.13-.31.81.1.06.27-.36.36-.1.38.5c.143-.118.31-.203.49-.25a1.45 1.45 0 0 1 .55 0v-.46l-.18.35-.33-.2c.09-.08.16-.2.23-.2a1.09 1.09 0 0 0 .73-.24.66.66 0 0 0 .38.12.67.67 0 0 0 .39-.12l.08.23h.42l.09.26.21-.09.32.27c0-.05.06-.1 0-.15l-.22-.57c.25-.11.28.21.44.24.16.03.59 0 .74-.19.15-.19.44-.16.69-.22l-.22-.24.91.16.2.2.35-.12.44.53h.36l.22-.23c.38.23.74.57 1.21.18l-.11-.14.18-.2.27.41.5-.25c.15.22.5.28.56.65.29-.25-.07-.44 0-.68.31 0 .29.43.56.49l.23-.34h.88l.44.35.4-.15.18.28.11-.28 1.18.7v-.14l.32.32h.78l-.15.31.39.09-.13.34.62-.13.48-.37.12.28.32-.16c.22.09.26.25.24.49h.44l.08.26h.34l-.11-.24c.32 0 .4.3.56.39l.23.6.44-.74c.133.111.277.209.43.29.14.06.34-.06.46.21l.4-.49.4.49h.52l.18-.34.06.57.32.46a1.37 1.37 0 0 1 .08-.35c0-.1.06-.06.1-.09l.55.09.13.26.27-.15.27.45-.22.23v.07a1.2 1.2 0 0 1 .61.37c.11.11.24.21.39.34l.17-1.06h.37v-.37c.401.05.808-.03 1.16-.23.1-.07.27 0 .5.11l.47-.49c.37.21.77.05 1.18.12l.32.48h.42l.42.51v.12l1 .19.14.29-.09.15h.06l.45-.23.22.5h.16l-.14-.31.38-.11.8.9h.11l-.11-.19h.21a3.89 3.89 0 0 0 0 .44l.41.31-.18.23c.06 0 .13.07.16 0a.63.63 0 0 0 .22-.21c.11-.14.2-.29.25-.36l.5-.15.17.82c.32 0 .28-.57.64-.62.2.52-.39.7-.44 1.14l.83-.13.23.4.19-.25.22-.27.34.17.19-.31c.2.4.23.88.55 1.21l-.32.15a1.21 1.21 0 0 0 .93-.09l.56.18-.19.23c-.2.27 0 .5.13.74l.63-.31c0-.06 0-.13.06-.2l.32.18a2.607 2.607 0 0 0 0 .44l.31-.16c.01.119.033.236.07.35l.32.27a1.11 1.11 0 0 1 .16-.07c.106-.01.214-.01.32 0 .08.36.43.32.67.43a.409.409 0 0 0 0 .21h.42l.1.26.13-.26c.21.26.21.26.07.6l.38.05.3.57h.41l.26-.4.3.24-.26.09c.09.27.43.26.55.57.12.31.5.17.74.17.37.22.37.22.56.67l-.13.21c.43.06.6-.29.92-.43l-.33-.13.29-.13.15.07.46-.6-.12-.11.48-.15c.22.38.68.31 1 .46.12.05.29 0 .46-.05v.44h-.73c.32.115.668.136 1 .06.07 0 .09-.06.19 0s.34.11.4.05c.27-.31.68-.15 1-.34a.45.45 0 0 1 .33.05c.11 0 .18.05.46-.09 0 .25 0 .57.43.53.07 0 .23.12.22.18 0 .28.28.52.09.81-.042.093-.076.19-.1.29l.29.42.14-.54c.23-.13.19.1.28.25l.09-.23.52-.14v.7l.32-.44.35.24-.19.28h.24c0-.25.26-.34.47-.57l.09.57.64-.1.42.48a2.184 2.184 0 0 1-.15.41c.29-.17.45-.26.62-.35.17-.09.36-.27.51-.24.2-.01.4-.01.6 0 .07 0 .14.12.23.19l-.26.1.31.5.27-.15.09.27a.16.16 0 0 1-.06.11c.3-.05.56.08.83-.13.22.25.52 0 .81.17l-.27.15a.36.36 0 0 0 .11.21.49.49 0 0 0 .2.11c.12 0 .17.24.25.38l.12-.12.3.14c.015.117.045.231.09.34.1.09.21.168.33.23l-.1-.43.24-.12-.15-.27.35-.23c0-.19 0-.43.38-.45v.48l.09.05.18-.33.29.45.16-.14c.14.26-.14.31-.2.47l.28.2.11-.16-.08-.16.15-.31.13.11.15-.12.24.38h.29l.33-.64.45.17-.34-.57.28.16.12-.31c.009.145.032.29.07.43h.3l.37-.65c.36.18.43.56.63.81l.47-.15.28.42.33-.16.41.54.19-.56c.19.13.42.14.44.39l.29-.28v.88l-.35.22c.21.17.37 0 .68-.14a1.56 1.56 0 0 0-.17.25v.19a.88.88 0 0 0 .36-.1 1 1 0 0 0 .29-.24l.51.61h.46v-.07l-.42-.07.34-.18c.26 0 .5 0 .63.11s.36.06.52.13c.16.07.35.53.66.67a.702.702 0 0 0 0 .28l.43.12.25-.36.31.2.5-.17a.24.24 0 0 1 .05-.17.09.09 0 0 1 .11 0c.207.056.406.14.59.25.324.189.657.359 1 .51.36.19.71.4 1.08.61.01-.128.03-.255.06-.38l.33.13v-.33h.55l.24.17-.17.27h.43l.37-.38.19.14.41-.49.14.34.12-.09.79.57-.12.4 1 .2.07.2.35-.17-.13-.14.6-.31h.51l.29.31c-.22.18-.1.31.1.45 0-.2 0-.4.06-.64h.55v-.07l-.23-.11.32-.18.26.26c0-.49.5-.31.69-.65a.71.71 0 0 0-.28.06c-.2.15-.34 0-.52-.16h.27c.216.02.434.02.65 0l-.18-.21h.3c.28.09.19.54.59.51a.769.769 0 0 1-.1-.25v-.34c.16-.09.44 0 .5-.31.06-.206.137-.407.23-.6h.43l.11.29.18-.34.31.22.12-.33V20l.4-.26-.33-.12c.078-.019.155-.042.23-.07a1 1 0 0 0 .15-.14c.01.125.03.249.06.37.37 0 .41-.45.67-.57l.17.66.47-.53.24.37h.19l.68-.67.33.19c.16-.12.29-.33.56-.3.27.03.06-.44.44-.33l-.14.37.39-.17c-.21-.2.08-.31-.09-.56l.59.16.67-.28.12.32.55-.09.19.2h.51l.31-.3c.17.092.357.147.55.16.194.01.389-.02.57-.09l-.63-.05v-.07h.72l.43.49.18-.14.38.48.23-.49.27.39c.019-.163.052-.323.1-.48l.27.57-.24.15a2 2 0 0 1-.26.1l.21.06a1.11 1.11 0 0 1 .69.1v-.2l-.48-.08.59-.27a.889.889 0 0 1 .06-.33c.3.31.75.42.88.91h.43l-.38-.4c.21-.18.56.08.62-.27l-.34-.31h-.27l.16-.19-.36-.06v-.09l.55-.08.26.26-.11.12.52.57.38.16-.14-.39.3-.15.09.07.29-.09c.116-.01.234-.01.35 0l-.3-.32.14-.13c.25-.17.45 0 .68.1l.24.41.16-.31.85.17-.34-.64c.09-.16.16-.24.25-.39.053.12.12.235.2.34.088.056.182.103.28.14l-.09.47h-.02a.763.763 0 0 1 .09-.22l.44-.05v-.34l.51-.2-.11-.14.24-.11-.09-.11.42-1h.5a.78.78 0 0 1 0-.3c.25.12.48.17.61-.19l-.13-.19.2-.06c.01.129.034.256.07.38h.64l.38.38-.25.47c.34.32.86.25 1.27.57l.07-.22h.31l.36-.42.29.18.47-.41c.36.12.55-.24.88-.37l.62.23a3.18 3.18 0 0 1 .06-.47c.3-.07.5.13.72.29l-.15.17.22.32a.55.55 0 0 1 .37-.14.57.57 0 0 1 .37.14l.15-.43h.12c0 .19.25.35.06.56l.2.21.24-.14.2.2.69-.18v.11l.4-.39-.22-.11H.5c0 .25.34.49.06.81l.51.17c.2-.26.59 0 .85-.25.174.02.343.072.5.15.155.081.291.194.4.33l-.1-.59c.411.03.814.131 1.19.3l-.13.15.43.25-.15-.29s.09-.05.11 0c.089.076.183.146.28.21a2.7 2.7 0 0 0 .39.08l-.17.29c.05 0 .15.06.16 0l.56-.83-.7.31v-.3c.3-.29.61-.14 1 0v.26l.38.35.64-.09.72.11.22-.3.74.38.38-.21c.28 0 .32.31.49.46l.27-.15.09.28h.26l.63.67.19-.26-.27-.19.49-.33.09.09.43-.23a.4.4 0 0 0 0 .2l.22.08-.23.45h.41l.75.77h.65c0 .21 0 .23-.2.33l.25.12-.17.24.5.18c.32-.32.67.26 1 0v-.61l.83.22-.62.28c.29.05.585.07.88.06l.25.37.54.19c0 .28.33.21.43.4l.09-.09-.11-.18.59-.13c.08.1.27.19.3.46h.47l-.15.29.69.35a.81.81 0 0 1 .48-.09.94.94 0 0 1 .3.07c.12.06.26.06.38.11s.24-.08.46-.17c-.04.332-.04.668 0 1 .21-.15.51-.14.58-.49l-.26-.08.17-.35h.27l.53-.85-.12-.15h.6v.06l-.18.05h-.22l.42.23.54-.5.45.13c.023.089.06.173.11.25.01-.08.03-.157.06-.23.48-.05.68-.51 1.06-.81h.65l.28-.62h.84l.5.34 1.2.19-.15-.4h.17l.16.33-.15.28h.79l.56.35-.27.11.87.34c-.15.3.05.47.07.72l-.08.24.68-.11-.14.37.2.08-.09.19h.2c.01-.132.034-.263.07-.39l.49.42.09-.06-.12-.21.16-.35.89-.3.35.49.15-.36.13.1.22-.13.43.41c0-.08.06-.15.1-.27l.39.39h.24l.32-.56.56.1v-.07l-.29-.2-.33-.22c.18-.24.2-.25.46-.3l.16-.32s-.07-.07 0-.05l.12-.32h.18l.12.32-.1.19a.53.53 0 0 0 .2.05c.076-.01.15-.03.22-.06l.22-.09c0-.22 0-.47.39-.48 0 .24.11.48-.09.69l.16.32a.43.43 0 0 1 .12-.11c.07-.005.14-.005.21 0a2.145 2.145 0 0 0-.09-.44h.08c.18.13.48.11.51.44 0 0 .15.08.34.17h-.7v.11l.6.06-.13.25.52-.16c.26.11.35.54.74.34l-.1-.13c.17 0 .18 0 .35.12l-.1.11.3.43.52.1.19-.82.48.34a4.853 4.853 0 0 1-.1.56l.44-.27.55.62.15-.15-.15-.18a.59.59 0 0 1 .45.06.63.63 0 0 1 .3.34 1.8 1.8 0 0 1 .87-.51l.13.11c.2-.11.31-.42.72-.39l-.39.31.12.56.67.19h-.13a.83.83 0 0 1-.32.2h-.08v.17c0 .01.32.17.34.29a.27.27 0 0 0 .29.21l-.19.35h.41a1.4 1.4 0 0 1 0-.39c.4.1.76-.17 1.17-.13.41.04.83 0 1.2 0l.29-.15c.12.14 0 .15 0 .21.3 0 .3 0 .65-.79l.44-.12.31.16v.05h.06c.09.32.42.49.72.67l.18-.18v-.42l.12-.06c.135.02.267.06.39.12l.15.23-.34.45-.1.09.09-.1c.32 0 .51-.28.76-.43l-.13-.14c.17 0 .35.15.47-.07l.23.23.26-.12v.07l.23.36.15 1h.09c.061-.102.115-.21.16-.32l.08.05.8-.26c0 .19.11.42-.12.68l.51.06v.54l.75-1.32.16-.07a.77.77 0 0 0 .23.39v-.4l.16-.06h.08l.22-.12.25-.05v.26l.2-.1v.18l-.35.17h.4l.28-.27.25.4.1-.29 1 .24v-.07l.65.49.11-.12.33.29.18-.26c.12 0 .25-.17.43-.16v.09h.07l-.11.22.37-.15a.34.34 0 0 1 0 .14l.15.17.13-.2.44.17.45 1-.33.16.26.08v.45l.38.06-.11.21h.34c0 .52.55.29.7.64l.12-.09.33.16-.14.16h.35l.36.87.09-.48h.29l.16.31-.1.11.2.21.46-.8.23.57.15-.13a.55.55 0 0 1 .26.14.63.63 0 0 1 .16.24l.61-.4c.08.111.168.218.26.32l-.56.09v.07a1.07 1.07 0 0 1 .51 0 .43.43 0 0 0 .22.09.34.34 0 0 0 .22-.07c.1.058.208.101.32.13.17.001.338.028.5.08l-.36.09.07.2c.23-.05.15.21.24.26l.33-.18-.17.44.38-.08.16.1.52-.29-.12.36c0 .12.1.09.15.15h.42c0-.07 0-.13.06-.25l.17.14.52-.17.23.48a.58.58 0 0 0 .43 0 .64.64 0 0 0 .31-.32h.63l.16.44.43-.08.48-.12c.1.16 0 .46.36.51l.09-.21h.15c.217.123.422.267.61.43.144.17.265.358.36.56l.39-.49.56.39.41-.12.23.43.11-.5.48-.1-.49-.09v-.31l.17-.06.12.27.6-.08-.14.3.18.14c.15-.13.33-.2.48 0l.36-.26a.05.05 0 0 0 0 .05l-.12.26.27.12.24-.12.29.37c.132-.009.263-.032.39-.07.23-.09.44-.27.74-.15-.1.57.56.47.67.8l.56.19.08-.4.2.15.38-.25.3-.06.37.19.2-.26.09.1-.1-.09v-.14l.48.14.19-.3c.07.06.14.08.14.1 0 .22-.05.47.24.57.3-.05.21-.35.31-.51h.17c.014.118.034.235.06.35l.17-.13.24.38h.34l.07.09-.18.35.21.29v-.47c.15.05.26.11.39.16v.56h.34l.08.42.55-.13v.36h.24l-.11-.17.12-.25.37.38-.25.1.06.07h-.38l-.17.34.29.13.43-.12-.28.22.15.29-.37.06.16.57.42-.09.1.29.29-.15.48.15.07-.23 1-.18v-.25h.35l.08.12-.07.14.4.41-.3.69.4.23-.28.17c.048.09.089.183.12.28v.39l.6-.77c0 .49.1.85-.33 1v.37l1-.51v-.33l.45.23.25-.23.14.29c.2-.12.25-.34.36-.56l.08.25h.71v-.32l.23-.08v-.83h.38c.06.24.25.08.38.13s.13.1.21.13v.2-.18l.31.1v.07c0 .34-.33.27-.56.42h.64l.18-.23v-.06h.13l.09-.09a.49.49 0 0 0 .2.11l.77-.35.38.35.09-.17v.29h.08l.09-.22c.2 0 .4-.07.61-.09.14.04.29.04.43 0 .102.01.2.04.29.09l.35-.3.27.14.09.1-.1-.09.19-.16a.741.741 0 0 0 .05.31c.26-.45.71-.38 1.06-.57l.23.08.25.62.06-.08h.05a.38.38 0 0 1 .09-.18v-.08l.3.15a1.552 1.552 0 0 0-.08-.36h.24l.42.39.13-.27-.06-.12h.19c.019.104.053.205.1.3l.16-.31.74.38.14-.13.56.51h.47l-.12-.16c.1-.56.71-.48 1-.93l.33.42-.37.18.56.23-.14.52c.19 0 .33.33.56.07l.61.2.33-.13.35.33.18-.14c.2.07.22.23.19.47h-.48v.13c.25.26.6.23.86.4l.08-.08-.11-.13h.38l.2.72.72-.27-.18.4c.067-.005.133-.005.2 0 .08-.27.39-.28.53-.53l.11.31.33-.27h.15a.619.619 0 0 0 .33-.08l-.24-.1a.497.497 0 0 1 0-.23l.2.18v-.39l.92-.36.26.43h.25l.36.36.55.3.84-.45.2-.33.14.31.34-.17.31.28c.079-.045.163-.082.25-.11.1.13.14 0 .22 0a.92.92 0 0 1 .23-.09l.39.1c.08-.16.15-.27.22-.39a.64.64 0 0 0 .7 0l.26.29h.1c.028.05.061.098.1.14h.23a.205.205 0 0 0 0 .11.243.243 0 0 0 .08.09.369.369 0 0 0 .11 0 .24.24 0 0 0 .12 0v.16l.09-.18v-.07l.11-.22c.019.138.045.275.08.41.14-.41.14-.81.56-.91v-.14l.14.17c.17-.23.35-.14.6-.14l-.4.3v.07l.44-.07.14.28-.23.07c.05.12.15.17.24.28.09.11 0 .29 0 .46h.24l-.12-.16.06-.07c.14-.13.32 0 .48-.1a.42.42 0 0 1 .27 0c.092.011.179.05.25.11.12.09.36 0 .55 0 .109.017.216.044.32.08l.63-.25v.08l-.11.17h.3l-.12.12h.4c.011-.122.034-.243.07-.36h.33v.47h1.21v-.19l.45-.14.1.22h-.43v.24c.203-.067.416-.1.63-.1.201.091.39.21.56.35a1.381 1.381 0 0 1 0-.34h-.35a.647.647 0 0 0 0-.27l.4.17-.08-.57.15-.16.84.43.59-.51h.1v-.16l.1.43.41-.35h.24a2.553 2.553 0 0 0-.16-.24l.08-.09.38.28.13-.46-.19-.08.05-.1.45.48c.2-.07.35-.1.37-.25.127.15.232.319.31.5l.3-.14c.3.2.76.12 1 .47.13 0 .29-.12.37-.08a.28.28 0 0 0 .18.06.27.27 0 0 0 .17-.06l.51.27.39-.2-.13-.27.21-.22.1-.44.42.61v-.32l.33-.15v.07c-.014.08-.038.156-.07.23l.4.57.32-.16.38.37-.14.24h.18c.143-.105.28-.218.41-.34v.57h-.3c0 .05.28.45.56.63.01-.132.034-.263.07-.39h.34c-.013.12-.044.238-.09.35h.45l-.12-.22.65-.18.22.22-.15.17h.56l-.12.31.18.19.35-.02.16.16c-.19.16 0 .31 0 .46 0 .15.39.2.57.37.038.15.084.296.14.44l1 .18.08-.11v.06l-.11.09c.07.12.13.25.2.4l.4-.18c.01.178.03.355.06.53h.71v-.75l.44-.07-.29-.44.76-.77-.1-.08.37-.61.42.19c.13.24.15.57.51.63.1.11-.08.33.15.35l.14.24c.077-.04.158-.073.24-.1a.877.877 0 0 1 .23 0v-.39c.08 0 .15 0 .16-.15.053.14.077.29.07.44l.2-.16.37.53.36-.16c.18.21 0 .36 0 .52h.6v-.08l-.29-.1-.09.08v-.39h.46l.16.16-.08.11.14.33c.12 0 .28.13.32-.1a.61.61 0 0 1 .27 0c.088.021.17.062.24.12l.13-.13.23-.34-.31-.23.07-.25v-.3c.24 0 .44-.07.59.14l-.2.13v.57h.36c-.05.082-.09.169-.12.26v.32a.781.781 0 0 0 .28.16.75.75 0 0 0 .33 0s.06-.07.09-.08c.066-.059.136-.112.21-.16 0-.13-.06-.25-.07-.38-.01-.13-.01-.26 0-.39h.26l-.17.21h.55l-.1.21.1.1-.28.3.66.28.09.1-.1-.09.2-.42-.1-.48.52.45-.1.12.1.22v.29l.37-.44a.66.66 0 0 1 .05-.24h.14c.2.21 0 .37-.07.56l.19.21c.25 0 .56.1.76-.1l.71.13-.15-.26h.61v.63c.15-.06.21-.17.3-.24.09-.07.26.21.41-.06l.17.38c.18-.27.35-.21.51-.22 0-.05 0-.09.08-.16l.74.57.09-.26.19.13.47-.24.5.84.33-.37c.048.057.11.102.18.13l.53-.17v-.19h.38l-.13.33.14.17c.092-.063.193-.11.3-.14.15 0 .33-.05.44.11.11-.14.19-.11.36 0 .17.11.35 0 .55 0v.16h.39l-.13-.33h.18c.017.1.047.198.09.29l.27-.37.23.12.14-.28.28.22h.35l-.14-.17.24-.18-.11-.08v-.05l.08.11c.14.07.27.15.41.21.14.06.28.11.23.37l.61-.5.45.37c.006-.111.023-.222.05-.33l.22.28.27-.17.48.26.17-.24h.2l.07-.22.64-.14.28.12.05-.07-.28-.33h.39v.19l.27.14c.15-.005.298-.032.44-.08.14 0 .11-.08.16-.12.26.03.5.15.68.34l.34-.14-.18.36c.071.019.142.042.21.07l.14.12c.06-.28.38-.29.51-.51.13-.22.28-.38.42-.56l-.12-.15.22-.08.1-.36a.92.92 0 0 1 .15.06c.09.1-.09.32.15.34v-.35c.29-.08.33.18.49.27l-.25.44-.39.06.2.46h.28c.15.21.31.43.49.65l.2-.39v-.68a1 1 0 0 0 .42.35.89.89 0 0 0 .53.08c-.008.132.009.264.05.39l.33-.27v.64l.35.5c.09-.35.38-.49.75-.65l.15.28h.78v.38c.083-.051.16-.112.23-.18.12-.15.21-.32.35-.52l.52.48c0-.21.09-.35.09-.57a1.42 1.42 0 0 1 .18-.5h.48v-.3l.26-.26.64-.2v-.37l.42.21.28-.19a1.52 1.52 0 0 0-.29-.28 4.017 4.017 0 0 0-.45-.15l.22-.23.26.25c.05-.17.12-.34.18-.57l.21.17a1.76 1.76 0 0 1 .08-.4l.56.19-.13.15.22.08c.13.16-.12.48.34.56h.45v-.49c.26.09.2.31.27.45a2.2 2.2 0 0 0 .39.42l-.17.23.34.22c.07.21.16.43.26.68-.09.17-.09.17 0 .36l-.23.08.18.43.29-.27.28.21h-.06l.33.35.21-.21c.32 0 .19.43.51.49l.38-.1.39-.2.21.19-.12.53.39-.15a.506.506 0 0 0 0 .19l-.36.07v.3h.06c.49-.4.53-.42 1.12-.23a.76.76 0 0 1 .05-.21l-.55-.06.19-.2c.068.037.138.07.21.1.076.01.154.01.23 0 .012.079.032.156.06.23h1.32v-.47h.37c.008.114.024.228.05.34.24 0 .45.07.59-.17l-.12-.14c.31-.16.47.13.73.17a.05.05 0 0 1 .06 0c.396-.029.79-.082 1.18-.16 0 0 .1.07.15.11l-.24.05v.08h.24v-.08l.2-.1.3.15-.14.15.24.07v-.46l.29-.24-.26-.21.16-.21.44.08v-.03l-.4-.27c.23 0 .42-.1.62.14l.36-.38c.08.45.48.77.64 1.22v-.41l.38-.21.44.15.24-.3c.34.17.34.17.69 0l.23.39.4-.1.33.19.1-.1.24.13.32-.29.34.18.1-.32.24.32.89.51a1.19 1.19 0 0 1 .56-.35c.19-.06.25-.4.56-.3l.25-.39h.33c.14.25.39.22.61.29.011.121.031.242.06.36l.17-.15c.012.066.032.13.06.19l-.34.16h.63l.22.32.16-.33c.14.21.44.24.55.51.067.006.133.006.2 0a3.056 3.056 0 0 0-.17-.31.872.872 0 0 0 .41-.14v.12-.1c.031.14.113.265.23.35l.21-.74h.34l-.14.28c.4-.17.76-.2 1.07-.57h-.5c-.09-.25 0-.42.23-.63v.12c0 .18.08.16.17.1l.13-.08c-.01.083-.01.167 0 .25h.09v-.25h-.1c0-.21.19-.13.28-.11a1.74 1.74 0 0 0 .78-.13l.16.14.59-.26-.15-.49.55-.27-.33-.13.25-.39c.3.39.88.35 1 .92l-.09.1c.19.21.7 0 .95-.46l.26.11.63-.33.22.3.11-.31h.23l-.15.17.14.13c.3-.11.3-.11.41-.3h.31l-.15.38.34-.17.16.34c.007-.178.027-.355.06-.53.211-.05.416-.123.61-.22v.05c0 .07 0 .12.07.12a.88.88 0 0 1 .48.09.999.999 0 0 1 .38.32c.015-.142.042-.282.08-.42l1 .32v.14l1.15-.17.21.29c.16-.22.56-.12.46-.52h.45l.16.33-1 .24c.17.05.35.05.52 0a.88.88 0 0 0 .44-.27h.12c.05 0 .1.11.15.1.122-.028.239-.072.35-.13v-.54l.33.52c.009-.139.033-.276.07-.41l.13.11.78-.37.31.15.11-.25.56-.19.11.28h.77l.05.24.15-.12.19.32.35-.49.63.4.13-.12-.1-.44c.28-.11.59-.07.68-.42h.37v.24c.147.05.298.09.45.12.166.02.334.02.5 0l.1.28.49-.14.27.17.1-.31.43.07.17-.56-.38-.06.1-.17c-.07-.07-.15-.17-.28-.33l.56.09.24-.13-.18-.33c-.12-.08-.47.16-.56-.29l.3-.35.17.34-.11.14.21.06c.014-.136.041-.27.08-.4h.22c.05.23.21.1.35.1v-.32l.38-.06v-.37l.35-.18c.017.135.044.269.08.4l.19-.22-.22-.41.3-.05.23-.38.16.15.16-.54.3.68c.33-.2.33-.2.38-.63.24-.09.21.08.21.23l-.1.09.08-.11.56-.1c.059.037.116.077.17.12l.24-.14a1.07 1.07 0 0 0 0 .24c0 .13.33-.13.35.13h.56l.21-.2-.29-.17c.06-.08.07-.13.09-.13l.56-.13.09.1-.1-.08.2-.16a.806.806 0 0 0 0 .23l.84-.09.22-.33.41-.11v.12l.76.47.16-.11.09.11-.11-.09-.09-.36c.22-.12.27.16.41.23.16-.21.33-.15.51 0l.16-.16-.13-.25c.24-.2.39 0 .56.07a1.81 1.81 0 0 1 .13-.28h.16a1.464 1.464 0 0 0 0 .35l-.37.06v.06l.35.06c.007.108.024.215.05.32.21.1.26 0 .21-.23l.49.09c.117-.049.225-.116.32-.2a.325.325 0 0 1 .15-.11.37.37 0 0 1 .18 0l.3.38c.83-.86.83-.86 1.18-.94 0-.14-.27 0-.24-.26 0-.08-.16-.18-.22-.25v-.48l.16.14.23-.22.68.12.08.22a.77.77 0 0 0 .39-.07.9.9 0 0 0 .32-.23l.37.37.32-.14.56.18.39-.34.13.27.51.18.15-.14.07.23c.23.06.44.09.59-.15l-.2-.35.66.3.15-.11.4.12-.2-.39.33.08.35-.41-.49-.12c.224-.063.458-.087.69-.07 0-.22.2-.07.18 0l.55-.57.12-.41-.24-.46.39.08.45-.15.56-.14-.11-.45h.33l-.14-.31.44-.2-.1-.1h.43l.31-.56a1.29 1.29 0 0 1 .34-.01l.39.12.14-.12.17.14a1.816 1.816 0 0 1 0-.39l-.3.13c-.12-.12 0-.14 0-.2v-.18l.11-.22-.11-.1.41-.22-.06-.2.4.3.56-.16.34-.46.15.33h.42l.12-.28.3.57-.11.09h.05l.08-.11.23-.15-.13-.33h.21a.26.26 0 0 0 .14.11.28.28 0 0 0 .18 0l.08.1-.1-.09v-.23l.55.27.23-.51.6.21.43-.22.1.09.35-.18-.13-.26.17-.16c.53-.13 1 .16 1.6.14l.73.29.74 1.33v-.45c.09 0 .24.06.25-.13h.21l-.08-.36c-.01-.12-.01-.24 0-.36l.89.29.15.17c.26-.26.2-.57.21-.91l.31-.52.28.17.15-.25c.16.05.31.23.49.07s.3.21.45-.05c.06-.1.28-.12.43-.14a.69.69 0 0 1 .35 0c.15.02.298.057.44.11l.29-.27.13.13.11-.28.66.17c.34.81.34.81.66.81l-.12-.14s.06-.06.09-.06c.144.05.291.09.44.12a7.284 7.284 0 0 1 2.23.2v.3h.4l-.15-.39h.24a.322.322 0 0 1 .05-.23.294.294 0 0 1 .18-.15c.07 0 .11-.11.12-.25l-.41.13-.16-.32c0-.014.005-.028.014-.04a.06.06 0 0 1 .036-.02l.63-.12.11-.61-.33-.22c.15-.13.39 0 .61.33l.22-.12.45.19.28.35c.25-.2.41-.53.81-.41l-.11.16.18.25.56-.68.38.27.07-.05a1.1 1.1 0 0 1-.11-.21v-.32l.48-.32.2.83.33-.09v.11l.08-.11.37-.44-.14-.16.42-.21-.14.29h.3l.4-.41.56.18.01-.28h.61v-.08l-.63-.08c.33-.16.42-.56.85-.6a2.156 2.156 0 0 1-.09.45l.34.17.15-.31c-.22-.19-.05-.44-.11-.68.37 0 .39.23.4.46.19.05.35.28.63.1l-.13-.26c0-.05.07-.11.1-.18l.42.13-.15.19.11.13v.14c.16.09.46 0 .5.34l-.58.39c.085.05.183.07.28.06a.56.56 0 0 0 .28-.1.828.828 0 0 1 .21.28c.05.107.08.222.09.34l-.1.09.09-.1h.36l.37-.38.1.3.43-.43.21.15.07-.14.13.28.3-.15.09.11-.1-.09v-.33c.22.18.47.12.62.32h-.25v.24h.21v-.24h.31l.2.4-.15.23h.24l.09.11-.1-.09.32-.42c.011.135.034.27.07.4h.24l-.15-.18.24-.06-.13-.3a.61.61 0 0 1 .35-.06.7.7 0 0 1 .34.12 2.272 2.272 0 0 1-.12-.32c0-.1.11-.33.18-.52l-.13-.15.91-.35-.25-.11c.31-.44.79-.29 1.26-.34l-.09-.35s.08-.15.13-.28h.18l-.12.26s.06.1.08.09c.38 0 .76-.09 1.15-.14a.993.993 0 0 0 .13-.22c.183-.059.37-.102.56-.13h.6l.28.62h.63l.75.77h.25l.19.26v-.2l.49-.16c.22 0 .33.38.64.36l.27-.22-.39-.07v-.07h.58l-.1.14.48.81.33.07.14.31-.24.12c.19.27.19.27.59.42l-.1-.14c.23-.19.07-.46.12-.7a.52.52 0 0 1 .41.08s.19-.05.29-.08c.124-.058.255-.098.39-.12.173.026.344.066.51.12l.65-.35a1.75 1.75 0 0 0-.11-.25h.4l.33-.45.61.12-.16.29c.26-.17.45-.14.56-.39.11-.25.37-.15.56-.21l.2-.37h1l-.61-.31c.23-.12.44-.28.74-.15v.64c.205.01.411-.01.61-.06a.371.371 0 0 1 .45 0l.48-.16-.15-.27.22-.08c-.07-.1-.34 0-.2-.31h.33c0 .27 0 .27.25.19v-.31l.87-.78h.38l-.23-.44.19-.07.09-.21.4.22.1-.09.49.33-.3.21.17.17h.08c.14-.12.37-.12.41-.4.04-.28.27-.19.45-.21a.859.859 0 0 1 .09-.27l.29.16c.039-.104.093-.201.16-.29a.922.922 0 0 1 .3-.18l.38.2c.1-.15.28-.1.43-.11v.26h.24v-.21h-.23s0-.08-.1-.16h.1c.09 0 .177-.029.25-.08l.38.28.65-.09.66.11.32-.43v-.19l.56-.18.42.17v.28l-.52-.27c.11.3.09.68.55.86l-.19-.39c.131-.021.258-.058.38-.11a.84.84 0 0 1 .4-.17l-.11.16c.19.15.26 0 .36-.14l-.13-.15.51-.17v.11l.09-.11.55-.14c-.01.175-.033.349-.07.52l-.1.09.09-.1.34-.25h.32l.09.1-.1-.08s.11-.12.14-.11c.263.082.535.13.81.14 0 0 .08.07.12.11l.51-.17-.09-.34h.41l-.16.61h.21l.21-.56-.56-.3v-.23h.72l-.27.11.42.42v-.14l.34.09.37.09s.1-.12.18-.21l.21.14.26-.21-.1-.1.15-.48c.19.09.19.09.22.35 0 0 .09.05.11 0a.34.34 0 0 1 .16-.1.572.572 0 0 1 .36.06.403.403 0 0 1 .13.13l.24-.3-.15-.27.75-.33v.57l.36-.1c.08 0 .17-.09.29-.14l.6.39h.31l.41.41.31-.19.4.41h.31a1.011 1.011 0 0 0 0 .22c.42-.29 1-.24 1.33-.57l-.23-.25c-.08-.29.17-.4.31-.56h.65a2.74 2.74 0 0 1 .06-.36h.22l-.12.26c.25.29.25.29.56.13l.19.25v.27l.26-.05-.13-.22h.17l.42 1-.1.1.24.09-.1.2c.35 0 .56.13.51.51h.44l.11.24h.06l-.09-.57c0-.09.47.07.35-.31.26.05.38.16.37.38-.01.22-.34.27-.26.53l-.1.08.09-.1a.71.71 0 0 0 .67-.21l.2.43.33-.45c.2-.1.48-.31.82.06l-.31.17c.07.08.09.13.12.13.308.002.613.06.9.17l-.17.36.56-.15.09.1-.11-.09c-.05-.29.26-.35.35-.56l-.1-.13.31-.25.65.13-.46.11.14.17h-.26l-.37.32.17.17h.39c.22.33-.29.19-.17.48l.31.05c.11-.49.56-.6.9-.93v.33l.62.27-.48.09v.21a1.76 1.76 0 0 1 .88-.11l.09.1-.1-.09-.42-.35.24-.51.09.49.27-.41.24.5.38-.49.09.08.45-.45h.78a.16.16 0 0 1-.09.12 2.562 2.562 0 0 0-.55.05c.281.072.571.099.86.08l.09.1-.1-.09c0-.2.19-.09.32-.13l.19.26h.56l.26-.24c.14.19.33.1.52.11a.394.394 0 0 1 0-.21c.29-.14.49.11.72.22l.44-.16.18.36-.11.13.32.2c.09-.16-.25-.31.08-.41l.23.27c.14.24.56 0 .56.46l.27-.22c.38 0 .56.37.72.63h.26l.23-.37.41.47c.3-.08.13-.4.21-.61.29.17.35.57.7.63l.05-.36.34.2-.26.11.39.26-.13.13h.32l-.12.17.29-.16c.05.08.13.17.22.32l.07-.29h.34c.117.17.202.36.25.56 0 .33.22.36.47.36a.85.85 0 0 1 0 .31.842.842 0 0 1-.09.31c.35 0 .28-.35.51-.48h.8l-.13.17c.07.12.35.09.61-.05.08 0 .17.1.25.15-.19.38-.46.19-.72 0v.12c0 .05.16.18.24.18.27 0 .39.14.41.42l.26-.26.35.17-.38.18h.69v.59l.29-.24-.16-.25.36-.28c.11 0 .34-.14.5.1l-.1.09.08-.1.52.15-.07.25.36.18a.294.294 0 0 1 0-.19l1-.21-.09-.41.8-.54.08.09.07-.11.1-.22.4.48.19-.14.34.36h.48l-.16-.22.16-.25h.59a1.021 1.021 0 0 0 0 .34l.32-.14c.005.125.025.25.06.37a17.27 17.27 0 0 1 1.67-.83c.21-.08.31-.37.56-.27l.09.1-.1-.09v-.3c.19.14.36-.09.55 0 .019.065.043.128.07.19l.51.17.23-.16.29.36.43-.12v-.24c.27-.18.39-.52.62-.67l1.18-.28.36.18-.42.08v.07h.47l.59-.58.67.41-.09-.47.55.16.07-.1a.57.57 0 0 1-.14-.05c-.07-.06-.14-.11-.2-.17v-.86l.28.23.33-.34c.28.05.21.33.29.49l.21-.11.19-.41.35.17.31-.43.43.16.56-.8.28.16c.066.163.122.33.17.5h.32c.011-.151.031-.301.06-.45l.14.31.16-.09c.14.25-.17.28-.2.5l.46-.11a.277.277 0 0 0 0 .18c.084.152.177.3.28.44h.34v-.24l.2-.12.11.1.07-.06.18.3c0 .06-.06.12-.1.17l.07.06.29-.19c-.06-.17-.33-.22-.2-.48l.16.14.25-.38.25.26.09-.52c.32 0 .36.21.34.43l.35.23-.16.29.25.08-.09.38c.35 0 .41-.25.37-.5l.53-.13s.06-.22.17-.26a.434.434 0 0 0 .2-.11.48.48 0 0 0 .12-.22l-.26-.12c.24-.21.56.08.79-.18.25.2.56.07.87.12l-.16-.22.23-.13.19.13.33-.51-.3-.11.34-.22c.08 0 .23.14.44.06.21-.08.39.13.56.22l.62.36-.18-.48.49-.39.67.08v-.2h.12l.18.04-.1-.09-.13-.12.07-.13c.36 0 .33.44.71.56l-.18-.33c.081-.077.154-.16.22-.25.21.07.34.17.31.4 0 0 .12-.06.12-.1v-.56l.5.23v.2l.2-.26h.14c.011.142.035.282.07.42l.33-.16.09.1-.1-.09v-.31c-.32-.32 0-.61 0-.91 0-.06.16-.17.23-.17.38 0 .35-.26.41-.49.09 0 .17.1.25.1.08 0 .38-.16.5-.11.142.073.3.11.46.11h.19a.72.72 0 0 0 .42.24.68.68 0 0 0 .48-.1c.27.24.6.06.89.11.05 0 .1 0 .15-.12h-.74v-.57c.29.27.56 0 .82 0 .269-.03.518-.158.7-.36l.47.14-.1.12.46.57.26-.13.13.21-.22.08c.27.14.44.49.87.4l-.13-.17a.813.813 0 0 1 .89-.7.488.488 0 0 0 .5-.29c.08-.17.32-.26.5-.4l-.3-.12.23-.2c.21.05.33.16.31.38h.42c.16-.12.1-.4.31-.49l.1.1-.1-.08c0-.24.24-.07.33-.15l-.1-.41.2-.2.19.25v-.23l.5-.05v-.22a.649.649 0 0 0 .41-.08.591.591 0 0 0 .27-.33l.56.09v-.15l.22-.08c0-.1 0-.22.05-.38l.31.14v-.44l.35-.18v.26h.25l.38.28.22-.25a.51.51 0 0 0 .27.09.53.53 0 0 0 .28 0l-.19-.19-.36.14v-.44l-.36-.21.62-.23c.27.13.27.13.93.08l-.32-.14a1.26 1.26 0 0 0 .38-.84c.26 0 0-.3.2-.37l.13.27.31-.16.43.48.21-.34a1.29 1.29 0 0 1 .85.1 1.026 1.026 0 0 0-.09-.24 6.584 6.584 0 0 1-.38-.54c-.05-.09 0-.22 0-.35.41 0 .34.56.72.63a1.229 1.229 0 0 1 .18-.86c.12.17.29.11.45.11.19.21.21.56.64.68l-.17-.32.4-.31v-.43l.17.16-.16.17c.06 0 .15.07.16 0l.79-1h.18l.14.22-.13.21h.18l.2-.54.49.4-.08-.34.1-.24 1-.2v-.29c.29 0 .28-.32.46-.44h.62l.29-.45c.4-.12.82.08 1.21-.15l.46.49a.43.43 0 0 1 .24-.15.38.38 0 0 1 .27 0c.36.188.767.264 1.17.22v.38h.29c.31.27.14.68.24 1.06l1.06-.79-.24-.13.28-.53.3.17.08-.26.62-.12.16.44.33-.47v-.44l.2.35c.22-.17.35-.26.49 0l.42-.57.4.35.56-.09.33-.32.4.79.23-.45a.996.996 0 0 1 .24-.34c.108-.092.234-.16.37-.2l-.15.27h.33l.07-.22h.35l.26-.56.39.2.09-.25c.05-.05.27.11.38.3l.74.17-.13-.35.38-.07-.14-.35h.37v.35l.25-.35.41-.34.08.2 1.18-.7.1.27.18-.27.44.13c.3-.62.83-.33 1.25-.41l.25.42.42-.57h.14l-.13.57c.23-.24.5-.37.67-.57l.34.09.14.17.29-.45.18.22-.1.12.42.22.82-.36c.08.05.16.27.32.22l.56-.56.47.13.16-.18.93-.18-.22.25h.49l.16.23a1 1 0 0 1 .66.17l.05.1.08-.1.5-.32-.31.83c.23 0 .26-.22.46-.25l.19.11a.971.971 0 0 1 .08-.24h.42l.05-.21c.25 0 .56.21.76 0l.87.3.11.1-.29.23-.18-.37a3.23 3.23 0 0 1-.05.46h.63l.14.11.09.12-.1.09.09-.1c.33 0 .42-.24.52-.47l.41.11.25.4c0-.1.07-.15.06-.2l-.23-.7c.09-.005.18-.005.27 0l.38.09c.44-.36.75-.44 1-.3l.45-.15.19-.44c.12 0 .29-.13.34.1l-.1.09.08-.1.34.09.25-.04.26.57.13-.11.41.46-.12.13h.34l.21.35.16-.42c.033.1.073.196.12.29h.49l.15.33-.25.1.14.27.89.22-.32.36c.178-.066.362-.113.55-.14.171.02.339.06.5.12l.33.47c.25 0 .31-.35.56-.27l.09.11v-.05l-.1-.08.37-.28.16.15.43-.24h1.2l.13.26.76-.25-.14.52c.091-.021.178-.055.26-.1 0-.2.14-.15.24-.19.08-.22-.3-.4 0-.64.22.19.31.48.5.69.19.21 0 .52.28.63a.532.532 0 0 0 0-.56l.27-.54-.15-.42.08-.06v.32l.14-.12v.85l.2-.32.55.06v-.61l.35.14v-.17l-.33-.15.32-.24s0-.11-.11-.21c.2.08.3.1.41.14l.16-.16-.24-.11.44-.31 1.11.28a.189.189 0 0 0 0 .1l.07.13c.1-.06.2-.1.3-.16a4.43 4.43 0 0 0 1.67.64.635.635 0 0 1 .23.08l.37-.49c.16.22.44.27.55.53.22-.09.45-.26.65-.24.2.02.36-.38.65-.27.13.17.25.17.37 0l.2.11c.059-.154.109-.31.15-.47l-.56-.06.67-.23c.011.115.031.228.06.34l.39.2.29-.27.61.63V9.9l.56.32.09.1-.1-.09c.081-.054.158-.114.23-.18 0 0 0-.14.06-.17s-.05-.15 0-.27l.52.15c.184-.169.298-.4.32-.65.376-.04.756-.01 1.12.09a2.973 2.973 0 0 0-.07-.45l.23-.1-.15-.27s.14-.06.16 0c.02.06.27.33.4.49h.22c.12-.11-.08-.1 0-.25v-.06c0-.06-.06-.06-.1-.11l.56-.47h.08l-.1.34h.37a.983.983 0 0 1 0-.23 1.36 1.36 0 0 0 .33-.06.341.341 0 0 1 .28 0l-.46.38c.16 0 .31.26.55.14l-.11-.18c.17-.25.17-.25.47-.29.008.135.028.269.06.4a.288.288 0 0 0 .21-.08l.16-.6.4.18.19-.51h.56l.32.3-.33.16h.63c.24.41.68.35 1 .51a.307.307 0 0 1 0-.18l-.23-.08.32-.08.27-.26.81.18-.48.31h.78l.27.43c.45-.34 1.07-.25 1.48-.73 0 .05.05.09.07.15l-.35.22.47.38v.2l.69.61h.27V9.5l-.27-.12.19-.08.11-.49c.34 0 .62.29 1 .24l-.15-.2.25-.2.71.56.06-.05-.31-.68.4.05.19-.1.14.28.13-.13.21.61h.71l-.35-.12-.13-.63c.115-.024.226-.064.33-.12.12.12 0 .37.3.38l-.08-.56.35-.16.11.22h.39l.5.32.33-.18-.16.4.22.06.11-.28.32.29.2-.16.21.47.85.19.5-.33-.22-.08v-.33c.07 0 .12-.05.14 0 .25.15.44.39.78.38.09 0 .18.16.25.23s.18-.09.38-.19l-.19.46-.33-.18c.01.143.01.287 0 .43l.4-.18-.11.41.3.24.06-.67.76-.2-.17-.41.6-.21.65.36.28.52h.42v-.11c-.14-.13-.29-.25-.43-.37.26-.16.47.08.71.12v.46h.32l.21-.22.29.14.18 1h.48v.3l.62.52c.31.11.43-.46.76-.2l-.14.78c.17.16.3.4.47.43.17.03.16.39.56.39l.3-.11.2.14.28-.15.45.57.07-.45.65.21-.29.39.18.18.09-.21c.19-.1.4-.28.73-.12l-.13.32h.37v-.31a2 2 0 0 1 .77.11l-.16.35.12.18-.11.12c.32.14.44.61.88.57l.08.11-.1-.1-.09-.14.15-.17-.28-.35.56-.22.19.25-.11.13.27.11-.25.11.4.57h.3c.28-.17.36-.62.85-.64l-.13.35.16.16c.24.09.29-.39.56-.2l-.13.15a.63.63 0 0 0 .33.06.57.57 0 0 0 .3-.15c.16.23.56 0 .63.38.2 0 .38.09.52-.08l.56.2.14-.13c.064.205.162.398.29.57.2.18 0 .41.17.57l.13-.12.3.45-.24.25.56.12c.141.747.487 1.44 1 2a.901.901 0 0 1 .46-.44c.053.028.1.065.14.11l-.1.08.08-.1.52-.15.34.3.24-.14.14.28-.07.16c.1.13.08.38.33.44l.25-.2-.19-.2.42.11.21-.33c.3.15.55.41.93.36l.26.39v-.13l.94-.19.24.36.12-.27.62.3.14-.31.07.26c.08-.01.16-.01.24 0a.915.915 0 0 1 .23.15l.38-.27.33.23.12-.12a.584.584 0 0 0 .12.2c.05.06.111.111.18.15.11.07.13.27.19.41l.15-.14.46.22a1.46 1.46 0 0 0-.3-.39l.19-.18h.34c.088.064.171.135.25.21l-.16.29.26.38c-.24.14-.11.33-.09.57l.34-.45.68-.27.09.12.35-.09-.12.19.29.24.14-.33.37.15s0-.09.07-.13l.61-.24v.31l-.31.15h.38c.17.18.35.39.56.59l-.08.09.33.28c0-.09 0-.21.07-.35l.16.14.35-.74.28-.12c.27.09.14.36.19.56.113.015.223.042.33.08.09.05.13.16.27.33v-.76a2.132 2.132 0 0 1 1.74.49l.88-.17-.66-.07.42-.22.46.21a2.256 2.256 0 0 1-.2-.29l.49-.08v-.6h.49v-.08l-.36-.09.25-.34.26.16-.23-.76s.08-.09.18-.18c.009.188.033.375.07.56l.32-.17c.06.3-.05.71.39.82v.35c.11 0 .21-.05.23-.09.041-.133.068-.27.08-.41l-.29-.17c.12-.06.24-.13.36-.2s.14-.14.28-.27l.15.36-.07.12h.23l-.13.34.38.06v.41l.29-.43.13-.25-.42.14a1.087 1.087 0 0 1 0-.44l-.22-.09v-.21h.62l-.15-.18c.06-.19.35.06.36-.2l.13-.13c.19 0 .11-.16.1-.22.181-.053.365-.096.55-.13l.28.38.48-.24-.3-.25.55-.44.12.34c.039.14.062.285.07.43-.04.135-.094.266-.16.39l.23.05.24-.85.44.43-.34.06v.29c.37 0 .55-.36.84-.49l-.42-.29c.308-.04.619-.06.93-.06v.27h.38a.528.528 0 0 0 0-.25h.23l.21-.48.74.91c.22-.07 0-.14 0-.19 0-.05.11-.14.11-.2s-.07-.19-.08-.29c-.01-.1 0-.11.07-.17a.72.72 0 0 0-.5 0v-.09c0-.16 0-.26.08-.27a.557.557 0 0 0 .24-.22.502.502 0 0 0 .08-.32h.4l-.12.18v.15h.34v-.36l1 .41.09.11-.1-.09v-.4l-.38-.07.12-.22h.56l.05.36h.25l-.18-.21h.48l.09.24h.48v-.31l.55-.19c.015.125.038.248.07.37a.57.57 0 0 0 .29 0 .66.66 0 0 0 .27-.12c.18.22.35.09.55 0l.33.3.48-.15.5-.15.11.3.26-.15.35.31.32-.19a.15.15 0 0 1 .08 0l-.06.08.32.38-.11-.35h.26c.17 0 .33.11.52 0s.26.15.46 0 .29.16.48.24c.07-.46-.4-.67-.43-1.08l.36-.34.23.24c.12.12.09.35.36.42l.24-.13.25-.37h.49v.25l-.24.2a.87.87 0 0 1 .63.12l.09.1-.1-.09v-.29l.25-.12-.15-.16h.52v.19l-.56.23a.38.38 0 0 0 .56-.2l.59.13c.011-.129.035-.256.07-.38h.22l-.17.19.24.12v-.34l-.33-.16h.4l.23-.38h.63a.112.112 0 0 0 .05.11l.08-.11h.2a.992.992 0 0 1 .09-.27l.4.41c.32 0 .37-.5.79-.36l.29.31h.61c0 .24.21.1.33.11a.759.759 0 0 1 .73.57l.08-.45.34.29v-.63l.24.19-.11.13s.06-.08.09-.11l.17-.21a.81.81 0 0 1 .09 1.14c.33.24.56-.15.9-.16l-.61-.53.51-.3.12.25c.29.09.5 0 .63.17l.24-.37.29.2c.17-.2.3-.5.49-.57.19-.07.13-.5.56-.28 0 0 .31-.08.27.19l1.36.34v-.85c.44.32 1 .22 1.34.71.003-.201.023-.402.06-.6 0 0 .1-.05.11 0 .21.17.46.1.7.12.24.02.47 0 .77.09l.13-.09c-.02.12-.02.24 0 .36h.26l-.15-.2.39-.29h.55l.24.28-.3.13v.08l.84-.09.8.45.12-.24.61.38c.08.12.22.33.37.53h.15l-.21-.44.13-.2-.4-.27c.13-.3.37-.2.56-.22l.26.27.09-.28.16.15.17.18-.37.24v.08l.49-.17-.1-.43c.037-.104.084-.205.14-.3l.26.37a.89.89 0 0 1 .28.07c.08 0 .13.15.21.26l.12-.32c.07.08.14.14.2.22.06.08 0 .08 0 .16h-.48v.11a.38.38 0 0 1 .28 0 .379.379 0 0 1 .18.23l-.12.18.22.18h-.12l.06.26.06-.05v-.22c.09 0 .23.06.24-.13.19 0 .4 0 .49-.22l-.02-.16a2.43 2.43 0 0 1 .13-.38c.06-.11.18-.17.24-.27a1.003 1.003 0 0 0 0-1.05l.44-.23.3.46-.12.28h.12l.38-.29-.25-.27.76-.15c.15.3-.09.25-.19.33l.67.44.13-.1.15.13c0-.16.15-.3-.08-.34.11-.25.22-.42.49-.44.11 0 .22-.15.35-.24l.22.64.26-.1.21.11.26-.23-.15-.26.22-.11.25.12v.19l.32-.15-.15-.4.45.21-.16.18.21.45.22-.34.16.36.4-.29a.86.86 0 0 1 .32 0 .673.673 0 0 1 .3.13l.15-.12.2.23h.33l-.54.5.44.31a.232.232 0 0 0 0-.26h.06c.22.08.33.12.47.16l.43-.23.06.07c.12 0 .24-.06.26-.38.081.229.174.452.28.67.31 0 .32-.24.34-.51.33.06.64.14 1 .18.295.004.587-.065.85-.2v.19l-.25.13c.24.2.38-.12.56-.07.168.06.331.13.49.21.31-.28.31-.28.45-.91l-.67-.51a1.17 1.17 0 0 1 1.2.67l.59.1.19-.43.26-.1-.56-.07-.2.21c-.16-.15-.32-.3-.49-.43a5.827 5.827 0 0 0-.67-.32l.34-.1s0-.09-.1-.17l.19-.21c.05-.082.09-.169.12-.26.35.23 0 .45 0 .66l.86-.14v.42h.28l.43.57.3-.22-.2-.22.13-.29.44.43.14.25-.31.19.8.22-.16.22c.1.15.15.32.33.25v-.61c-.16 0-.34-.13-.3-.4h.34a2.88 2.88 0 0 1 .07-.38h.06v.47l-.34.12.56.06c.047.097.087.197.12.3.009-.175.032-.349.07-.52l.35-.18.35.17c0-.2-.51-1-.49-1.16l.21-.66c0 .14.47-.08.44.05l.4-.24c.11-.41-.62-.57-.49-1l.55-.37h.6l.24-.37.19.1.08.11-.11-.09v-.61l.26.15.28-.24-.4-.06v-.2h.75l.22.61h.31l.09.1-.1-.09c0-.26.2-.34.32-.52l.08.24h.08c.15-.148.331-.26.53-.33a1.466 1.466 0 0 0-.14.28c-.01.096-.01.194 0 .29h.24c.013-.136.04-.27.08-.4l.48-.24.73-.32v.23h.25c.28.18 0-.37.24-.11l.12-.16.45-.1.06-.52.23.32-.23-.33 1.08.62V8.5l.12-.32.14.29a.941.941 0 0 0-.1.1h.41l-.16-.18.51-.08v-.54l-.33.13-.15-.48.11-.05-.11-.08-.14-.26.39.13v.56l.38-.29.34-.13v.25h.07v-.24h-.07l-.19-.4.48.13c.26-.4.4.34.75.07l-.1-.5s.06-.09.06-.15.13.3.26.19c.13-.11.09-.13.16-.33.28-.08.52-.26.45-.37h-.27c-.07.12-.12.25-.18.37h-.23v-.29c.26-.12.32-.44.56-.56.24-.12.56.91.81.8v-.3l.17-.26c-.06-.11-.33-1.05-.39-1.14.156-.225.392-.382.66-.44 0 .27.3-.06.33.2h.06v-.54l.16-.23.58.61.37.18.17.23c0-.07.28-.09.24-.11-.04-.02-.41-.39-.63-.55l.19-.16c0 .16.13.17.19.12a.137.137 0 0 0 .052-.062.13.13 0 0 0 .005-.08.125.125 0 0 0-.042-.068.132.132 0 0 0-.075-.03c0-.19.15-.11.25-.13 0-.23.1-.32.28-.4.09.3.09.3-.28.4.17.12.21.07.28.27l-.1.09.09-.1s.13 0 .18.1c.05.1 0-.18 0-.15h.15l.15-.09-.23-.32.09-.33.22-.25.32.25.34-.35.18.13h.35l.39.81.13-.26-.13-.21.21-.05c.016-.125.039-.248.07-.37h.21l-.1.41h.7l.65-.48.09.09.18-.11.41.18v.45c0-.15.07 0 .08-.17l.51-.32.22.12v-.06l-.15-.24-.19-.24.36-.16c.058.052.111.11.16.17l.18-.5.69.78a.588.588 0 0 0 .27-.15.514.514 0 0 0 .19-.28l-.11-.12c0-.25.2.72.34.66l.17-.53-.34-.2h.39l.12.31c0-.34.19.33.42.07a.426.426 0 0 0 0 .24h.08v-.25h-.07v-.1c.064-.079.135-.152.21-.22l.17.32c.25-.12.25-.12.3-.37l-.2.11-.27-.46.22-.08a.862.862 0 0 1 0-.19h.37l-.14.17c.023.024.05.044.08.06a2.75 2.75 0 0 0 1.26-.2c.26-.08.52 0 .45.15s.12.28.05.43a.746.746 0 0 0 .1.2l-.1.12.11.15a.407.407 0 0 1 0 .19l.25-.26h.64a1.295 1.295 0 0 0 .71.72h.79l-.52-.33h.37l.15.27c.27 0 .5-.3.75 0l.7-.15.19-.2.17.08s.06.07.09.11l.1-.09-.11-.08c0-.26.3 0 .39-.24l-.28-.37h.32l.28.56v-.8l.71.28.11-.32c.1.14.19.26.26.38l.38-.21.18.23.18.27a1.93 1.93 0 0 1 1.23.31c.23.11.49.14.52.45l.56-.19a.308.308 0 0 1 0-.19h.1c-.015.19-.015.38 0 .57l.17.16.2-.11.14-.2.36.45.33-.24c.09.24 0 .57.38.66v.17a.386.386 0 0 0 .08.2c.046.054.11.09.18.1 0 0 .07-.13.1-.12.23.06.41-.08.61-.16a.561.561 0 0 1 .6 0l.11-.1.29.14.2.69h.18v.33c.23-.08.29-.43.6-.36l.08.1-.1-.09.66-.79.14.19-.1.08.08-.1c.24 0 .08-.23.12-.35.04-.12-.11-.33.1-.44.06.07.09.15.13.15.177.027.359.013.53-.04.171-.058.323-.162.44-.3h.38l.18-.27.2.8c.22-.21.22-.21.22-.76l.35-.35h.23c.1-.28.43-.32.6-.6.17-.28.44-.3.69-.46v-.49a.6.6 0 0 1 .19 0c.13.038.257.085.38.14l.23-.48.56.16.08.23.13-.27h.14l-.15.27.15.19a.09.09 0 0 0 .09 0l.37-.58.34.32h.32l.79.57.09-.23.36.08-.18-.37-.18.13-.47-.22.56-.08-.09-.2.3-.25.25.44c.16 0 .36.09.52-.12l.22.22-.38.05a.843.843 0 0 1-.05.21l.45-.12.44.57v.27h.25v-.27h-.22v-.32l.44.3c.32-.32.65.25 1 0l.17.34-.1.12.38.19c0-.27-.35-.57.1-.77v.74h.63l-.46-.6v-.4c.087-.084.189-.152.3-.2a.798.798 0 0 1 .34-.05c.06 0 .11-.08.17-.12-.26 0 0-.24-.17-.32l.49-.11.4.48.28-.15v.26c.09 0 .23.06.2-.13.23.09.43.15.49.38h.18l.09.1-.1-.09-.11-.2.55-.18.14.12.21-.19-.16.56.45.05.14-.29.46.23-.16.43a.28.28 0 0 1 .18 0 .27.27 0 0 1 .14.12l.31.51-.1.17c.381.477.716.99 1 1.53l.46-.32.63.12a.402.402 0 0 0-.05-.24h.6l-.37.18.07.12-.19.21.5-.14.23.36.3-.3-.12-.43h.38c.11.19.21.36.3.54l-.14.17.43.38c.15.14.12.43.42.47v.32h.22c0-.23.11-.45-.1-.56l.17-.73c.06.25.13.46.23.81l.24-1 .46-.13c-.011.09-.011.18 0 .27l-.38.39c-.08.32.18.4.34.64v-.37h.45l.31-.76-.32.12c-.1-.1-.06-.23.18-.5l.26.07.47-.51c0-.52.07-.65.42-.9.11.34 0 .49-.28.69v.86s.22.02.22.06l-.26.21c.08.33.43.35.64.56v.09l.11-.1.22.13c.01-.125.03-.248.06-.37h.39c.39-.34.56-.92 1.11-1.09v-.28l.43.1.22-.26h.58l.17.18a.755.755 0 0 0-.12.13l.38.2.42-.24.31.16c-.21.26-.09.56-.08.82.09-.25.15-.51.4-.6l1.53.24.13.18.93.19.31-.43a.624.624 0 0 0 .18.14.54.54 0 0 0 .22 0 .543.543 0 0 0 .4-.16c.16.2.39.14.61.15.09-.28.33-.05.46-.16s.06-.09.08-.19h.63c.021.075.048.149.08.22h.46l-.36-.14c.012-.11.012-.22 0-.33h.52l.68-.31.35-.44c.16.28.4.43.52.69.12.26.6.16.73.49h.43c.12.22.24.41.51.37 0 .47.38.48.69.57.31.09.44.65.93.78v41.56h-900Z"/>
  </g>
  <defs>
    <clipPath id="a">
      <path fill="#fff" d="M0 0h47v414H0z" transform="rotate(90 207 207)"/>
    </clipPath>
  </defs>
</svg>
