<svg width="48" height="900" viewBox="0 0 48 900" fill="none" xmlns="http://www.w3.org/2000/svg">
<g clip-path="url(#clip0_2_3)">
<path d="M47.9301 900H0.990112L1.14011 899.88L1.04011 899.69L1.39011 899.37C1.48011 899.37 1.67011 899.44 1.88011 899.48L1.74011 899.17L2.02011 899.07C1.71011 898.87 1.36011 898.74 1.25011 898.35L1.62011 897.99C1.95011 897.99 1.84011 898.55 2.29011 898.48L2.01011 898.16C2.01625 898.11 2.03332 898.062 2.06011 898.02C2.08518 897.977 2.11929 897.939 2.16011 897.91H2.29011C2.33903 897.895 2.3912 897.895 2.44011 897.91L2.27011 897.71L2.70011 897.4H3.26011V897.32C3.14011 897.32 3.03011 897.32 2.91011 897.32H2.47011C2.53653 897.008 2.71878 896.733 2.98011 896.55L3.28011 896.72L3.57011 896.45L3.71011 896.57C3.82011 896.34 3.92011 896.1 4.03011 895.88C4.14011 895.66 4.49011 895.63 4.56011 895.32H4.86011L4.95011 895.53C4.95011 895.53 5.02011 895.53 5.03011 895.53C5.14011 895.32 5.13011 895.02 5.47011 894.97C5.53011 894.97 5.56011 894.82 5.60011 894.74L5.92011 895.21C5.92011 894.94 5.98011 894.75 5.92011 894.65C5.70011 894.43 5.81011 894.25 5.92011 894.1L5.72011 893.66L6.14011 893.78L6.56011 893.23C6.08011 893.17 6.08011 893.17 5.88011 892.84C6.04011 892.84 6.18011 892.84 6.32011 892.93L6.80011 893.09C6.75551 893.126 6.71817 893.17 6.69011 893.22V893.4C6.76241 893.383 6.83781 893.383 6.91011 893.4V892.89L7.13011 893.01V892.65L6.94011 892.75L6.73011 892.58L7.05011 892.46L6.61011 892C6.68011 891.52 6.20011 891.48 5.94011 891.2L6.21011 890.64C6.21011 890.37 5.85011 890.46 5.78011 890.2C5.71011 889.94 5.53011 889.89 5.58011 889.68C5.50428 889.677 5.42962 889.66 5.36011 889.63C5.35021 889.601 5.35021 889.569 5.36011 889.54L5.66011 888.73C5.64064 888.665 5.6102 888.604 5.57011 888.55C5.69521 888.543 5.81922 888.523 5.94011 888.49V888.34C5.73032 888.327 5.5199 888.327 5.31011 888.34L5.67011 887.79C5.60395 887.8 5.53695 887.803 5.47011 887.8C5.41011 887.8 5.47011 887.72 5.47011 887.71L5.98011 887.28L5.34011 887V886.3H5.55011L5.61011 886.75L5.81011 886.38L5.69011 886.17H6.26011L6.11011 886L6.46011 885.79V885.19L6.86011 884.63L8.14011 884.27L7.95011 884.08L7.68011 884.23L7.59011 884C7.78175 883.987 7.97222 883.96 8.16011 883.92L7.98011 883.6L8.16011 883.22C8.34993 883.232 8.5403 883.232 8.73011 883.22L8.38011 883L8.32011 882.45L8.19011 882.75H7.72011V882.69C7.85175 882.677 7.98216 882.654 8.11011 882.62V882.27L7.65011 882.05L7.98011 881.77L7.58011 881.39L7.78011 881.14L8.06011 881.42L8.23011 881.13C8.17011 880.93 7.96011 880.82 7.74011 880.73V880.42C7.62761 880.439 7.51261 880.439 7.40011 880.42C7.36027 880.269 7.36027 880.111 7.40011 879.96C7.43698 879.81 7.51287 879.672 7.62011 879.56L6.84011 879.71C6.84011 879.57 6.84011 879.48 6.94011 879.44L7.36011 879.29L7.47011 879.39L7.59011 879.13C7.92011 879.43 7.94011 879.95 8.40011 880.13L8.17011 880.27V880.82H8.23011L8.32011 880.61L8.79011 880.46C8.68119 880.299 8.63824 880.102 8.67011 879.91C8.44228 879.795 8.25159 879.619 8.12011 879.4C7.99029 879.183 7.93089 878.932 7.95011 878.68L8.52011 879.37C8.85011 879.27 9.21011 879.24 9.44011 878.93L9.19011 878.46L9.35011 877.9H9.22011L9.11011 878.14H8.89011C9.01528 877.87 9.08337 877.577 9.09011 877.28C9.09011 876.96 8.97011 876.66 8.90011 876.28C9.08011 876.18 9.38011 876.28 9.42011 875.95L9.00011 875.64L9.15011 875.41L9.05011 875.3L9.31011 874.84L9.14011 874.61L9.40011 874.3L9.10011 873.88L8.68011 874.51V874.18L8.40011 874.05L8.51011 873.93L8.37011 873.24L8.70011 872.82L8.41011 872.68L8.66011 872.41L8.26011 872.22L8.07011 872.36L7.80011 871.98L8.23011 872.06L8.38011 871.78L8.20011 871.71L8.04011 871.41L8.19011 871.25L8.42011 871.38L8.69011 871.14L8.56011 870.92L8.69011 870.68L8.05011 870.46C8.13011 870.31 8.20011 870.16 8.28011 870.02C8.36011 869.88 8.46011 869.75 8.53011 869.64L9.10011 869.77L8.96011 869.53L9.05011 869.43L8.63011 868.76L8.39011 869.04C8.32011 868.7 8.32011 868.7 8.50011 868.11L8.73011 868.34L9.10011 867.84L8.69011 867.93L8.27011 867.68L8.50011 867.21L8.79011 867.36C9.00011 867.3 9.30011 867.49 9.52011 867.23C9.77011 867.32 9.63011 866.96 9.85011 866.97C10.0265 866.948 10.1947 866.882 10.3401 866.78C10.4747 866.697 10.6049 866.607 10.7301 866.51L10.5201 866.11L10.3801 866.23C10.0301 866.23 10.1301 865.92 10.0001 865.68L9.92011 866.29L9.53011 866.02C9.61312 866.03 9.69711 866.03 9.78011 866.02C9.84011 866.02 9.78011 865.95 9.78011 865.94C9.78011 865.93 9.51011 865.67 9.56011 865.47L9.15011 865.23L9.49011 865.07C9.61963 865.096 9.74675 865.133 9.87011 865.18L10.0901 864.72C9.82011 864.72 9.83011 864.9 9.78011 865.05L9.47011 864.79L9.76011 864.7L9.47011 864.56C9.47011 864.12 9.47011 864.13 9.63011 863.86L9.94011 864.28L10.1501 864.13C10.1824 864.174 10.2232 864.212 10.2701 864.24L10.6001 864.34C10.5401 863.97 10.2101 863.96 10.0401 863.87L9.68011 863.19L9.92011 863.08L9.47011 862.27C9.59011 862.16 9.47011 861.99 9.47011 861.85C9.52972 861.699 9.52972 861.531 9.47011 861.38L9.34011 861.65L9.04011 861.47V860.79L9.40011 860.54L9.51011 860.63V860.4C9.38549 860.389 9.26183 860.369 9.14011 860.34L9.21011 860.22L9.04011 858.64C9.22962 858.659 9.4206 858.659 9.61011 858.64C9.17011 858.26 9.30011 857.73 8.89011 857.33C9.23011 857.33 9.45011 857.33 9.77011 857.33L9.47011 855.9C9.42074 855.911 9.36949 855.911 9.32011 855.9L9.16011 855.58C9.16011 855.38 9.42011 855.3 9.53011 855.11C9.69184 854.897 9.88386 854.708 10.1001 854.55L9.93011 854.31L10.2601 854.09L10.1401 853.53L9.91011 853.3L10.1101 852.87C10.4301 852.87 10.5001 853.21 10.7101 853.5C10.8001 853.11 11.0101 852.86 10.9101 852.5C10.7195 852.63 10.4899 852.69 10.2601 852.67C10.0284 852.658 9.80709 852.57 9.63011 852.42L9.90011 852.33L9.77011 852H10.3001V851.91L9.88011 851.69L10.4401 851.57C10.2804 851.527 10.1395 851.432 10.0401 851.3C9.93344 851.171 9.87666 851.008 9.88011 850.84C9.88011 850.51 9.78011 850.19 9.71011 849.84L9.47011 849.58V849.2L9.90011 848.77L9.46011 848.31L9.71011 848.22V847.29L10.0901 847.07V846.67L10.1601 846.97H10.4701V846.72L10.2801 846.87L10.2201 846.64C10.3515 846.631 10.4819 846.611 10.6101 846.58L10.4701 846H10.2801V845.54L10.4901 845.63V845.42C10.59 845.426 10.6902 845.426 10.7901 845.42C10.8401 844.96 10.4101 844.54 10.7101 844.05C10.5401 843.85 10.5401 843.85 10.2601 843.8L10.0201 843.47C10.0461 843.478 10.0741 843.478 10.1001 843.47L10.4301 843.14C10.7801 843.14 11.0001 843.6 11.5101 843.61C11.4336 843.484 11.3393 843.369 11.2301 843.27C11.0601 843.11 11.4601 842.99 11.2301 842.8C11.0001 842.61 11.3401 842.46 11.2901 842.39C11.2401 842.32 11.2201 842.05 11.2301 841.87L11.4901 841.96L11.2001 841.66L11.1201 841.72C10.9801 841.47 11.2601 841.42 11.3201 841.28L10.9601 841.07L11.1001 840.8C10.9997 840.744 10.8962 840.694 10.7901 840.65L11.1001 839.7L10.8201 839.39C10.8201 839.19 11.0701 839.06 10.8901 838.83C10.7101 838.6 10.8901 838.48 10.9801 838.27C10.8382 838.26 10.6976 838.236 10.5601 838.2L10.7501 837.61H11.0601V837.16L10.8701 837V836.53L11.0601 836.66L11.1301 836.45C10.9987 836.441 10.8683 836.421 10.7401 836.39V835.83L10.9301 835.63L11.0101 836.01H11.3201L10.9501 835.01C11.0663 835.025 11.1839 835.025 11.3001 835.01V834.64L10.9901 834.76V834.45L11.4601 834.24L11.5301 834.03C11.7401 834.03 11.7801 834.03 11.9101 834.51C12.1001 834.32 12.3901 834.75 12.5501 834.4L12.6901 834.53C12.6901 834.53 12.7601 834.44 12.7501 834.43C12.4683 834.16 12.1601 833.919 11.8301 833.71C12.1901 833.64 12.3901 833.37 12.6301 833.22V832.95L12.3901 832.87V832.08C12.6401 832.08 12.5601 832.32 12.6701 832.38C12.7933 832.273 12.9071 832.156 13.0101 832.03C13.102 831.876 13.1822 831.716 13.2501 831.55H12.9101V831.87H12.7701C12.7701 831.67 12.5901 831.66 12.4601 831.59C12.6601 831.23 13.0301 831.34 13.2601 831.26V831.1C13.0001 830.84 12.6901 831.44 12.4401 831.04L12.3001 831.17L12.1001 830.96L12.4201 830.37L12.5901 830.73L12.9301 830.27L12.5001 829.95C12.5345 829.777 12.6062 829.613 12.7101 829.47C12.8171 829.322 12.9576 829.203 13.1201 829.12V828.8L13.3501 828.93V828.18L13.6801 828.51L13.7801 828.44L14.1001 828.59L13.8801 828.96L14.1901 828.82L14.3101 828.92L14.6101 828.57C14.4936 828.577 14.3767 828.577 14.2601 828.57L14.2101 828.19L13.9101 828.31L13.8001 828.09L13.6801 828.2L13.5801 827.89L13.4401 827.95C13.5285 827.868 13.6119 827.781 13.6901 827.69C13.75 827.585 13.8002 827.474 13.8401 827.36L14.0401 827.71C14.2198 827.642 14.3785 827.529 14.5001 827.38C14.379 827.367 14.2588 827.347 14.1401 827.32L14.0901 827.11L13.3801 826.92L13.5101 826.6H12.9901V826.51L13.2701 826.41L13.9501 826.63L13.8301 826.47L14.1301 826.1L14.1801 826.45H14.2901L14.3501 825.98C14.5566 825.994 14.7637 825.994 14.9701 825.98V825.45L15.2301 825.68L15.1101 825.21L15.3401 824.75V825.48H15.4701L15.6501 824.59C15.4401 824.362 15.2861 824.088 15.2001 823.79C15.1302 823.491 15.1302 823.179 15.2001 822.88H15.7601L15.8101 822.8C15.7334 822.754 15.6532 822.714 15.5701 822.68V822.25H15.1401L14.9901 822.1L15.1201 821.79L15.8401 821.45L15.7101 821.29C15.828 821.284 15.9452 821.267 16.0601 821.24V821.24C15.9901 821.13 15.7401 821.24 15.8001 820.98L15.7501 820.93L15.6101 821.05L15.0501 820.49L14.9901 820.12L14.8401 820.42H14.4701C14.4701 820.285 14.5009 820.152 14.5601 820.03C14.6181 819.903 14.7076 819.793 14.8201 819.71L14.6401 819.39L14.9601 819.2L14.7301 818.93L14.4701 819L14.6501 818.56L14.5401 818.44L14.8201 817.63L14.3001 817.26L14.0201 817.42L13.8001 817.23C13.77 817.132 13.77 817.028 13.8001 816.93C13.829 816.831 13.8885 816.743 13.9701 816.68L14.2301 816.91H14.3001L14.1601 816.56L14.2701 816.37C14.1401 816.27 13.9101 816.37 13.8401 816.19C13.8235 816.117 13.7852 816.051 13.7301 816C13.6771 815.943 13.6069 815.904 13.5301 815.89L13.6501 815.77L13.4201 815.54L13.6601 815.1L13.4801 814.61L13.2501 814.51L13.5401 814.41L13.2501 813.78L13.5301 813.65L13.1401 813.41L13.3101 812.49L13.5101 812.41C13.5101 812.41 13.5101 812.33 13.4601 812.34H13.3501H13.2501L13.1801 812.25V812.15C13.1801 811.81 12.9201 811.59 12.8201 811.33L13.1601 811.12L13.0001 810.69L13.2401 810.88L13.4201 810.55L13.0001 810.29L12.7901 810.41C12.7044 810.354 12.624 810.291 12.5501 810.22L12.7001 810.01L12.3901 809.66L12.5501 809.23L12.4701 809C12.4898 808.886 12.5379 808.78 12.6101 808.69C12.6817 808.599 12.7743 808.527 12.8801 808.48C12.831 808.367 12.7556 808.268 12.6601 808.19C12.5685 808.112 12.4634 808.051 12.3501 808.01C12.1201 807.91 11.8901 807.79 11.6501 807.7C11.4101 807.61 11.2001 807.58 10.9001 807.5L10.7701 806.88L10.5801 807.21L10.0801 806.88L10.2201 806.72C10.0908 806.738 9.95947 806.738 9.83011 806.72C9.54011 806.58 9.30011 806.45 9.06011 806.32C9.08366 806.22 9.08695 806.116 9.06977 806.015C9.0526 805.914 9.01531 805.817 8.96011 805.73L9.07011 805.25L8.71011 804.54L8.84011 803.8L8.59011 803.93C8.46011 803.67 8.79011 803.64 8.82011 803.41L8.65011 803.21L8.35011 803.33C8.35011 803.25 8.35011 803.22 8.35011 803.18C8.42011 802.84 8.78011 802.76 8.97011 802.51V802.12L8.41011 801.71L8.28011 801.97L8.18011 801.7L8.01011 801.83L7.83011 801.54L8.03011 800.99L8.28011 801.29L8.73011 801.21L8.47011 800.72L8.03011 800.4C7.83782 800.397 7.64606 800.421 7.46011 800.47C7.43068 800.343 7.39053 800.22 7.34011 800.1C7.27011 799.99 7.50011 799.85 7.23011 799.77C7.37287 799.761 7.51393 799.734 7.65011 799.69V799.37L7.36011 799.49C7.27011 799.02 7.36011 798.86 7.66011 798.66L7.47011 798.49L7.08011 798.76L6.87011 798.14L7.31011 798.05L6.74011 797.61L6.91011 797.35L6.78011 797.14L6.92011 796.66C6.56011 796.47 6.39011 796.1 6.03011 795.83L5.28011 795.94C5.05011 795.62 5.61011 795.49 5.50011 795.19L5.02011 794.6H4.76011V794.15L3.76011 793.95L3.60011 793.66L3.85011 793.49V793.15H3.38011C3.32011 792.91 3.08011 792.7 3.25011 792.45L3.69011 793V792.45L3.13011 792.14L2.81011 791.5C2.8594 791.416 2.90284 791.33 2.94011 791.24C2.95034 791.124 2.95034 791.006 2.94011 790.89L3.47011 791L3.69011 790.21H4.28011L4.08011 789.86L3.66011 790.03L3.82011 789.61H3.36011L3.47011 790L3.06011 790.24L3.18011 789.83L2.58011 788.67H2.93011L3.03011 788.93L3.37011 788.43L3.20011 787.59L2.74011 787.38L2.88011 787.17L2.61011 786.86L2.85011 786.74V786.56C2.73037 786.571 2.61263 786.598 2.50011 786.64V786.3L2.19011 785.9V785.65L1.94011 785.38L2.10011 785.04C2.28837 785.054 2.47546 785.081 2.66011 785.12C2.77011 784.79 2.22011 784.98 2.32011 784.6L2.42011 784.48L2.99011 784.58L3.13011 784.88V784.32L2.53011 784.1L2.66011 783.97L2.47011 783.84L2.58011 783.58L2.47011 783.2L3.27011 783.56C3.21011 783.19 2.84011 783.07 2.79011 782.71L2.96011 782.53L3.09011 782.63C3.23011 782.57 3.21011 782.47 2.91011 781.72L3.24011 781.54L3.38011 781.64L3.47011 781.37L3.64011 781.71V781.37L3.00011 780.65H2.80011L2.47011 780.17L2.28011 780.53L2.18011 780.47C2.34858 780.266 2.47745 780.032 2.56011 779.78C2.62062 779.502 2.71815 779.232 2.85011 778.98L2.46011 778.73V777.88L2.11011 778.35L1.94011 777.65L2.28011 776.97L2.36011 777.2H2.47011C2.34011 776.83 2.41011 776.4 2.02011 776.2L1.97011 775.47L1.87011 775.77L1.50011 775.45V774.98L2.01011 774.79L1.86011 774.41L2.51011 774.17C2.47011 774 2.47011 774 2.19011 773.92C2.06011 773.67 2.19011 773.55 2.39011 773.41L2.62011 773.57C2.62011 773.51 2.67011 773.45 2.62011 773.4C2.57763 773.264 2.52755 773.13 2.47011 773L2.07011 773.5H2.03011L2.18011 772.94L2.38011 772.88V772.55L1.98011 772.7C2.33011 772.33 2.50011 772.28 2.89011 772.38V772C2.77725 771.951 2.67781 771.875 2.60011 771.78C2.52312 771.683 2.46849 771.57 2.44011 771.45L2.71011 771.59L2.82011 771.35C2.96011 771.35 3.11011 771.41 3.29011 771.45C3.07011 771.06 3.21011 770.7 3.16011 770.38L3.84011 770.01L3.68011 769.49L3.80011 769.57C4.05011 769.57 4.12011 769.32 4.23011 769.2L3.96011 768.68H4.01011L3.36011 768L3.64011 767.73L3.47011 767.38L3.12011 767.32L3.32011 766.64L3.39011 767.2L3.62011 767.09H3.92011C3.84011 767 3.78011 766.96 3.78011 766.92V766.25L4.02011 766.08C3.93011 765.74 4.14011 765.48 4.26011 765.22L3.76011 764.66C3.90011 764.53 4.06011 764.41 4.22011 764.27C4.08907 763.575 3.86012 762.901 3.54011 762.27L3.67011 762H3.47011L3.19011 760.84L3.50011 760.37L3.61011 760.7L3.72011 760.36L3.65011 760.26L4.08011 759.85L4.24011 760.13H4.42011L4.28011 759.79C4.50011 759.79 4.70011 759.79 4.95011 759.79L4.87011 759.27L5.17011 759.08H4.37011L4.44011 758.99L4.25011 758.8L4.64011 758.95L5.17011 758.69L5.67011 758.82L5.73011 758.73L5.56011 758.56C5.46011 758.45 5.30011 758.56 5.19011 758.48C5.04873 758.406 4.91478 758.319 4.79011 758.22L4.39011 757.93C4.61011 757.67 4.80011 757.93 4.96011 757.93L5.32011 757.58L5.26011 757.41L4.84011 757.6L5.01011 756.83L4.83011 756.65C4.77011 755.65 4.77011 755.65 5.05011 755.13L4.90011 754.96L5.43011 754.06C5.30011 753.87 5.16011 753.65 5.01011 753.45C4.86011 753.25 5.01011 752.97 5.13011 752.6L4.70011 752.95C4.64859 752.66 4.57163 752.376 4.47011 752.1C4.47011 751.99 4.30011 751.91 4.18011 751.78L4.07011 752.08L3.78011 752V751.63L3.47011 751.29L3.84011 751.08L3.48011 750.94V750.6L3.34011 750.7L2.88011 750.29L3.00011 750.16L2.47011 749.92L2.55011 749.65L2.31011 749.05L2.82011 748.82C2.82011 748.7 2.98011 748.52 2.94011 748.39C2.90011 748.26 2.82011 748.13 2.94011 748.01C3.06011 747.89 2.94011 747.53 3.29011 747.45L3.16011 746.7L3.97011 747.01L4.03011 746.91L3.67011 746.64L3.57011 746.28L4.07011 745.9C3.95198 745.757 3.86665 745.59 3.82011 745.41C3.78502 745.228 3.78502 745.042 3.82011 744.86H3.36011L3.71011 745.04L3.51011 745.37C3.43011 745.28 3.31011 745.21 3.31011 745.14C3.32138 744.876 3.23608 744.616 3.07011 744.41C3.14831 744.299 3.19022 744.166 3.19011 744.03C3.19163 743.891 3.14969 743.754 3.07011 743.64L3.30011 743.56V743.14L3.56011 743.05L3.47011 742.84L3.74011 742.52C3.69011 742.52 3.64011 742.46 3.59011 742.52L3.02011 742.74C2.91011 742.49 3.23011 742.46 3.26011 742.3C3.29011 742.14 3.26011 741.71 3.07011 741.56C2.88011 741.41 2.91011 741.12 2.85011 740.87L2.61011 741.09L2.77011 740.18L2.97011 739.98L2.85011 739.63L3.38011 739.19V738.83L3.15011 738.61C3.38011 738.23 3.72011 737.87 3.33011 737.4L3.19011 737.51L2.99011 737.33L3.40011 737.06L3.15011 736.56C3.37011 736.41 3.43011 736.06 3.80011 736C3.55011 735.71 3.36011 736.07 3.12011 736C3.12011 735.69 3.55011 735.71 3.61011 735.44L3.27011 735.21V734.33L3.62011 733.89L3.47011 733.49L3.75011 733.31L3.47011 733.2L4.17011 732.02H4.03011L4.35011 731.7V730.92L4.66011 731.07L4.75011 730.68L5.09011 730.81L4.96011 730.19L4.59011 729.71L4.87011 729.59L4.71011 729.27C4.80011 729.05 4.96011 729.01 5.20011 729.03V728.59L5.46011 728.51V728.17L5.22011 728.28C5.22011 727.96 5.52011 727.88 5.61011 727.72L6.21011 727.49L5.47011 727.05C5.58148 726.917 5.67868 726.773 5.76011 726.62C5.82011 726.48 5.70011 726.28 5.97011 726.16L5.48011 725.76L5.97011 725.36V724.84L5.63011 724.66L6.20011 724.6L6.66011 724.28C6.54044 724.269 6.42276 724.242 6.31011 724.2C6.21011 724.2 6.25011 724.14 6.22011 724.1L6.31011 723.55L6.57011 723.42L6.42011 723.15L6.87011 722.88L7.10011 723.1H7.17011C7.22875 722.864 7.35779 722.651 7.54011 722.49C7.65011 722.38 7.75011 722.25 7.88011 722.1L6.82011 721.93V721.56C6.71011 721.56 6.60011 721.56 6.45011 721.56C6.50022 721.159 6.41956 720.752 6.22011 720.4C6.15011 720.3 6.22011 720.13 6.33011 719.9L5.84011 719.43C6.05011 719.06 5.89011 718.66 5.96011 718.25L6.44011 717.93V717.51L6.95011 717.09H7.07011L7.26011 716.09L7.55011 715.95L7.70011 716.04V715.98L7.47011 715.53L7.97011 715.31V715.15L7.66011 715.29L7.55011 714.91L8.45011 714.11V714L8.26011 714.11V713.9C8.40666 713.908 8.55356 713.908 8.70011 713.9L9.01011 713.49L9.24011 713.67C9.24011 713.61 9.31011 713.54 9.24011 713.51C9.18913 713.421 9.11703 713.345 9.03011 713.29C8.89011 713.18 8.74011 713.09 8.67011 713.04L8.52011 712.54L9.34011 712.37C9.34011 712.05 8.77011 712.09 8.72011 711.73C9.24011 711.53 9.42011 712.12 9.86011 712.17L9.73011 711.34L10.1301 711.11L9.88011 710.92L9.61011 710.7L9.78011 710.36L9.47011 710.17C9.87011 709.97 10.3501 709.94 10.6801 709.62L10.8301 709.94C10.8775 709.787 10.894 709.626 10.8785 709.466C10.863 709.306 10.816 709.151 10.7401 709.01L10.9201 708.45L11.1501 708.64C11.4201 708.84 11.6501 708.64 11.8901 708.51L11.5801 707.88C11.5201 707.88 11.4501 707.88 11.3801 707.82L11.5601 707.5C11.7065 707.512 11.8537 707.512 12.0001 707.5L11.8401 707.19C11.9591 707.18 12.0766 707.157 12.1901 707.12L12.4601 706.8C12.4326 706.749 12.4092 706.695 12.3901 706.64C12.3801 706.534 12.3801 706.426 12.3901 706.32C12.7501 706.24 12.7101 705.89 12.8201 705.65C12.8889 705.668 12.9613 705.668 13.0301 705.65V705.23L13.2901 705.13L13.0301 705C13.2901 704.79 13.2901 704.79 13.6301 704.93L13.6801 704.55L14.2501 704.25V703.84L13.8501 703.58L14.0901 703.28L14.1801 703.54C14.4501 703.45 14.4401 703.11 14.7501 702.99C15.0601 702.87 14.9201 702.49 14.9201 702.25C15.1401 701.88 15.1401 701.88 15.5901 701.69L15.8001 701.82C15.8601 701.39 15.5101 701.22 15.3701 700.9L15.2401 701.23L15.1101 700.94L15.1801 700.79L14.5801 700.33L14.4701 700.45L14.3201 699.97C14.7001 699.75 14.6301 699.29 14.7801 698.97C14.8301 698.85 14.7801 698.68 14.7301 698.51H15.1701V699.24C15.2854 698.919 15.3063 698.572 15.2301 698.24C15.2301 698.17 15.1701 698.15 15.2301 698.05C15.2901 697.95 15.3401 697.71 15.2801 697.65C14.9701 697.38 15.1301 696.97 14.9401 696.65C14.9139 696.538 14.9318 696.42 14.9901 696.32C14.9901 696.21 15.0401 696.14 14.9001 695.86C15.1501 695.86 15.4701 695.86 15.4301 695.43C15.4301 695.36 15.5501 695.2 15.6101 695.21C15.8901 695.21 16.1301 694.93 16.4201 695.12C16.5135 695.162 16.6106 695.196 16.7101 695.22L17.1301 694.93L16.5901 694.79C16.4601 694.56 16.6901 694.6 16.8401 694.51L16.6101 694.42L16.4701 693.9C16.7201 693.9 16.9101 693.9 17.1701 693.9L16.7301 693.58L16.9701 693.23L17.2501 693.42C17.2501 693.31 17.2501 693.18 17.2501 693.18C17.0001 693.18 16.9101 692.92 16.6801 692.71L17.2501 692.62L17.1501 691.98L17.6301 691.56C17.7715 691.596 17.9088 691.646 18.0401 691.71C17.8701 691.42 17.7801 691.26 17.6901 691.09C17.6001 690.92 17.4201 690.73 17.4501 690.58C17.4401 690.38 17.4401 690.18 17.4501 689.98C17.4501 689.91 17.5701 689.84 17.6401 689.75L17.7401 690.01L18.2401 689.7L18.0901 689.43L18.3601 689.34C18.3815 689.342 18.4023 689.348 18.4212 689.359C18.4401 689.369 18.4568 689.383 18.4701 689.4C18.4201 689.1 18.5501 688.84 18.3401 688.57C18.5901 688.35 18.3401 688.05 18.5101 687.76L18.6601 688.03C18.7405 688.018 18.8145 687.979 18.8701 687.92C18.922 687.863 18.9597 687.794 18.9801 687.72C18.9801 687.6 19.2201 687.55 19.3601 687.47L19.2401 687.35L19.3801 687.05C19.497 687.035 19.6113 687.005 19.7201 686.96C19.8111 686.861 19.8884 686.75 19.9501 686.63L19.5201 686.73L19.4001 686.49L19.1301 686.64L18.9001 686.29C18.7101 686.29 18.4701 686.29 18.4501 685.91H18.9301L18.9801 685.82L18.6501 685.64L19.1001 685.35L18.9601 685.19C19.2201 685.05 19.2701 685.33 19.4301 685.39L19.6301 685.11L19.4701 685L19.3101 685.08L19.0001 684.93L19.1101 684.8L18.9901 684.65L19.3701 684.41V684.12L18.7301 683.79L18.9001 683.34L18.3301 683.68L18.4901 683.4L18.1801 683.28C18.3255 683.271 18.4695 683.248 18.6101 683.21V682.91L17.9601 682.54C18.1401 682.18 18.5201 682.11 18.7701 681.91L18.6201 681.44L19.0401 681.16L18.8801 680.83L19.4201 680.42L18.8601 680.23C18.9901 680.04 19.0001 679.81 19.2501 679.79L18.9701 679.5H19.8501L20.0701 679.85C20.2401 679.64 20.0701 679.48 19.9301 679.17C20.0077 679.235 20.0915 679.292 20.1801 679.34H20.3701C20.3629 679.214 20.3288 679.091 20.2701 678.98C20.2092 678.869 20.1277 678.771 20.0301 678.69L20.6401 678.18V677.72H20.5701L20.5001 678.14L20.3201 677.8C20.3201 677.54 20.3201 677.3 20.4301 677.17C20.5401 677.04 20.4901 676.81 20.5601 676.65C20.6301 676.49 21.0901 676.3 21.2301 675.99C21.3225 676.009 21.4177 676.009 21.5101 675.99L21.6301 675.56L21.2701 675.31L21.4701 675L21.3001 674.5C21.2391 674.506 21.1783 674.488 21.1301 674.45C21.1179 674.434 21.1114 674.415 21.1114 674.395C21.1114 674.375 21.1179 674.356 21.1301 674.34C21.1858 674.133 21.2699 673.934 21.3801 673.75C21.5687 673.426 21.739 673.093 21.8901 672.75C22.0801 672.39 22.2901 672.04 22.5001 671.67C22.372 671.66 22.245 671.64 22.1201 671.61L22.2501 671.28H21.9201V670.73L22.0901 670.49L22.3601 670.66V670.23L21.9801 669.86L22.1201 669.67L21.6301 669.26L21.9701 669.12L21.8801 669L22.4501 668.21L22.8501 668.33L23.0501 667.33L23.2501 667.26L23.0801 666.91L22.9401 667.04L22.6301 666.44V665.93L22.9401 665.64C23.1201 665.86 23.2501 665.74 23.3901 665.54C23.1901 665.54 22.9901 665.54 22.7501 665.48V664.93H22.6801L22.5701 665.16L22.3901 664.84L22.6501 664.58C22.1601 664.58 22.3401 664.08 22.0001 663.89C22.0009 663.986 22.0213 664.082 22.0601 664.17C22.2101 664.37 22.0601 664.51 21.9001 664.69V664.42C21.9201 664.204 21.9201 663.986 21.9001 663.77L21.6901 663.95V663.65C21.7801 663.37 22.2301 663.46 22.2001 663.06C22.1233 663.108 22.0387 663.142 21.9501 663.16H21.6101C21.5201 663 21.6101 662.72 21.3001 662.66C21.0942 662.6 20.8935 662.523 20.7001 662.43V662L20.9901 661.89L20.6501 661.71L20.8701 661.4L20.5401 661.28H20.4901L20.2301 660.88L20.1101 661.21C20.0914 661.132 20.068 661.055 20.0401 660.98C19.9987 660.925 19.9518 660.875 19.9001 660.83C20.0249 660.821 20.1487 660.801 20.2701 660.77C20.2701 660.4 19.8201 660.36 19.7001 660.1L20.3601 659.93L19.8301 659.46L20.2001 659.22V659.03L19.5301 658.35L19.7201 658.02C19.6001 657.86 19.3901 657.73 19.4201 657.46C19.4501 657.19 18.9801 657.4 19.0901 657.02L19.4601 657.16L19.2901 656.77C19.0901 656.98 18.9801 656.69 18.7301 656.86L18.8901 656.27L18.6101 655.6L18.9301 655.48L18.8401 654.93L19.0401 654.74V654.23L18.7401 653.92C18.8325 653.75 18.887 653.563 18.9001 653.37C18.9109 653.176 18.8802 652.981 18.8101 652.8L18.7601 653.43H18.6901V652.71L19.1801 652.28L19.0401 652.1L19.5201 651.72L19.0301 651.49L19.4201 651.22C19.2574 651.201 19.0968 651.168 18.9401 651.12L19.5101 650.85L19.6601 651.09C19.6994 651.174 19.7329 651.261 19.7601 651.35L19.8201 651.14C19.7785 650.905 19.8135 650.663 19.9201 650.45H19.7201L19.6401 650.93L19.3701 650.34C19.2573 650.341 19.1453 650.321 19.0401 650.28C19.3501 649.98 19.4601 649.53 19.9501 649.4V648.97L19.5501 649.35C19.3701 649.14 19.6301 648.79 19.2801 648.73L18.9701 649.07V649.34L18.7801 649.18L18.7201 649.54H18.6301L18.5501 648.99L18.8101 648.73L18.9301 648.84L19.5001 648.32L19.6601 647.94L19.2701 648.08L19.1201 647.78L19.1901 647.69L19.1001 647.4C19.0899 647.284 19.0899 647.166 19.1001 647.05L18.7801 647.35L18.6501 647.21C18.4801 646.96 18.6501 646.76 18.7501 646.53L19.1601 646.29L18.8501 646.13L19.0201 645.28L18.3801 645.62C18.2201 645.53 18.1401 645.46 17.9901 645.37C18.1109 645.317 18.225 645.25 18.3301 645.17C18.3866 645.082 18.4335 644.988 18.4701 644.89L18.9401 644.98V645C18.8625 644.982 18.7883 644.951 18.7201 644.91L18.6701 644.47H18.3301L18.1301 643.96L17.9901 644.07L17.8801 643.83L17.7701 643.92L16.7701 643.5V643C16.6711 643.019 16.5692 643.019 16.4701 643C16.5901 642.75 16.6401 642.52 16.2801 642.39L16.0901 642.52L16.0301 642.32C16.1588 642.31 16.2861 642.286 16.4101 642.25V641.61L16.7901 641.23L17.2601 641.48C17.5801 641.14 17.5101 640.62 17.8301 640.21L17.6101 640.14V639.83L17.1901 639.47L17.3701 639.18L16.9601 638.71C17.0801 638.35 16.7201 638.16 16.5901 637.83L16.8201 637.21C16.6622 637.202 16.5051 637.182 16.3501 637.15C16.2801 636.85 16.4801 636.65 16.6401 636.43L16.8101 636.58L17.1301 636.36C17.0392 636.258 16.9893 636.126 16.9901 635.99C16.9911 635.854 17.0408 635.723 17.1301 635.62L16.7001 635.47V635.35C16.8901 635.35 17.0501 635.1 17.2601 635.29L17.4701 635.09L17.3301 634.85L17.5301 634.65L17.3501 633.96H17.4601L17.0701 633.56L16.9601 633.78V633C17.2101 633 17.4501 632.66 17.7701 632.94L17.9401 632.43C17.6801 632.23 17.9401 631.84 17.6901 631.58C17.7109 631.406 17.7617 631.237 17.8401 631.08C17.9212 630.925 18.0336 630.789 18.1701 630.68L17.5801 630.78C17.6101 630.369 17.7116 629.966 17.8801 629.59L18.0301 629.72L18.2801 629.29L17.9901 629.44C17.9901 629.44 17.9401 629.35 17.9901 629.33C18.0656 629.241 18.1358 629.147 18.2001 629.05C18.2363 628.922 18.2631 628.792 18.2801 628.66L18.5701 628.83C18.5701 628.78 18.6301 628.68 18.5701 628.67L17.7401 628.11L18.0501 628.81H17.7501C17.4601 628.51 17.6101 628.2 17.7501 627.81H18.0101L18.3601 627.43L18.2701 626.79L18.3801 626.07L18.0801 625.85L18.4601 625.11L18.2501 624.73C18.2501 624.45 18.5601 624.41 18.7101 624.24L18.5601 623.97L18.8401 623.88V623.62L19.5101 622.99L19.2501 622.8L19.0601 623.07L18.7301 622.58L18.8201 622.49L18.5901 622.06C18.6557 622.077 18.7245 622.077 18.7901 622.06L18.8701 621.84L19.3201 622.07V621.66L20.0901 620.91V620.26C20.3001 620.26 20.3201 620.26 20.4201 620.46L20.5401 620.21L20.7801 620.38L20.9601 619.88C20.6401 619.56 21.2201 619.21 20.9601 618.88H20.3501L20.5701 618.05L20.8501 618.67C20.8999 618.379 20.92 618.085 20.9101 617.79L21.2801 617.54L21.4701 617C21.7501 617 21.6801 616.67 21.8701 616.57L21.7801 616.48L21.6001 616.59L21.4701 616C21.5701 615.92 21.6601 615.73 21.9301 615.7V615.23L22.2201 615.38L22.5701 614.69C22.4914 614.543 22.46 614.375 22.4801 614.21C22.4868 614.107 22.5104 614.005 22.5501 613.91C22.6101 613.79 22.6101 613.65 22.6601 613.53C22.7101 613.41 22.5801 613.29 22.4901 613.07C22.8222 613.11 23.158 613.11 23.4901 613.07C23.3401 612.86 23.3501 612.56 23.0001 612.49L22.9201 612.75L22.5701 612.58V612.31L21.7201 611.78L21.5701 611.9V611.3H21.6301L21.6801 611.48V611.7L21.9101 611.28L21.4101 610.74L21.5401 610.29C21.6287 610.267 21.713 610.229 21.7901 610.18C21.711 610.171 21.6336 610.151 21.5601 610.12C21.5101 609.64 21.0501 609.44 20.7501 609.06V608.41L20.1301 608.13V607.29L20.4701 606.79L20.6601 605.59L20.2601 605.74V605.57L20.5901 605.41L20.8701 605.56V604.77L21.2201 604.21L21.3301 604.48L21.6701 603.61C21.9701 603.76 22.1401 603.56 22.3901 603.54L22.6301 603.62L22.5201 602.94L22.8901 603.08L22.9701 602.88L23.1601 602.97V602.77C23.0281 602.76 22.8975 602.736 22.7701 602.7L23.1901 602.21L23.1301 602.12L22.9201 602.24L22.5701 602.08L22.2701 601.19L22.7601 600.84L22.4001 600.69L22.5001 600.56L22.3701 600.34L22.7801 599.91C22.7001 599.91 22.6301 599.85 22.5101 599.81L22.9001 599.42V599.18L22.3401 598.86L22.4401 598.3H22.3701L22.1701 598.59L21.9501 598.92C21.7101 598.74 21.7001 598.72 21.6501 598.46L21.3301 598.3C21.3301 598.3 21.2601 598.37 21.2801 598.3L20.9601 598.18V598L21.2801 597.88L21.4701 597.98C21.4997 597.917 21.5167 597.849 21.5201 597.78C21.5109 597.704 21.4906 597.63 21.4601 597.56L21.3701 597.34C21.1501 597.34 20.9001 597.34 20.8901 596.95C21.1301 596.95 21.3701 596.84 21.5801 597.04L21.9001 596.88C21.8561 596.847 21.8188 596.807 21.7901 596.76C21.7854 596.69 21.7854 596.62 21.7901 596.55C21.6407 596.565 21.4932 596.595 21.3501 596.64C21.3501 596.64 21.3501 596.58 21.3501 596.56C21.4801 596.38 21.4601 596.08 21.7901 596.05C21.7901 596.05 21.8701 595.9 21.9601 595.71V596.41H22.0701L22.1301 595.81L22.3801 595.94L22.2201 595.42C22.3301 595.16 22.7601 595.07 22.5601 594.68L22.4301 594.78C22.4301 594.61 22.4301 594.6 22.5501 594.43L22.6601 594.53L23.0901 594.23L23.1901 593.71L22.3701 593.52L22.7101 593.04C22.8986 593.062 23.0856 593.096 23.2701 593.14L23.0001 592.7L23.6201 592.15L23.4701 592L23.2901 592.15C23.2699 592.075 23.2648 591.996 23.2751 591.919C23.2854 591.842 23.3109 591.767 23.3501 591.7C23.4223 591.561 23.5435 591.454 23.6901 591.4C23.4407 591.165 23.2637 590.863 23.1801 590.53L23.2901 590.4C23.1801 590.2 22.8701 590.09 22.9001 589.68L23.2101 590.07L23.7701 589.95L23.9601 589.28V589.41C24.0505 589.5 24.1189 589.609 24.1601 589.73V589.81H24.2301C24.2801 589.81 24.3201 589.81 24.3301 589.81C24.3401 589.81 24.5001 589.49 24.6201 589.47C24.6845 589.456 24.7414 589.418 24.7801 589.365C24.8188 589.311 24.8366 589.246 24.8301 589.18L25.1801 589.37V588.96C25.0507 588.978 24.9195 588.978 24.7901 588.96C24.8901 588.56 24.6201 588.2 24.6601 587.79C24.7001 587.38 24.6601 586.96 24.6601 586.59L24.5101 586.3C24.6501 586.18 24.6601 586.3 24.7201 586.3C24.7201 586 24.7201 586 23.9301 585.65L23.8101 585.21L23.9701 584.9H24.0201V584.84C24.3401 584.75 24.5101 584.42 24.6901 584.12L24.5101 583.94H24.0901L24.0301 583.82C24.0503 583.685 24.0907 583.553 24.1501 583.43L24.3801 583.28L24.8301 583.62L24.9201 583.72L24.8201 583.63C24.8201 583.31 24.5401 583.12 24.3901 582.87L24.2501 583C24.2501 582.83 24.4001 582.65 24.1801 582.53L24.4101 582.3L24.2901 582.04H24.3601L24.7201 581.81L25.7201 581.66V581.57C25.6176 581.509 25.5106 581.455 25.4001 581.41L25.4501 581.33L25.1901 580.53C25.3801 580.53 25.6101 580.42 25.8701 580.65L25.9301 580.14H26.4701L25.1501 579.39L25.0801 579.23C25.2302 579.194 25.3661 579.114 25.4701 579H25.0701L25.0101 578.84V578.76L24.8901 578.54L24.8401 578.29C24.9201 578.29 25.0101 578.29 25.1001 578.29L25.0001 578.09H25.1801L25.3501 578.44V578.04L25.0801 577.76L25.4801 577.51L25.1901 577.41L25.4301 576.41H25.3601L25.8501 575.76L25.7301 575.65L26.0201 575.32L25.7601 575.14C25.7601 575.02 25.5901 574.89 25.6001 574.71H25.6901V574.64L25.9101 574.75L25.7601 574.38C25.8063 574.37 25.854 574.37 25.9001 574.38L26.0701 574.23L25.8701 574.1L26.0401 573.66L27.0401 573.21L27.2001 573.54L27.2801 573.28H27.7301L27.7901 572.9L28.0001 573.01V572.67C28.5201 572.67 28.2901 572.12 28.6401 571.97L28.5501 571.85L28.7101 571.52L28.8701 571.66V571.31L29.7401 570.95L29.2601 570.86V570.57L29.5701 570.41L29.6801 570.51L29.8901 570.31L29.0901 569.85L29.6601 569.62L29.5301 569.47C29.5522 569.372 29.6006 569.282 29.6701 569.21C29.7367 569.139 29.8188 569.084 29.9101 569.05L29.5101 568.44C29.6215 568.359 29.7284 568.273 29.8301 568.18L29.9201 568.74H29.9901C29.949 568.572 29.949 568.397 29.9901 568.23C30.0402 568.167 30.0714 568.09 30.0801 568.01C30.0832 567.931 30.0584 567.853 30.0101 567.79V567.79C30.0678 567.69 30.1116 567.582 30.1401 567.47C30.1415 567.3 30.1685 567.132 30.2201 566.97L30.3101 567.33L30.5101 567.26C30.4601 567.03 30.7201 567.11 30.7701 567.02L30.5901 566.69L31.0301 566.86L30.9501 566.48L31.0501 566.32L30.7601 565.8L31.1201 565.92C31.2401 565.92 31.2101 565.82 31.2701 565.77V565.35C31.2001 565.35 31.1401 565.35 31.0201 565.29L31.1601 565.12L30.9901 564.6L31.4701 564.37C31.5252 564.232 31.5252 564.078 31.4701 563.94C31.404 563.802 31.2905 563.692 31.1501 563.63V563L31.5901 562.84L31.5101 562.41L31.3901 561.93C31.5501 561.83 31.8501 561.93 31.9001 561.57L31.6901 561.48V561.33C31.8126 561.113 31.9567 560.908 32.1201 560.72C32.2902 560.576 32.4785 560.455 32.6801 560.36L32.1901 559.97L32.5801 559.41L32.4601 559L32.8901 558.77L32.3901 558.66L32.2901 558.18L32.2001 558.67H31.8901L31.8301 558.5L32.1001 558.38L32.0201 557.78L32.3201 557.92L32.4601 557.74C32.3301 557.59 32.2601 557.41 32.4601 557.26L32.2001 556.9C32.2077 556.904 32.2163 556.907 32.2251 556.907C32.2339 556.907 32.2425 556.904 32.2501 556.9C32.2501 556.9 32.2501 556.9 32.2501 556.9L32.5101 557.02L32.6301 556.75L32.5101 556.51L32.8801 556.22C32.8714 556.088 32.8479 555.957 32.8101 555.83C32.7201 555.6 32.5401 555.39 32.6601 555.09C33.2301 555.19 33.1301 554.53 33.4601 554.42L33.6501 553.86L33.2501 553.78L33.4001 553.58L33.1501 553.2L33.0901 552.9L33.2801 552.53L33.0201 552.33L33.1201 552.24L33.0301 552.34H32.8901L33.0301 551.86L32.7301 551.67C32.7901 551.6 32.8101 551.53 32.8301 551.53C33.0501 551.53 33.3001 551.58 33.4001 551.29C33.3501 550.99 33.0501 551.08 32.8901 550.98V550.81C33.0078 550.796 33.1246 550.776 33.2401 550.75L33.1101 550.58L33.4901 550.34V550L33.5801 549.93L33.9301 550.11L34.2201 549.9H33.7501C33.8001 549.75 33.8601 549.64 33.9101 549.51H34.4701V549.17L34.8901 549.09L34.7601 548.54H35.1201V548.3L34.9501 548.41L34.7001 548.29L35.0801 547.92L35.1801 548.17L35.2501 548.11V548.49L35.5901 548.66L35.7201 548.37L35.6001 547.94L35.8201 548.22L36.1101 548.07L36.1701 548.44L36.7401 548.28L36.6501 547.86L36.9401 547.76L36.7901 547.47L36.9401 546.99L36.7101 546.92L36.5301 545.92H36.2801V545.57L36.4001 545.49L36.5401 545.56L36.9501 545.16L37.6401 545.46L37.8701 545.06L38.0401 545.34C38.1296 545.292 38.2234 545.251 38.3201 545.22H38.7101L37.9401 544.62C38.4301 544.62 38.7901 544.52 38.9401 544.95H39.3101L38.8001 543.95H38.4701L38.7001 543.5L38.4701 543.25L38.7601 543.11C38.6401 542.91 38.4201 542.86 38.2001 542.75L38.4501 542.67V541.96H38.1301L38.0501 541.73H37.2201V541.35C37.4601 541.29 37.3001 541.1 37.3501 540.97C37.4001 540.84 37.4501 540.84 37.4801 540.76H37.6801H37.5001L37.6001 540.45H37.6701C38.0101 540.45 37.9401 540.78 38.0901 541.01V540.37L37.8601 540.19H37.8001V540.06L37.7101 539.97C37.762 539.913 37.7997 539.844 37.8201 539.77L37.4701 539L37.8201 538.62L37.6501 538.53H37.9401V538.45L37.7201 538.36C37.7201 538.16 37.6501 537.96 37.6301 537.75C37.6699 537.609 37.6699 537.461 37.6301 537.32C37.64 537.218 37.6707 537.12 37.7201 537.03L37.4201 536.68L37.5601 536.41L37.6601 536.32L37.5701 536.42L37.4101 536.23C37.5158 536.236 37.6215 536.219 37.7201 536.18C37.2701 535.92 37.3401 535.47 37.1501 535.12L37.2301 534.89L37.8501 534.64L37.7701 534.58V534.53C37.7031 534.517 37.6409 534.486 37.5901 534.44H37.5101L37.6601 534.14C37.5374 534.152 37.4165 534.179 37.3001 534.22V533.98L37.6901 533.56L37.4201 533.43L37.3001 533.49V533.3C37.4043 533.281 37.5052 533.247 37.6001 533.2L37.2901 533.04L37.6701 532.3L37.5401 532.16L38.0501 531.6V531.13L37.8901 531.25C37.3301 531.15 37.4101 530.54 36.9601 530.25L37.3801 529.92L37.5601 530.29L37.7901 529.73L38.3101 529.87C38.3101 529.68 38.6401 529.54 38.3801 529.31L38.5801 528.7L38.4501 528.37L38.7801 528.02L38.6401 527.84C38.7101 527.64 38.8701 527.62 39.1101 527.65V528.13H39.2401C39.5001 527.88 39.4701 527.53 39.6401 527.27L39.5601 527.19L39.4301 527.3V526.92L40.1501 526.72L39.8801 526L40.2801 526.18C40.2747 526.113 40.2747 526.047 40.2801 525.98C40.0101 525.9 40.0001 525.59 39.7501 525.45L40.0601 525.34L39.7901 525.01V524.86C39.7947 524.745 39.767 524.63 39.7101 524.53L39.6101 524.77C39.5344 524.788 39.4558 524.788 39.3801 524.77L39.5601 524.57H39.1701L38.8101 523.65L39.2401 523.39V523.14L39.6001 522.78L39.9001 522.23L39.4501 521.39L39.1201 521.19L39.4301 521.05L39.2601 520.71L39.5401 520.4C39.495 520.321 39.4582 520.237 39.4301 520.15C39.5601 520.05 39.4301 520.01 39.4301 519.93C39.3899 519.858 39.3596 519.78 39.3401 519.7L39.4401 519.31C39.2801 519.23 39.1701 519.16 39.0501 519.09C39.1181 518.986 39.1543 518.864 39.1543 518.74C39.1543 518.616 39.1181 518.494 39.0501 518.39L39.3401 518.13V518.03C39.3907 518.002 39.4377 517.969 39.4801 517.93C39.4801 517.93 39.4801 517.78 39.4801 517.7C39.5161 517.71 39.5541 517.71 39.5901 517.7C39.6264 517.681 39.6574 517.654 39.6801 517.62C39.6856 517.584 39.6856 517.546 39.6801 517.51C39.6903 517.471 39.6903 517.429 39.6801 517.39H39.8401L39.6601 517.3H39.5901L39.3701 517.19C39.5082 517.171 39.6451 517.145 39.7801 517.11C39.3701 516.97 38.9701 516.97 38.8701 516.55H38.7301L38.9001 516.41C38.6701 516.24 38.7601 516.06 38.7601 515.81L39.0601 516.21H39.1301L39.0601 515.77L39.3401 515.63L39.4101 515.86C39.5301 515.81 39.5801 515.71 39.6901 515.62C39.8001 515.53 39.9801 515.62 40.1501 515.62V515.38L39.9901 515.5L39.9201 515.44C39.7901 515.3 39.9201 515.12 39.8201 514.96C39.7904 514.872 39.7904 514.778 39.8201 514.69C39.8312 514.598 39.8695 514.511 39.9301 514.44C40.0201 514.32 39.9301 514.08 39.9301 513.89C39.9473 513.781 39.9741 513.674 40.0101 513.57L39.7601 512.94H39.8401L40.0101 513.05V512.75L40.1301 512.87V512.47C40.008 512.459 39.8873 512.436 39.7701 512.4V512.07H40.2401V510.86H40.0501L39.9101 510.41L40.1301 510.31V510.74H40.3701C40.3033 510.537 40.2695 510.324 40.2701 510.11C40.3615 509.909 40.4792 509.72 40.6201 509.55C40.5072 509.564 40.393 509.564 40.2801 509.55V509.9C40.1911 509.881 40.0992 509.881 40.0101 509.9L40.1801 509.5L39.6101 509.58L39.4501 509.43L39.8801 508.59L39.3701 508V507.9H39.2101L39.6401 507.8L39.2901 507.39V507.15C39.2071 507.199 39.127 507.252 39.0501 507.31L38.9601 507.23L39.2401 506.85L38.7801 506.72L38.7001 506.91L38.6001 506.86L39.0801 506.41C39.0101 506.21 38.9801 506.06 38.8301 506.04C38.9806 505.913 39.1491 505.808 39.3301 505.73L39.1901 505.43C39.3901 505.13 39.3101 504.67 39.6601 504.43C39.6601 504.3 39.5401 504.14 39.5801 504.06C39.6205 504.009 39.6417 503.945 39.6401 503.88C39.6402 503.818 39.619 503.758 39.5801 503.71L39.8501 503.2L39.6501 502.81L39.3801 502.94L39.1601 502.73L38.7201 502.63L39.3301 502.21H39.0101L38.8601 501.88H38.9301C39.0093 501.894 39.0865 501.918 39.1601 501.95L39.7301 501.55L39.5701 501.23L39.9401 500.85L40.1801 500.99C40.1801 500.93 40.1801 500.85 40.1801 500.81C40.0753 500.667 39.9617 500.53 39.8401 500.4H40.4101V500.7C40.4601 500.7 40.8601 500.42 41.0401 500.14C40.9081 500.13 40.7775 500.106 40.6501 500.07V499.73C40.7704 499.743 40.8882 499.774 41.0001 499.82V499.37L40.7801 499.49L40.6001 498.84L40.8201 498.62L40.9901 498.77V498.21L41.3001 498.33L41.4901 498.15L41.4701 497.8L41.6301 497.64C41.7901 497.83 41.9401 497.64 42.0901 497.64C42.2401 497.64 42.2901 497.25 42.4601 497.07C42.6095 497.032 42.7564 496.986 42.9001 496.93L43.0801 495.93L42.9701 495.85H43.0301L43.1201 495.96C43.2401 495.89 43.3701 495.83 43.5201 495.76L43.3401 495.36C43.5178 495.35 43.6948 495.33 43.8701 495.3V494.59H43.1201L43.0501 494.15L42.6101 494.44L41.8401 493.68L41.7601 493.78L41.1501 493.41L41.3401 492.99C41.5801 492.86 41.9101 492.84 41.9701 492.48C42.0801 492.38 42.3001 492.56 42.3201 492.33L42.5601 492.19C42.5208 492.113 42.4874 492.032 42.4601 491.95C42.4501 491.874 42.4501 491.796 42.4601 491.72H42.0701C42.0701 491.64 42.0701 491.57 41.9201 491.56C42.0605 491.507 42.2102 491.483 42.3601 491.49L42.2001 491.29L42.7301 490.92L42.5701 490.56C42.7801 490.38 42.9301 490.56 43.0901 490.56V489.96H43.0101L42.9101 490.25L42.9901 490.34H42.6001V489.88L42.7601 489.72L42.8701 489.8L43.2001 489.66C43.2001 489.54 43.3301 489.38 43.1001 489.34C43.0799 489.251 43.0799 489.159 43.1001 489.07C43.1215 488.982 43.1625 488.9 43.2201 488.83L43.0901 488.7L42.7501 488.47L42.5201 488.78L42.2701 488.71H41.9701C41.9701 488.47 41.9001 488.27 42.1101 488.12L42.2401 488.32H42.8101V487.96C42.8918 488.01 42.9791 488.05 43.0701 488.08H43.3901C43.4624 487.999 43.5169 487.903 43.5501 487.8C43.5746 487.691 43.5746 487.579 43.5501 487.47C43.5501 487.47 43.4801 487.41 43.4701 487.38C43.4113 487.314 43.3578 487.244 43.3101 487.17C43.1801 487.17 43.0601 487.23 42.9301 487.24C42.8003 487.25 42.6699 487.25 42.5401 487.24V486.98L42.7501 487.15V486.6L42.9601 486.7L43.0601 486.6L43.3601 486.88L43.6401 486.22L43.7401 486.13L43.6501 486.23L43.2301 486.03L42.7501 486.13L43.2001 485.61L43.3201 485.71L43.5401 485.61H43.8301L43.3901 485.24C43.3077 485.238 43.2263 485.222 43.1501 485.19V485.05C43.3601 484.85 43.5201 485.05 43.7101 485.12L43.9201 484.93C43.9201 484.68 44.0201 484.37 43.8201 484.17L43.9501 483.46L43.6901 483.61V483H44.3201C44.2601 482.85 44.1501 482.79 44.0801 482.7C44.0101 482.61 44.2901 482.44 44.0201 482.29L44.4001 482.12C44.1301 481.94 44.1901 481.77 44.1801 481.61C44.1301 481.61 44.0901 481.61 44.0201 481.53L44.5901 480.79L44.3301 480.7L44.4601 480.51L44.2201 480.04L45.0601 479.54L44.6901 479.21C44.7475 479.162 44.7921 479.1 44.8201 479.03L44.6501 478.5H44.4601V478.12L44.7901 478.25L44.9601 478.11C44.8971 478.018 44.8498 477.917 44.8201 477.81C44.8201 477.66 44.7701 477.48 44.9301 477.37C44.7901 477.26 44.8201 477.18 44.9301 477.01C45.0401 476.84 44.9301 476.66 44.9301 476.46H45.0901V476.07L44.7601 476.2V476.02C44.8603 476.003 44.9578 475.973 45.0501 475.93L44.6801 475.66L44.8001 475.43L44.5201 475.29L44.7401 475.01V474.66L44.5701 474.8L44.3901 474.56L44.3101 474.67H44.2601L44.3701 474.59C44.4401 474.45 44.5201 474.32 44.5801 474.18C44.6401 474.04 44.6901 473.9 44.9501 473.95L44.4501 473.34L44.8201 472.89C44.7088 472.884 44.5983 472.867 44.4901 472.84L44.7701 472.62L44.6001 472.35L44.8601 471.87L44.6201 471.7V471.5L44.4001 471.43L44.2601 470.79L44.3801 470.51L44.3101 470.46L43.9801 470.74V470.35H44.1701L44.3101 470.08C44.3047 469.93 44.2778 469.782 44.2301 469.64C44.2301 469.5 44.1501 469.53 44.1101 469.48C44.1399 469.22 44.2603 468.98 44.4501 468.8L44.3101 468.46L44.6701 468.64C44.6889 468.569 44.7123 468.498 44.7401 468.43L44.8601 468.29C44.5801 468.23 44.5701 467.91 44.3501 467.78C44.1301 467.65 43.9701 467.5 43.7901 467.36L43.6401 467.48L43.5601 467.26L43.2001 467.16C43.2158 467.108 43.2358 467.058 43.2601 467.01C43.3601 466.92 43.5801 467.1 43.6001 466.86H43.2501C43.1701 466.57 43.4301 466.53 43.5201 466.37L43.9601 466.62L44.0201 467.01L44.4801 466.81V466.53C44.6901 466.38 44.9101 466.22 45.1301 466.04L44.7401 465.84H44.0601C44.2135 465.735 44.3347 465.59 44.4101 465.42C44.4906 465.256 44.5185 465.071 44.4901 464.89C44.6221 464.898 44.7543 464.881 44.8801 464.84L44.6101 464.51H45.2501L45.7501 464.16C45.4001 464.07 45.2601 463.78 45.1001 463.41L45.3801 463.26V462.48H45.7601C45.7089 462.397 45.6486 462.32 45.5801 462.25C45.4301 462.13 45.2601 462.04 45.0601 461.9L45.5401 461.38C45.3301 461.38 45.1901 461.29 44.9701 461.29C44.7937 461.262 44.6241 461.201 44.4701 461.11V460.63H44.1701L43.9101 460.37L43.7101 459.73H43.3401L43.5501 459.31L43.3601 459.03C43.2544 459.114 43.1602 459.211 43.0801 459.32C43.0213 459.467 42.9712 459.617 42.9301 459.77L42.7001 459.55L42.9501 459.29C42.7801 459.24 42.6101 459.17 42.3801 459.11L42.5501 458.9C42.4141 458.889 42.2799 458.862 42.1501 458.82L42.3401 458.26L42.4901 458.39L42.5701 458.17C42.7301 458.04 43.0501 458.29 43.1301 457.83V457.38H42.6401C42.7301 457.12 42.9501 457.18 43.0901 457.11C43.2463 456.999 43.3875 456.868 43.5101 456.72L43.7401 456.89L43.9601 456.55C44.1701 456.48 44.3901 456.39 44.6401 456.29C44.8101 456.38 44.8101 456.38 45.0001 456.29L45.0801 456.52L45.5101 456.34L45.2401 456.05L45.4501 455.77V455.83L45.8001 455.5L45.5901 455.29C45.5901 454.97 46.0201 455.1 46.0801 454.78L45.9801 454.4L45.7801 454.01L45.9701 453.8L46.5001 453.92L46.3501 453.53C46.4128 453.542 46.4774 453.542 46.5401 453.53L46.6101 453.89H46.9101V453.83C46.5101 453.34 46.4901 453.3 46.6801 452.71C46.6081 452.703 46.5374 452.687 46.4701 452.66L46.4101 453.21L46.2101 453.02C46.2475 452.952 46.2809 452.882 46.3101 452.81C46.3201 452.734 46.3201 452.656 46.3101 452.58C46.3887 452.568 46.4659 452.548 46.5401 452.52V451.2C46.4001 451.2 46.2401 451.2 46.0701 451.2V450.83C46.1846 450.822 46.2983 450.806 46.4101 450.78C46.4101 450.54 46.4801 450.33 46.2401 450.19L46.1001 450.31C45.9401 450 46.2301 449.84 46.2701 449.58C46.2636 449.571 46.2601 449.561 46.2601 449.55C46.2601 449.539 46.2636 449.529 46.2701 449.52C46.2414 449.124 46.1879 448.73 46.1101 448.34C46.1101 448.34 46.1801 448.24 46.2201 448.19L46.2701 448.43H46.3501V448.19H46.2701L46.1701 447.99L46.3201 447.69L46.4701 447.83L46.5401 447.59H46.0801L45.8401 447.3L45.6301 447.56L45.4201 447.4L45.5001 446.96H45.4701L45.2001 447.36C45.2001 447.13 45.1001 446.94 45.3401 446.74L44.9601 446.38C45.4101 446.3 45.7301 445.9 46.1801 445.74H45.7701L45.5601 445.36L45.7101 444.92L45.4101 444.68C45.5801 444.34 45.5801 444.34 45.4101 443.99L45.8001 443.76L45.7001 443.36L45.8901 443.03L45.7901 442.93L45.9201 442.69L45.6301 442.37L45.8101 442.03L45.4901 441.93L45.8101 441.69L46.3201 440.8C46.1529 440.65 46.0316 440.456 45.9701 440.24C45.9101 440.05 45.5701 439.99 45.6701 439.68L45.2801 439.43V439.1C45.5301 438.96 45.5001 438.71 45.5701 438.49C45.6914 438.479 45.8118 438.459 45.9301 438.43L45.7801 438.26C45.8456 438.248 45.9095 438.228 45.9701 438.2L46.1301 438.54V437.91L46.4501 437.69L46.1201 437.53C46.3301 437.39 46.3601 437.09 46.6301 436.98C46.6358 436.913 46.6358 436.847 46.6301 436.78C46.5236 436.831 46.4201 436.887 46.3201 436.95C46.3088 436.804 46.2606 436.663 46.1801 436.54H46.3001C46.3001 436.54 46.2201 436.54 46.2001 436.54C46.341 436.509 46.4655 436.427 46.5501 436.31L45.8101 436.1V435.76L46.0901 435.9C45.9201 435.5 45.8901 435.14 45.5201 434.83V435.33C45.2701 435.42 45.1001 435.33 44.8901 435.1H45.0101C45.1901 435.1 45.1701 435.02 45.1101 434.93L45.0301 434.8C45.1132 434.81 45.1971 434.81 45.2801 434.8V434.71H45.0301V434.81C44.8201 434.81 44.9001 434.62 44.9201 434.53C44.9372 434.263 44.8927 433.997 44.7901 433.75L44.9301 433.59L44.6701 433L44.1801 433.15L43.9101 432.6L43.7801 432.93L43.3901 432.68C43.7801 432.38 43.7401 431.8 44.3101 431.68L44.4101 431.77C44.6201 431.58 44.4101 431.07 43.9501 430.82L44.0601 430.56L43.7301 429.93L44.0301 429.71L43.7201 429.6V429.37L43.8901 429.52L44.0201 429.38C43.9101 429.08 43.9101 429.08 43.7201 428.97V428.66L44.1001 428.81L43.9301 428.47L44.2701 428.31C44.0922 428.303 43.915 428.283 43.7401 428.25C43.6907 428.039 43.6169 427.834 43.5201 427.64H43.5701C43.6401 427.64 43.6901 427.64 43.6901 427.57C43.6742 427.405 43.7054 427.238 43.7801 427.09C43.8531 426.938 43.9632 426.808 44.1001 426.71C43.9581 426.695 43.8176 426.668 43.6801 426.63L44.0001 425.63H44.1401L43.9701 424.48L44.2601 424.27C44.0401 424.11 44.1401 423.71 43.7401 423.81V423.36L44.0701 423.2L44.3101 424.2C44.3601 424.03 44.3601 423.85 44.3101 423.68C44.2661 423.51 44.1721 423.356 44.0401 423.24V423.12C44.0401 423.07 44.1501 423.02 44.1401 422.97C44.1117 422.848 44.068 422.731 44.0101 422.62H43.4701L43.9901 422.29C43.8514 422.28 43.7141 422.257 43.5801 422.22L43.6901 422.09L43.3201 421.31L43.4701 421L43.2201 420.89L43.0301 420.33L43.3101 420.22V419.45L43.5501 419.4L43.4301 419.25L43.7501 419.06L43.2601 418.71L43.6601 418.08L43.5401 417.95L43.1001 418.05C42.9901 417.77 43.0301 417.46 42.6801 417.37V417H42.9201C42.9694 416.853 43.0095 416.702 43.0401 416.55C43.0601 416.384 43.0601 416.216 43.0401 416.05L43.3201 415.95L43.1801 415.46L43.3501 415.19L43.0401 415.09L43.1101 414.66L42.5501 414.49L42.4901 414.87L42.3201 414.77C42.2501 414.84 42.1501 414.92 41.9901 415.05L42.0801 414.49L41.9501 414.25L41.6201 414.43C41.5401 414.55 41.7801 414.9 41.3301 414.99L40.9801 414.69L41.3201 414.52L41.4601 414.63L41.5201 414.42C41.3846 414.406 41.2507 414.379 41.1201 414.34V414.12C41.3501 414.07 41.2201 413.91 41.2201 413.77H40.9001L40.8401 413.39H40.4701L40.2901 413.04C40.4252 413.023 40.5589 412.996 40.6901 412.96L40.4701 412.77L40.0601 412.99L40.0101 412.69L39.6301 412.46L39.7801 412.3L39.2401 412.14L39.9201 411.84C39.7201 411.51 39.7201 411.51 39.2901 411.46C39.2001 411.22 39.3701 411.25 39.5201 411.25L39.6101 411.35L39.5001 411.27L39.4001 410.71C39.4367 410.651 39.4768 410.594 39.5201 410.54L39.3801 410.3C39.4599 410.309 39.5403 410.309 39.6201 410.3C39.7501 410.3 39.4901 409.97 39.7501 409.95V409.39L39.5501 409.18L39.3801 409.47C39.3001 409.41 39.2501 409.4 39.2501 409.38L39.1201 408.82L39.2201 408.73L39.1401 408.83L38.9801 408.63C39.0564 408.641 39.1338 408.641 39.2101 408.63L39.1201 407.79L38.7901 407.57L38.6801 407.16H38.8001L39.2701 406.4L39.1601 406.24L39.2701 406.15L39.1801 406.26L38.8201 406.35C38.7001 406.13 38.9801 406.08 39.0501 405.94C38.8401 405.78 38.9001 405.61 39.0501 405.43L38.8901 405.27L38.6401 405.4C38.4401 405.16 38.6401 405.01 38.7101 404.84C38.6133 404.805 38.5196 404.761 38.4301 404.71V404.55C38.5464 404.564 38.6639 404.564 38.7801 404.55L38.8401 404.92H38.9001L38.9601 404.57C39.0681 404.563 39.1752 404.546 39.2801 404.52C39.3801 404.31 39.2801 404.26 39.0501 404.31L39.1401 403.82C39.0914 403.703 39.0238 403.595 38.9401 403.5C38.8898 403.462 38.8516 403.41 38.8301 403.35C38.8153 403.291 38.8153 403.229 38.8301 403.17L39.2101 402.87C38.3501 402.04 38.3501 402.04 38.2701 401.69C38.1301 401.69 38.2701 401.96 38.0101 401.93C37.9301 401.93 37.8301 402.09 37.7601 402.15H37.2801L37.4201 401.99L37.2001 401.76L37.3201 401.08L37.5401 401C37.5512 400.866 37.5271 400.732 37.4701 400.61C37.418 400.488 37.3395 400.378 37.2401 400.29L37.6101 399.92L37.4701 399.6L37.6501 399.04L37.3101 398.65L37.5801 398.52L37.7601 398.01L37.6201 397.86L37.8501 397.79C37.9101 397.56 37.9401 397.35 37.7001 397.2L37.3501 397.4L37.6501 396.74L37.5401 396.59L37.6601 396.19L37.2701 396.39L37.3501 396.06L36.9401 395.71L36.8201 396.2C36.7568 395.976 36.7331 395.742 36.7501 395.51C36.5301 395.51 36.6801 395.31 36.7501 395.33L36.1801 394.78L35.7701 394.66L35.3101 394.9L35.3901 394.51L35.2401 394.06L35.1001 393.5L34.6501 393.61V393.28L34.3401 393.42L34.1401 392.98L34.0401 393.08V392.65L33.4801 392.34C33.4618 392.228 33.4584 392.113 33.4701 392L33.5901 391.61L33.4701 391.47L33.6101 391.3C33.4805 391.314 33.3497 391.314 33.2201 391.3L33.3501 391.6C33.2301 391.72 33.2101 391.6 33.1501 391.6C33.0901 391.6 33.0301 391.6 32.9701 391.6L32.7501 391.49L32.6501 391.6L32.4301 391.19L32.2301 391.25L32.5301 390.85L32.3701 390.29L31.9101 389.95L32.2401 389.8V389.38L31.9601 389.26L32.5301 388.96L32.6201 389.07V389.02L32.5101 388.94L32.3601 388.71L32.0301 388.84C32.0301 388.74 32.0301 388.65 32.0301 388.63C32.0821 388.598 32.1211 388.548 32.1401 388.49C32.1599 388.432 32.1599 388.368 32.1401 388.31L32.2401 388.23L32.1501 388.33H31.9201L32.1901 387.78L31.6801 387.55L31.8901 386.95L31.6701 386.52L31.7601 386.42L31.5801 386.07L31.3201 386.2L31.1601 386.03C31.0301 385.5 31.3201 385.03 31.3001 384.43L31.5901 383.7L32.9201 382.96H32.4701C32.4701 382.87 32.5301 382.72 32.3401 382.71V382.5L31.9801 382.58C31.8603 382.59 31.7399 382.59 31.6201 382.58L31.9101 381.69L32.0801 381.54C31.8201 381.28 31.5101 381.34 31.1701 381.33L30.6501 381.02L30.8201 380.74L30.5701 380.59C30.6201 380.43 30.8001 380.28 30.6401 380.1C30.4801 379.92 30.8501 379.8 30.5901 379.65C30.4901 379.59 30.4701 379.37 30.4501 379.22C30.42 379.105 30.42 378.985 30.4501 378.87C30.47 378.72 30.5069 378.572 30.5601 378.43L30.2901 378.14L30.4201 378.01L30.1401 377.9L30.3101 377.24C31.1201 376.9 31.1201 376.9 31.1201 376.58L30.9801 376.7C30.9801 376.7 30.9201 376.64 30.9201 376.61C30.9706 376.466 31.0107 376.319 31.0401 376.17C30.9914 375.421 31.0589 374.669 31.2401 373.94H31.5401V373.54L31.1501 373.69V373.45C31.0699 373.463 30.9876 373.445 30.9201 373.4C30.8843 373.382 30.8526 373.356 30.8268 373.325C30.801 373.294 30.7818 373.259 30.7701 373.22C30.7701 373.15 30.6601 373.11 30.5201 373.1L30.6501 373.51L30.3301 373.67C30.3158 373.67 30.3019 373.665 30.2909 373.656C30.2799 373.647 30.2725 373.634 30.2701 373.62L30.1501 372.99L29.5401 372.88L29.3201 373.21C29.1901 373.06 29.3201 372.82 29.6501 372.6L29.5301 372.38L29.7201 371.93L30.0701 371.65C29.8701 371.4 29.5401 371.24 29.6601 370.84L29.8201 370.95L30.0701 370.77L29.3901 370.21L29.6601 369.83L29.6101 369.76C29.5444 369.804 29.474 369.841 29.4001 369.87H29.0801L28.7601 369.39L29.5901 369.19L29.5001 368.86H29.6101L29.5001 368.78L29.0601 368.41L28.9001 368.55L28.6901 368.13L28.9801 368.27V367.97L28.5701 367.57L28.7501 367.01L28.4701 367V366.39H28.3901L28.3101 367.02C28.1501 366.69 27.7501 366.6 27.7101 366.17C27.8629 366.184 28.0138 366.214 28.1601 366.26L28.3301 365.92L28.0201 365.77C27.8301 365.99 27.5801 365.82 27.3401 365.88C27.3401 365.51 27.5701 365.49 27.8001 365.48C27.8501 365.29 28.0801 365.13 27.9001 364.85L27.6401 364.98C27.5901 364.98 27.5301 364.91 27.4601 364.88L27.5901 364.46L27.7801 364.61L27.9101 364.5H28.0501C28.1401 364.34 28.0501 364.04 28.3901 364L28.7801 364.58C28.8294 364.495 28.8504 364.397 28.8401 364.3C28.8326 364.199 28.7981 364.103 28.7401 364.02C28.8175 363.931 28.9129 363.859 29.0201 363.81C29.1272 363.76 29.2424 363.73 29.3601 363.72L29.4501 363.82L29.3501 363.73V363.37L28.9701 363L29.2701 362.9L28.8401 362.47L28.9901 362.26L28.8501 362.19L29.1301 362.06L28.9801 361.76L29.0901 361.67L29.0001 361.77H28.6701C28.8501 361.55 28.7901 361.3 28.9901 361.15V361.4H29.2301V361.19H28.9901V360.88L29.3901 360.68L29.6201 360.83V360.59L29.7301 360.5L29.6401 360.6L29.2201 360.28C29.3553 360.269 29.4892 360.246 29.6201 360.21V359.97L29.4401 360.12L29.3801 359.88L29.0801 360.01C29.0258 359.902 29.005 359.78 29.0201 359.66C29.0297 359.538 29.0711 359.421 29.1401 359.32C29.0367 359.368 28.9297 359.408 28.8201 359.44C28.7201 359.44 28.4901 359.33 28.3001 359.26L28.1501 359.39L27.8001 358.48L27.6901 358.73C27.2501 358.42 27.4001 357.94 27.3501 357.47L27.0001 357.56C27.0001 357.56 26.8501 357.48 26.7201 357.43V357.25L26.9801 357.37C26.9801 357.37 27.0801 357.31 27.0701 357.29C27.0701 356.91 26.9801 356.53 26.9301 356.14C26.8626 356.087 26.7887 356.044 26.7101 356.01C26.6515 355.827 26.608 355.64 26.5801 355.45V354.85L27.2001 354.57V353.94L27.9701 353.19V352.94L28.2301 352.75H28.0301L27.8701 352.26C27.8701 352.04 28.2501 351.93 28.2301 351.62L28.0101 351.35L27.9401 351.74H27.8701V351.16L28.0101 351.26L28.8201 350.78L28.8901 350.45L29.2001 350.31L29.3201 350.55C29.5901 350.36 29.5901 350.36 29.7401 349.96L29.6001 350.06C29.4101 349.83 29.1401 349.99 28.9001 349.94C28.8844 349.87 28.8834 349.797 28.8971 349.727C28.9109 349.656 28.9392 349.589 28.9801 349.53C28.9801 349.53 28.9301 349.34 28.9001 349.24C28.8421 349.116 28.8017 348.985 28.7801 348.85C28.8058 348.677 28.846 348.506 28.9001 348.34L28.5501 347.69C28.464 347.72 28.3804 347.757 28.3001 347.8V347.4L27.8501 347.07L27.9701 346.46L28.2601 346.62C28.0901 346.36 28.1201 346.17 27.8701 346.06C27.6201 345.95 27.7201 345.69 27.6601 345.5L27.2901 345.3V344.3L26.9801 344.91C26.8601 344.68 26.7001 344.47 26.8301 344.17H27.4701C27.4805 343.965 27.4603 343.759 27.4101 343.56C27.3606 343.495 27.3338 343.416 27.3338 343.335C27.3338 343.254 27.3606 343.175 27.4101 343.11L27.2501 342.63L26.9801 342.78L26.9001 342.56C26.8001 342.63 26.9001 342.9 26.5901 342.76V342.43C26.8601 342.43 26.8601 342.43 26.7801 342.18H26.4701L25.6901 341.31V340.93L25.2501 341.16L25.1801 340.97L24.9701 340.88L25.1901 340.48L25.1001 340.38L25.4301 339.89L25.6401 340.19L25.8101 340.02V339.94C25.6901 339.8 25.6901 339.57 25.4101 339.53C25.1301 339.49 25.2201 339.26 25.2001 339.08C25.1057 339.065 25.0144 339.035 24.9301 338.99L25.0901 338.7C24.9864 338.661 24.8888 338.607 24.8001 338.54C24.7215 338.452 24.6604 338.351 24.6201 338.24L24.8201 337.86C24.6701 337.76 24.7201 337.58 24.7101 337.43H24.9701V337.19H24.7601V337.42C24.7601 337.42 24.6801 337.42 24.6001 337.52V337.42C24.5995 337.33 24.5716 337.243 24.5201 337.17L24.8001 336.79L24.7101 336.14L24.8201 335.48L24.3901 335.16H24.2001L24.0201 334.6L24.1901 334.18H24.4701L24.2001 334.7C24.5001 334.59 24.8801 334.61 25.0601 334.15L24.6701 334.34C24.6487 334.209 24.6118 334.082 24.5601 333.96C24.4693 333.844 24.4107 333.706 24.3901 333.56L24.5501 333.67C24.7001 333.48 24.5501 333.41 24.4101 333.31L24.2601 333.44L24.0901 332.93H24.2001L24.0901 332.84L23.9501 332.29C24.125 332.3 24.2988 332.323 24.4701 332.36L24.5601 332.46L24.4601 332.37L24.2101 332.03V331.71L24.3101 331.62L24.2301 331.72C24.2301 331.72 24.1101 331.61 24.1201 331.58C24.2022 331.317 24.2493 331.045 24.2601 330.77C24.2601 330.77 24.3301 330.69 24.3701 330.65L24.2001 330.14L23.8601 330.23V329.82L24.4701 329.98V329.77L23.9101 329.56L23.6101 330.12H23.3801V329.4L23.4901 329.67L23.9101 329.25H23.7701L23.8601 328.91L23.9501 328.54C23.9501 328.54 23.8301 328.44 23.7401 328.36L23.8801 328.15L23.6701 327.89L23.5701 327.99L23.0901 327.84C23.1801 327.65 23.1801 327.65 23.4401 327.62C23.4401 327.62 23.4901 327.53 23.4401 327.51C23.3924 327.467 23.3577 327.412 23.3401 327.35C23.3306 327.29 23.3306 327.23 23.3401 327.17C23.3511 327.107 23.3713 327.047 23.4001 326.99C23.4328 326.937 23.4773 326.893 23.5301 326.86L23.2301 326.62L22.9601 326.77L22.6301 326.02H23.2001L23.1001 325.66C23.1001 325.58 23.0101 325.49 22.9601 325.37L23.3501 324.77V324.46L23.7601 324.05L23.5701 323.74L23.9801 323.34V323.03C24.0532 323.038 24.127 323.038 24.2001 323.03C23.9101 322.61 23.9601 322.03 23.6301 321.7L23.3801 321.93C23.0901 322.01 22.9801 321.76 22.8201 321.62V320.97C22.6989 320.958 22.5786 320.938 22.4601 320.91V320.69L22.7201 320.81C23.0101 320.56 23.0101 320.56 22.8501 320.25L23.1001 320.06H23.3701L23.3201 319.8L23.1001 319.93V319.76L24.1001 319.34L24.2001 319.44L24.2901 319.2L24.4901 319.3C24.4901 318.95 24.6201 318.74 25.0001 318.79V318.35L25.2401 318.24V318.18L24.6701 318.27C24.5801 318.27 24.7401 317.8 24.3601 317.92C24.4101 317.66 24.5201 317.54 24.7401 317.55C24.9601 317.56 25.0101 317.89 25.2701 317.81L25.3501 317.91L25.2501 317.82C25.2762 317.7 25.2705 317.575 25.2337 317.457C25.1969 317.34 25.1302 317.234 25.0401 317.15L25.4701 316.95L25.0201 316.62C24.9201 316.42 24.7101 316.14 25.0801 315.8L25.2501 316.11C25.3301 316.04 25.3801 316.02 25.3801 315.99C25.3822 315.682 25.4398 315.377 25.5501 315.09L25.9101 315.26L25.7601 314.7L25.8601 314.61L25.7701 314.72C25.4801 314.77 25.4201 314.46 25.2101 314.37L25.0801 314.47L24.8301 314.16L24.9601 313.51L25.0701 313.97L25.2401 313.83V314.09L25.5601 314.46L25.7301 314.29V313.9C26.0601 313.68 25.9201 314.19 26.2101 314.07L26.2601 313.76C25.7701 313.65 25.6601 313.2 25.3301 312.86H25.6601L25.9301 312.24L26.0201 312.72H26.2301C26.1189 312.441 26.0811 312.138 26.1201 311.84L26.2201 311.75L26.1301 311.85L25.7801 312.27L25.2701 312.03L25.7601 311.94L25.3501 311.67L25.8501 311.43L25.3601 311.05L25.4401 310.96L24.9901 310.51V309.73C25.0159 309.734 25.0404 309.744 25.0613 309.76C25.0822 309.776 25.099 309.796 25.1101 309.82C25.1069 310.005 25.1237 310.189 25.1601 310.37C25.2317 310.089 25.2587 309.799 25.2401 309.51L25.3401 309.42L25.2501 309.52C25.0501 309.52 25.1601 309.33 25.1201 309.2L25.3801 309.01V308.45L25.1401 308.19C25.3301 308.05 25.2401 307.86 25.2501 307.67C25.1814 307.689 25.1088 307.689 25.0401 307.67C24.9001 307.38 25.1501 307.18 25.2601 306.95L25.1001 306.51L25.4601 306.33L25.5901 306.44L25.7901 306.12C25.6301 306.03 25.4801 306.37 25.3801 306.04L25.6501 305.81C25.8901 305.67 25.6501 305.25 26.1101 305.25L25.8901 304.98C25.8901 304.6 26.2601 304.42 26.5201 304.26V304L26.1501 303.77L26.6201 303.36C26.5401 303.06 26.2201 303.23 26.0101 303.15C26.1801 302.86 26.5801 302.8 26.6401 302.45L26.2801 302.4L26.4801 302.06L26.5901 302.32L26.8501 301.93L26.9801 302.06V301.74L27.1501 301.86L26.9901 301.57C27.0701 301.52 27.1601 301.44 27.3101 301.35L27.0201 301.28V300.94C27.1896 300.823 27.3795 300.738 27.5801 300.69C27.9101 300.69 27.9401 300.47 27.9401 300.22C28.0425 300.201 28.1477 300.201 28.2501 300.22C28.3582 300.23 28.4635 300.26 28.5601 300.31C28.5601 299.96 28.2101 300.03 28.0801 299.8V299L28.2501 299.13C28.3701 299.06 28.3401 298.78 28.2001 298.52C28.2001 298.44 28.3001 298.35 28.3501 298.27C28.7301 298.46 28.5401 298.73 28.3501 298.99H28.4701C28.5201 298.99 28.6501 298.83 28.6501 298.75C28.6501 298.48 28.7901 298.36 29.0701 298.34L28.8101 298.08L28.9801 297.73L29.1601 298.11V297.42H29.7501L29.5101 297.13L29.2601 297.29L28.9801 296.93C28.9801 296.82 28.8401 296.59 29.0801 296.43L29.1701 296.53L29.0701 296.45L29.2201 295.93L29.4701 296L29.6501 295.64C29.5885 295.661 29.5218 295.661 29.4601 295.64L29.2501 294.64L28.8401 294.73L28.3001 293.93L28.3901 293.85C28.3901 293.85 28.3101 293.8 28.2801 293.78L28.0601 293.68L28.5401 293.28L28.4001 293.09L28.7601 292.75V292.27L28.5401 292.43L28.2901 292.27V291.68C28.4026 291.699 28.5176 291.699 28.6301 291.68L28.4901 291.36C28.6154 291.355 28.7396 291.335 28.8601 291.3C28.5536 290.759 28.2765 290.201 28.0301 289.63C27.9501 289.42 27.6601 289.32 27.7601 289.07L27.8601 288.98L27.7701 289.08H27.4701C27.6101 288.89 27.3801 288.72 27.4701 288.53C27.5349 288.511 27.5983 288.487 27.6601 288.46L27.8301 287.95L27.6701 287.72L28.0301 287.43L27.9101 287H27.6701C27.4901 286.73 27.1501 286.61 27.0001 286.38L26.7201 285.2L26.9001 284.84L26.9801 285.26H27.0501V284.79L26.4701 284.2L26.8801 283.53L26.4101 283.62L26.5701 283.07L26.4701 283C26.4595 283.049 26.4427 283.096 26.4201 283.14C26.3601 283.21 26.3101 283.28 26.2501 283.34H25.3901L25.6201 283.06L25.2801 282.73C25.3301 282.45 25.6101 282.52 25.7701 282.44L25.6601 282.23L25.2501 282.04L25.4201 281.69L24.9901 281.38L25.1501 280.95L24.3501 280.39L24.5101 280.11C24.6736 280.044 24.8405 279.988 25.0101 279.94V279.62C24.859 279.609 24.7088 279.589 24.5601 279.56L24.8701 279.42L24.7801 279.26C25.0301 279.12 25.0601 279.43 25.2801 279.46L25.1701 279C25.2285 279.02 25.2917 279.02 25.3501 279C25.5026 278.916 25.6496 278.823 25.7901 278.72V278.38H25.5501L25.4301 278.18L25.5301 278.07L25.4701 278L25.7701 277.82C25.8301 277.82 25.8901 277.88 25.9401 277.92L26.0001 277.85L25.8101 277.56C25.6401 277.62 25.5901 277.89 25.3301 277.76L25.4701 277.6L25.0901 277.35L25.3501 277.1L24.8301 277.01C24.8301 276.69 25.0401 276.65 25.2601 276.67L25.4901 276.32L25.7801 276.48L25.8601 276.23L26.2401 276.32C26.2401 275.97 25.9901 275.91 25.7401 275.95L25.6101 275.42C25.6101 275.42 25.3901 275.36 25.3501 275.25C25.3321 275.175 25.2941 275.106 25.2401 275.05C25.1787 274.991 25.1028 274.95 25.0201 274.93L24.9001 275.19C24.6901 274.95 24.9801 274.63 24.7201 274.4C24.9201 274.15 24.7901 273.84 24.8401 273.53L24.6201 273.69L24.4901 273.46L24.6201 273.27L24.1101 272.94L24.0001 273.24L23.7801 272.9C23.7801 272.82 23.9201 272.67 23.8401 272.46C23.7601 272.25 23.9701 272.07 24.0601 271.9L24.4201 271.28L23.9401 271.46L23.5501 270.97L23.6301 270.3H23.4301V270.18L23.4701 270L23.3801 270.1L23.2601 270.23L23.1301 270.16C23.1301 269.8 23.5701 269.83 23.6901 269.45L23.3601 269.63C23.2835 269.549 23.1999 269.476 23.1101 269.41C23.1801 269.2 23.2801 269.07 23.5101 269.1C23.5101 269.1 23.4501 268.98 23.4101 268.98H22.8501L23.0801 268.48H23.2801L23.0201 268.28V268.14C23.1619 268.129 23.3024 268.105 23.4401 268.07L23.2801 267.74L23.3801 267.65L23.2901 267.75C23.1801 267.75 23.0301 267.75 22.9801 267.75C22.6601 268.07 22.3701 267.75 22.0701 267.75C22.0101 267.75 21.9001 267.59 21.9001 267.52C21.9001 267.14 21.6401 267.17 21.4101 267.11C21.4101 267.02 21.5101 266.94 21.5101 266.86C21.5101 266.78 21.3501 266.48 21.4001 266.36C21.473 266.218 21.5108 266.06 21.5101 265.9V265.71C21.6362 265.602 21.7209 265.453 21.7501 265.29C21.7776 265.123 21.742 264.952 21.6501 264.81C21.8901 264.54 21.7101 264.21 21.7601 263.92C21.7601 263.87 21.7601 263.82 21.6401 263.77V264.51H21.0701C21.3401 264.22 21.0701 263.95 21.0701 263.69C21.0397 263.421 20.9116 263.172 20.7101 262.99L20.8501 262.52L20.9701 262.62L21.5401 262.16L21.4101 261.9L21.6201 261.77L21.7001 261.99C21.8401 261.72 22.1901 261.55 22.1001 261.12L21.9301 261.25C21.7203 261.222 21.5296 261.114 21.3988 260.948C21.268 260.781 21.2074 260.57 21.2301 260.36C21.2405 260.259 21.2195 260.158 21.1701 260.07C21.1195 259.976 21.0384 259.902 20.9401 259.86C20.7701 259.78 20.6801 259.54 20.5401 259.36L20.4201 259.66L20.2201 259.43C20.2701 259.22 20.3801 259.1 20.6001 259.12V258.7C20.4801 258.54 20.2001 258.6 20.1101 258.39L20.2101 258.29L20.1301 258.39C19.8901 258.39 20.0601 258.15 19.9801 258.06L19.5701 258.16L19.3701 257.96L19.6201 257.77H19.3901L19.3401 257.27H19.1201C19.1393 257.128 19.1112 256.984 19.0401 256.86C18.9676 256.732 18.8499 256.636 18.7101 256.59L18.8001 256.03H18.6501L18.5701 255.81C18.4701 255.81 18.3501 255.81 18.1901 255.76L18.3301 255.45C18.1901 255.45 18.0401 255.45 17.8901 255.45L17.7101 255.1H17.9701V254.85L18.2501 254.47L18.0001 254.25C18.0551 254.17 18.0863 254.077 18.0901 253.98C18.1152 253.888 18.1152 253.792 18.0901 253.7L17.9001 253.89L18.0401 254.25H17.6001L17.3901 254.61L17.1601 253.99C17.2901 253.72 17.2901 253.72 17.2401 253.06L17.1001 253.38C16.8782 253.152 16.5781 253.016 16.2601 253C16.2601 252.74 15.9601 253 15.8901 252.8L16.1601 252.67L16.0001 252.36L16.4801 251.93L16.1401 251.72C16.0757 251.434 16.111 251.134 16.2401 250.87C16.1566 250.89 16.0759 250.92 16.0001 250.96C15.8266 251.096 15.6464 251.222 15.4601 251.34C15.3701 251.39 15.2401 251.34 15.1101 251.34C15.1101 250.93 15.6701 251 15.7401 250.62C15.4411 250.668 15.1348 250.604 14.8801 250.44C15.0501 250.32 14.9901 250.15 14.9901 249.99C15.2001 249.8 15.5501 249.78 15.6701 249.35L15.3501 249.52L15.0401 249.12H14.6101L14.7701 248.95L14.9401 249.11C14.9401 249.05 15.0101 248.96 14.9401 248.95L13.9401 248.16V247.98L14.1601 247.84L14.3701 247.97V247.79L13.8301 247.59L14.2301 247.1L13.8901 247.18L13.6501 247.08L13.4501 246.08H13.1601C13.1601 245.79 12.8401 245.8 12.7201 245.62V245L12.2701 244.71C12.1501 244.31 12.3501 243.89 12.1201 243.5L12.6101 243.04C12.5345 242.979 12.4816 242.895 12.4601 242.8C12.4271 242.713 12.4271 242.617 12.4601 242.53C12.6476 242.17 12.7241 241.763 12.6801 241.36H13.0601V241.07C13.3301 240.76 13.7401 240.93 14.1201 240.83L13.3301 239.77L13.2001 240.01L12.6701 239.73L12.8401 239.43L12.5801 239.35L12.4601 238.73L12.9001 238.57L12.4301 238.24H11.9901L12.3401 238.04C12.1701 237.82 12.0801 237.69 12.3401 237.55L11.7701 237.13L12.1201 236.73L12.0301 236.17L11.7101 235.84L12.5001 235.44L12.0501 235.21C11.9212 235.155 11.8054 235.073 11.7101 234.97C11.618 234.862 11.5498 234.736 11.5101 234.6L11.7801 234.75V234.42L11.5601 234.35V234L11.0001 233.74L11.2001 233.35L10.9501 233.26C10.9001 233.21 11.0601 232.99 11.2501 232.88L11.4201 232.14L11.0701 232.27L11.0001 231.89L10.6501 232.03V231.66H11.0001L10.6501 231.41L10.3101 231L10.5101 230.92L9.81011 229.74L10.0801 229.64L9.81011 229.46L9.94011 229.02C9.32011 228.72 9.61011 228.19 9.53011 227.77L9.95011 227.52L9.38011 227.1V226.96L9.95011 227.09C9.71011 226.86 9.58011 226.59 9.38011 226.42L9.47011 226.08L9.64011 225.94L9.19011 225.65L9.41011 225.47L9.53011 225.57L9.75011 225.15L9.39011 224.33C9.44011 224.25 9.66011 224.17 9.61011 224.01L9.05011 223.45L9.18011 222.98L9.00011 222.82L8.82011 221.89L9.07011 222.11V221.62L9.30011 221.46C9.27775 221.227 9.33791 220.993 9.47011 220.8L9.57011 220.75L9.47011 220.67L9.15011 220.17L9.98011 220.48C9.98011 220.25 9.76011 220.22 9.73011 220.02L9.84011 219.83C9.75705 219.814 9.6764 219.787 9.60011 219.75V219.33L9.39011 219.28C9.39011 219.03 9.60011 218.72 9.39011 218.52L9.69011 217.65L9.79011 217.54L10.0201 217.83L9.65011 218.01C9.80444 218.016 9.95817 218.032 10.1101 218.06V217.43L10.2201 217.29L10.3401 217.2L10.4301 217.3L10.3301 217.21C10.3301 216.88 10.0901 216.79 9.86011 216.69L9.97011 216.28L10.3701 216.03C10.2701 216.03 10.2201 215.96 10.1701 215.97L9.47011 216.2C9.46527 216.11 9.46527 216.02 9.47011 215.93L9.56011 215.55C9.20011 215.11 9.12011 214.8 9.26011 214.55L9.11011 214.1L8.67011 213.91C8.67011 213.79 8.54011 213.62 8.77011 213.57L8.86011 213.67L8.76011 213.59L8.85011 213.25L8.81011 213L9.38011 212.74L9.27011 212.61L9.73011 212.2L9.86011 212.32V211.98L10.2101 211.77L9.79011 211.61C9.88939 211.577 9.98628 211.537 10.0801 211.49V211L10.4101 210.85L10.5101 211.1L10.7801 210.96L11.0001 210.07L11.3601 210.39C11.2936 210.212 11.2466 210.028 11.2201 209.84C11.24 209.669 11.2803 209.501 11.3401 209.34L11.8101 209.01C11.8101 208.76 11.4601 208.7 11.5401 208.45L11.6501 208.36H11.6001L11.5201 208.46L11.2401 208.09L11.3901 207.93L11.1501 207.5V206.3L11.4101 206.17L11.1601 205.41L11.6801 205.55C11.6591 205.459 11.6254 205.372 11.5801 205.29C11.3801 205.29 11.4301 205.15 11.3901 205.05C11.1701 204.97 10.9901 205.35 10.7501 205.05C10.9401 204.83 11.2301 204.74 11.4401 204.55C11.6501 204.36 11.9601 204.55 12.0701 204.27C11.9861 204.218 11.8891 204.19 11.7901 204.19C11.6911 204.19 11.5941 204.218 11.5101 204.27L10.9701 204L10.5501 204.15L10.4901 204.07H10.8101L10.6901 203.93H11.5401L11.2201 203.73L11.2801 203.18H10.6701L10.8101 202.83H10.6401L10.4901 203.16L10.2501 202.84C10.2501 202.84 10.1401 202.84 10.0401 202.95C10.1201 202.75 10.1401 202.65 10.1801 202.54L10.0201 202.38L9.91011 202.62L9.60011 202.18L9.88011 201.07C9.91278 201.079 9.94745 201.079 9.98011 201.07L10.1101 201C10.0501 200.9 10.0101 200.8 9.95011 200.7C10.2748 200.193 10.4925 199.624 10.5901 199.03C10.6016 198.949 10.6287 198.871 10.6701 198.8L10.1801 198.43C10.4001 198.27 10.4501 197.99 10.7101 197.88C10.6201 197.66 10.4501 197.43 10.4701 197.23C10.4901 197.03 10.0901 196.87 10.2001 196.58C10.3701 196.45 10.3701 196.33 10.2001 196.21L10.3101 196.01C10.1564 195.951 9.99945 195.901 9.84011 195.86L9.78011 196.42L9.55011 195.75C9.66484 195.739 9.77852 195.719 9.89011 195.69L10.0901 195.3L9.82011 195.01L10.4501 194.4H10.3901L10.7101 193.84L10.8101 193.75L10.7201 193.85C10.6658 193.769 10.6056 193.692 10.5401 193.62C10.5401 193.62 10.4001 193.62 10.3701 193.56C10.3401 193.5 10.2201 193.61 10.1001 193.56L10.2501 193.04C10.0811 192.856 9.84916 192.742 9.60011 192.72C9.55931 192.344 9.58984 191.964 9.69011 191.6C9.53852 191.612 9.38807 191.635 9.24011 191.67L9.14011 191.44L8.87011 191.59C8.87011 191.59 8.81011 191.45 8.87011 191.43C8.93011 191.41 9.20011 191.16 9.36011 191.03V190.81C9.25011 190.69 9.26011 190.89 9.11011 190.81C9.11011 190.81 9.11011 190.81 9.05011 190.81C8.99011 190.81 8.99011 190.87 8.94011 190.91L8.47011 190.35V190.27L8.81011 190.37V190C8.7337 190.009 8.65652 190.009 8.58011 190C8.5738 189.888 8.55365 189.777 8.52011 189.67C8.50023 189.626 8.48995 189.578 8.48995 189.53C8.48995 189.482 8.50023 189.434 8.52011 189.39L8.90011 189.85C8.90011 189.69 9.16011 189.54 9.04011 189.3L8.86011 189.41C8.61011 189.24 8.61011 189.24 8.57011 188.94C8.70495 188.932 8.83881 188.912 8.97011 188.88C8.97142 188.841 8.96502 188.803 8.95128 188.767C8.93754 188.731 8.91675 188.698 8.89011 188.67L8.29011 188.51L8.47011 188.11L7.96011 187.92V187.36L8.26011 187.04L8.42011 187.37V186.74C8.83011 186.5 8.77011 186.06 8.93011 185.74C8.87143 185.758 8.80879 185.758 8.75011 185.74L8.67011 185.97L8.59011 185.65L8.33011 185.38L8.51011 184.57L8.82011 185.05V184.27L9.25011 184C8.91011 183.55 9.00011 182.93 8.52011 182.52C8.57011 182.52 8.61011 182.47 8.67011 182.45L8.89011 182.8L9.27011 182.33H9.47011L10.0801 181.64V181.37H9.99011L9.87011 181.64L9.79011 181.45L9.30011 181.34C9.30011 181 9.59011 180.72 9.54011 180.34L9.34011 180.49L9.14011 180.24L9.70011 179.53L9.65011 179.47L8.97011 179.78L9.02011 179.38L8.92011 179.19L9.20011 179.05L9.07011 178.92L9.68011 178.71V178L9.56011 178.35L8.93011 178.48C8.90623 178.365 8.86582 178.254 8.81011 178.15C8.93011 178.03 9.18011 178.15 9.19011 177.85L8.63011 177.93L8.47011 177.58L8.69011 177.47V177.08L9.01011 176.58L8.83011 176.25L9.23011 176.41L9.29011 176.19L9.01011 176.08L9.30011 175.76L9.14011 175.56L9.61011 175.35L9.80011 174.5L9.47011 174L9.39011 174.22H9.06011C9.06011 174.15 9.01011 174.1 9.06011 174.08C9.21011 173.83 9.45011 173.64 9.44011 173.3C9.44011 173.21 9.60011 173.12 9.67011 173.05C9.74011 172.98 9.58011 172.87 9.48011 172.67L9.94011 172.86L9.76011 173.19C9.90328 173.18 10.0469 173.18 10.1901 173.19L10.0101 172.79L10.4201 172.9L10.6601 172.6L9.99011 172.54L9.79011 171.78L9.38011 171.95L9.17011 171.35L9.53011 170.7L10.0501 170.42V170H9.94011C9.81011 170.14 9.69011 170.29 9.57011 170.43C9.41011 170.17 9.65011 169.96 9.69011 169.72H10.1501V169.4L9.93011 169.19L10.0701 168.9L11.0701 168.72V168.24H11.3701L11.8901 167.62C12.0001 167.31 11.4301 167.19 11.6901 166.86L12.4701 167C12.6301 166.83 12.8701 166.7 12.9001 166.53C12.9301 166.36 13.2901 166.37 13.2901 165.97L13.1801 165.67L13.3201 165.47L13.1701 165.19L13.7401 164.74L13.2901 164.67L13.5001 164.02L13.8901 164.31L14.0701 164.13L13.8601 164.04C13.7601 163.85 13.5801 163.64 13.7401 163.31L14.0601 163.44V163.07H13.7501C13.736 162.809 13.7734 162.547 13.8601 162.3L14.2101 162.46L14.3901 162.34L14.5101 162.45C14.6501 162.13 15.1201 162.01 15.0801 161.57L15.1901 161.49L15.0901 161.59L14.9501 161.68L14.7801 161.53L14.4301 161.81L14.2101 161.25L14.4601 161.06L14.5901 161.17L14.7001 160.9L14.8101 161.15L15.3801 160.75V160.45C15.2101 160.17 14.7601 160.09 14.7401 159.6L15.0901 159.73L15.2501 159.57C15.3401 159.33 14.8601 159.28 15.0501 159.01L15.2001 159.14C15.2496 159.037 15.2703 158.923 15.2601 158.81C15.2413 158.697 15.1891 158.593 15.1101 158.51C15.3401 158.35 15.1101 157.95 15.4901 157.88C15.4901 157.68 15.5801 157.5 15.4101 157.36L15.6101 156.8L15.4801 156.66C15.685 156.596 15.8777 156.498 16.0501 156.37C16.2301 156.17 16.4601 156.37 16.6201 156.2L16.5001 156.07L16.9501 155.77L17.2001 156.01L17.3201 155.45C18.0667 155.309 18.7593 154.963 19.3201 154.45C19.1223 154.355 18.9658 154.192 18.8801 153.99C18.9079 153.937 18.9452 153.89 18.9901 153.85L19.0701 153.95L18.9701 153.87L18.8201 153.35L19.1201 153.01L18.9801 152.77L19.2601 152.63L19.4201 152.7C19.5501 152.6 19.8001 152.62 19.8601 152.37L19.6601 152.12L19.4601 152.31L19.5701 151.89L19.2401 151.68C19.3901 151.38 19.6501 151.13 19.6001 150.75L19.9901 150.49H19.8601L19.6701 149.55L20.0301 149.31L19.7601 149.19L20.0601 148.57L19.7501 148.43L20.0101 148.36C19.9997 148.28 19.9997 148.2 20.0101 148.12C20.0482 148.036 20.0988 147.959 20.1601 147.89L19.8901 147.51L20.1201 147.18L20.0001 147.06C20.0741 147.034 20.1421 146.993 20.2001 146.94C20.2606 146.89 20.3114 146.829 20.3501 146.76C20.4201 146.65 20.6201 146.63 20.7601 146.57L20.6201 146.42L20.8401 145.96C20.694 146.037 20.5621 146.139 20.4501 146.26L20.2701 146.07V145.73C20.3346 145.642 20.4048 145.559 20.4801 145.48L20.7701 145.64L21.1501 145.38C21.2901 145.62 21.4801 145.49 21.7201 145.47L21.2701 145.13L21.0001 144.45L21.1201 144.36L21.0301 144.01L21.2201 144.13L21.4601 143.84L21.1301 143.7L21.2801 143.33C21.2801 143.33 21.1901 143.33 21.1501 143.26L20.9101 142.65H21.2201L21.3701 142.96V142.58C21.5501 142.41 21.7601 142.23 21.9601 142.02L22.0501 142.1L22.3301 141.77C22.2401 141.77 22.1201 141.77 21.9801 141.7L22.1201 141.54L21.3801 141.19L21.2601 140.91C21.3501 140.64 21.6201 140.77 21.8201 140.72C21.8349 140.607 21.8617 140.497 21.9001 140.39C21.9501 140.3 22.0601 140.26 22.2301 140.12H21.4701C21.4192 139.812 21.4367 139.496 21.5214 139.195C21.6061 138.895 21.7558 138.616 21.9601 138.38L21.7901 137.5L21.7201 138.16L21.5001 137.74L21.7101 137.28C21.6189 137.354 21.5219 137.421 21.4201 137.48L21.3401 136.99H20.7401V136.5H20.6601L20.5701 136.86L20.2301 136.61L20.3901 136.35L19.6301 136.58C19.6301 136.58 19.5401 136.5 19.4501 136.4C19.6383 136.391 19.8255 136.367 20.0101 136.33L19.8401 136.01C20.1401 135.95 20.5501 136.06 20.6601 135.62H21.0101C21.0101 135.51 20.9601 135.41 20.9201 135.39C20.7866 135.349 20.6492 135.322 20.5101 135.31L20.3401 135.6C20.2801 135.48 20.2101 135.36 20.1401 135.24C20.0701 135.12 20.0001 135.1 19.8701 134.96L20.2301 134.81L20.3501 134.88V134.65L20.6901 134.78L20.7501 134.4C20.8601 134.4 20.9801 134.4 21.1601 134.4L20.7301 134.11L20.4801 133.98L20.6201 134.4C20.475 134.43 20.3253 134.43 20.1801 134.4L20.0901 134.62H19.8801V134L19.7001 134.15C19.5101 134.09 19.7601 133.8 19.5001 133.79L19.3701 133.66C19.3701 133.47 19.2101 133.55 19.1501 133.56C19.0973 133.379 19.0539 133.195 19.0201 133.01L19.4001 132.73L19.1601 132.25L18.9101 132.55L18.4701 132L18.8101 131.88C18.9505 131.841 19.0947 131.818 19.2401 131.81C19.3751 131.85 19.5057 131.904 19.6301 131.97L19.6801 131.74L18.8301 131.5L19.2601 131.06L19.3201 131.4H19.6101C19.6101 131.03 19.2501 130.85 19.1201 130.56L18.8301 130.98C18.7902 130.672 18.7702 130.361 18.7701 130.05H19.0401V129.67C18.958 129.65 18.8722 129.65 18.7901 129.67V129.44L18.3101 129.23L19.2201 128.49C19.1501 128.27 19.0801 128.49 19.0301 128.49C18.9801 128.49 18.8901 128.38 18.8301 128.38C18.7701 128.38 18.6401 128.45 18.5401 128.46C18.4401 128.47 18.4301 128.46 18.3701 128.39C18.3104 128.551 18.3104 128.729 18.3701 128.89H18.2801C18.1201 128.89 18.0201 128.89 18.0101 128.81C17.9622 128.71 17.8856 128.626 17.7901 128.57C17.6956 128.508 17.5828 128.48 17.4701 128.49V128.09L17.6501 128.21H17.8001V127.87C17.7201 127.87 17.6101 127.87 17.4401 127.87L17.8501 126.87L17.9601 126.78L17.8701 126.88H17.4701L17.4001 127.26L17.1801 127.14V126.58L17.5401 126.53V126.28L17.3301 126.46V125.98L17.5701 125.89V125.41H17.2601L17.0701 124.86C17.1949 124.845 17.3186 124.822 17.4401 124.79C17.4651 124.695 17.4651 124.595 17.4401 124.5C17.421 124.402 17.38 124.31 17.3201 124.23C17.5401 124.05 17.4101 123.88 17.3201 123.68L17.6201 123.35L17.4701 122.87L17.3201 122.37L17.6201 122.26L17.4701 122L17.7801 121.65L17.5901 121.33C17.5829 121.304 17.5829 121.276 17.5901 121.25L17.6701 121.31L18.0501 120.99L17.7001 121.1V120.84C17.7001 120.67 17.8101 120.51 17.7001 120.32C17.5901 120.13 17.8501 120.06 17.7001 119.86C17.5501 119.66 17.8601 119.57 17.9401 119.38C17.4801 119.31 17.2701 119.78 16.8601 119.81L16.5201 119.45L16.7601 119.22C16.8801 119.1 17.1101 119.13 17.1801 118.86L17.0501 118.62L16.6801 118.37V117.88H16.9301L17.1301 118.12C17.0884 117.902 17.1313 117.677 17.2501 117.49L17.3501 117.4L17.2601 117.5H16.9701L16.8501 117.25L16.6901 117.4V116.88H16.8801L17.1101 117.44C17.1403 117.391 17.1591 117.337 17.1651 117.28C17.1712 117.223 17.1643 117.166 17.1451 117.112C17.1259 117.058 17.0948 117.009 17.0541 116.969C17.0134 116.929 16.9642 116.898 16.9101 116.88L17.0401 116.29C16.9115 116.279 16.7843 116.255 16.6601 116.22V116L16.8501 116.17L16.9701 115.93H16.6301L16.4701 116.26V115.86L16.0901 115.63V115C16.1113 115.003 16.133 115 16.1526 114.991C16.1721 114.983 16.1887 114.968 16.2001 114.95L16.0901 114.87V114.67C15.9963 114.653 15.9054 114.623 15.8201 114.58L16.2301 114.18C16.2301 113.86 15.7301 113.81 15.8701 113.39L16.1801 113.1V112.49C16.4201 112.49 16.2801 112.28 16.2901 112.16C16.293 111.994 16.349 111.832 16.4501 111.7C16.5531 111.567 16.6973 111.472 16.8601 111.43L16.4101 111.35L16.7001 111.01H16.0701L16.2601 110.77L16.3901 110.88C16.3901 110.88 16.3101 110.82 16.2801 110.79L16.0701 110.62C16.2096 110.457 16.4078 110.356 16.6215 110.339C16.8352 110.323 17.0469 110.391 17.2101 110.53C17.4501 110.2 17.0601 109.97 17.0501 109.63L16.5201 110.24L16.2201 109.73L16.4701 109.61C16.5601 109.32 16.4701 109.11 16.6401 108.98L16.2701 108.74L16.4701 108.45C16.2701 108.28 15.9701 108.15 15.9001 107.96C15.8301 107.77 15.4001 107.83 15.6201 107.4C15.6201 107.4 15.5401 107.09 15.8101 107.13L16.1501 105.77H15.3001C15.6201 105.33 15.5201 104.77 16.0101 104.43C15.8088 104.427 15.608 104.407 15.4101 104.37C15.4101 104.37 15.3601 104.27 15.4101 104.26C15.5801 104.05 15.5101 103.8 15.5301 103.56C15.5501 103.32 15.5301 103.09 15.6201 102.79L15.5301 102.66C15.6493 102.68 15.7709 102.68 15.8901 102.66V102.4L15.6901 102.55L15.4001 102.16V101.61L15.6801 101.37L15.8101 101.67H15.8901L15.8001 100.83L16.2501 100.03L16.0101 99.91L16.3901 99.3C16.5101 99.22 16.7201 99.08 16.9201 98.93V98.78L16.4801 98.99L16.2801 98.86L16.0101 99.26C15.7101 99.13 15.8101 98.89 15.7901 98.7L16.0601 98.44L15.7801 98.35L15.9301 98.19L16.1101 98.02L16.3501 98.39H16.4301L16.2601 97.9L15.8301 98C15.7258 97.9632 15.6253 97.9163 15.5301 97.86L15.9001 97.6C15.9081 97.5035 15.9317 97.4089 15.9701 97.32C15.9701 97.24 16.1201 97.19 16.2301 97.11L15.9101 96.99C15.9901 96.92 16.0501 96.85 16.1301 96.79C16.2101 96.73 16.2101 96.79 16.2901 96.79V97.27H16.4001C16.3645 97.1801 16.3645 97.0799 16.4001 96.99C16.4247 96.9463 16.4577 96.9079 16.4971 96.877C16.5366 96.8461 16.5818 96.8233 16.6301 96.81L16.8101 96.93L16.9901 96.71V96.83L17.2501 96.77L17.2001 96.71H16.9801C16.9801 96.62 17.0401 96.48 16.8501 96.47C16.8501 96.28 16.8501 96.07 16.6301 95.98L16.4701 96C16.3401 95.9672 16.213 95.9237 16.0901 95.87C15.9801 95.81 15.9201 95.69 15.8201 95.63C15.6623 95.5327 15.4805 95.4811 15.2951 95.4811C15.1097 95.4811 14.9279 95.5327 14.7701 95.63L14.5401 95.19L15.0001 94.89L15.2801 95.01V94.89L14.9901 94.51L14.7201 94.76L14.5701 94C14.8701 93.85 14.8201 94.09 14.9001 94.19L15.3401 93.52L15.2401 93.39L15.3701 93.24C15.2101 93.24 15.0701 93.09 15.0301 93.32C14.7801 93.21 14.6101 93.1 14.5901 92.83C14.5901 92.72 14.4401 92.61 14.3501 92.48L14.9901 92.26L14.8901 92L15.0001 91.79L14.7701 91.53L14.5101 91.68L14.4001 91.46L14.5201 91.21H14.7101L14.5601 90.89L14.1601 91.04L14.3701 90.59L14.5501 90.75L15.0001 90.54L14.6601 90.32L15.0201 90.16L14.7301 89.76C14.7101 89.6543 14.7101 89.5457 14.7301 89.44C14.748 89.3308 14.7927 89.2277 14.8601 89.14L14.7401 88.99L14.9701 88.79V88.46L15.4701 89L15.7801 88.56C15.7418 88.5338 15.6965 88.5197 15.6501 88.5197C15.6037 88.5197 15.5584 88.5338 15.5201 88.56V88.5C15.6001 88.28 15.6401 88.17 15.6801 88.03L15.4501 87.6L15.5201 87.54C15.5201 87.42 15.4601 87.3 15.1401 87.28C15.3686 87.1994 15.5922 87.1059 15.8101 87C15.8101 86.69 15.5701 86.68 15.3001 86.66C15.3601 86.33 15.4401 86.02 15.4801 85.66C15.4842 85.3645 15.4155 85.0726 15.2801 84.81H15.4701L15.6001 85.06C15.8001 84.82 15.4801 84.68 15.5301 84.5C15.5898 84.3324 15.6599 84.1688 15.7401 84.01C15.4601 83.7 15.4601 83.7 14.8301 83.56L14.3201 84.23C14.2906 83.9845 14.3396 83.7359 14.4601 83.52C14.5823 83.3061 14.7673 83.1351 14.9901 83.03L15.0901 82.44L14.6601 82.25L14.5601 81.99L14.4901 82.55L14.7001 82.75C14.5501 82.91 14.4001 83.07 14.2701 83.24C14.1494 83.4563 14.0425 83.6801 13.9501 83.91L13.8501 83.57C13.8501 83.57 13.7601 83.57 13.6801 83.67L13.4701 83.48C13.3884 83.43 13.3012 83.3897 13.2101 83.36C13.4401 83.01 13.6601 83.36 13.8701 83.36L13.7301 82.5H14.1501V82.22L14.7201 81.79L14.5001 81.49L14.2801 81.69L13.9901 81.56L14.4201 81.12L14.6701 80.98L14.8601 81.29L15.0801 80.49L15.3001 80.65C15.4501 80.55 15.6201 80.5 15.5501 80.32H14.9401C14.9401 80.48 14.8101 80.66 14.5401 80.62V80.28C14.412 80.2655 14.285 80.2421 14.1601 80.21V80.15H14.6301L14.7501 80.49L14.8101 79.93C14.9071 79.8828 15.0074 79.8427 15.1101 79.81C14.9351 79.8013 14.7612 79.7779 14.5901 79.74L14.4101 79.39L14.5801 79.04C14.3801 79.04 13.5801 79.55 13.4201 79.53L12.7601 79.32C12.9001 79.32 12.6801 78.85 12.8101 78.88L12.5701 78.48C12.1601 78.37 12.0001 79.1 11.5701 78.97L11.2001 78.42V77.82L10.8301 77.58L10.9301 77.39L11.0401 77.31L10.9501 77.42H10.3401L10.4901 77.16L10.2501 76.88L10.1901 77.28H9.99011V76.53L10.6001 76.31V76L10.7001 75.91L10.6101 76.01C10.3501 76.01 10.2701 75.81 10.0901 75.69L10.3301 75.61V75.53C10.1824 75.3798 10.0697 75.1988 10.0001 75C10.0882 75.0565 10.1821 75.1034 10.2801 75.14C10.3765 75.15 10.4737 75.15 10.5701 75.14V74.9C10.4344 74.887 10.3004 74.8602 10.1701 74.82L9.93011 74.34L9.61011 73.61H9.84011V73.36C10.0201 73.08 9.47011 73.36 9.73011 73.12L9.57011 73L9.47011 72.55L8.95011 72.49L9.27011 72.26L8.94011 72.49L9.56011 71.41H8.99011L8.67011 71.29L8.96011 71.15C8.99089 71.1858 9.02431 71.2192 9.06011 71.25V70.84L8.88011 71L8.80011 70.49H8.26011L8.39011 70.82L7.91011 70.97L7.86011 70.86L7.78011 70.97L7.52011 71.11L7.65011 70.72H8.21011L7.92011 70.34L7.79011 70H8.04011V69.93H7.80011V70L7.40011 70.19L7.53011 69.71C7.13011 69.45 7.87011 69.31 7.60011 68.96L7.10011 69.06C7.10011 69.06 7.01011 69 6.95011 69C6.89011 69 7.25011 68.87 7.14011 68.74C7.03011 68.61 7.01011 68.65 6.81011 68.58C6.73011 68.3 6.55011 68.06 6.44011 68.13V68.4C6.56011 68.47 6.69011 68.52 6.81011 68.58V68.81H6.52011C6.40011 68.55 6.08011 68.49 5.96011 68.25C5.84011 68.01 6.87011 67.69 6.76011 67.44H6.46011L6.20011 67.27C6.09011 67.33 5.15011 67.6 5.06011 67.66C4.83504 67.5038 4.67775 67.2678 4.62011 67C4.89011 67 4.56011 66.7 4.82011 66.67V66.61H4.28011L4.05011 66.45L4.66011 65.87L4.84011 65.5L5.07011 65.33C5.00011 65.33 4.98011 65.05 4.96011 65.09C4.94011 65.13 4.57011 65.5 4.41011 65.72L4.25011 65.53C4.41011 65.53 4.42011 65.4 4.37011 65.34C4.35557 65.3167 4.334 65.2986 4.30852 65.2883C4.28304 65.278 4.25495 65.276 4.22828 65.2827C4.20162 65.2894 4.17776 65.3043 4.16012 65.3254C4.14248 65.3465 4.13197 65.3726 4.13011 65.4C3.94011 65.4 4.02011 65.25 4.00011 65.15C3.77011 65.15 3.68011 65.05 3.60011 64.87C3.90011 64.78 3.90011 64.78 4.00011 65.15C4.12011 64.98 4.07011 64.94 4.27011 64.87L4.36011 64.97L4.26011 64.88C4.26011 64.88 4.26011 64.75 4.36011 64.7C4.46011 64.65 4.18011 64.7 4.21011 64.7V64.55L4.12011 64.4L3.80011 64.63L3.47011 64.54L3.22011 64.32L3.47011 64L3.12011 63.66L3.25011 63.48V63.13L4.06011 62.74L3.80011 62.61L3.59011 62.74L3.54011 62.53C3.41543 62.5144 3.29186 62.4911 3.17011 62.46V62.25L3.58011 62.35V61.94V61.65L3.10011 61L3.19011 60.91L3.08011 60.73L3.26011 60.32H3.71011C3.56011 60.32 3.71011 60.25 3.54011 60.24L3.22011 59.73L3.34011 59.51H3.28011L3.04011 59.66L2.80011 59.85L2.64011 59.49C2.69245 59.4322 2.74929 59.3787 2.81011 59.33L2.31011 59.15L3.09011 58.46C3.06498 58.3583 3.0132 58.2651 2.94011 58.19C2.87112 58.0966 2.77235 58.0296 2.66011 58L2.54011 58.11C2.29011 58.11 3.26011 57.91 3.20011 57.77L2.67011 57.6L2.47011 57.94V57.55L2.78011 57.43C2.44011 57.43 3.11011 57.24 2.85011 57.01C2.92841 57.0333 3.01182 57.0333 3.09011 57.01V56.93H2.84011V57H2.74011C2.66156 56.9357 2.58801 56.8655 2.52011 56.79L2.84011 56.62C2.72011 56.37 2.72011 56.37 2.47011 56.32L2.58011 56.52L2.12011 56.79L2.04011 56.57C1.97696 56.5767 1.91327 56.5767 1.85011 56.57V56.2L2.02011 56.34C2.04418 56.3166 2.06443 56.2896 2.08011 56.26C2.11314 55.8301 2.04463 55.3985 1.88011 55C1.80011 54.74 1.88011 54.48 2.03011 54.55C2.18011 54.62 2.31011 54.43 2.46011 54.5C2.53152 54.4771 2.59898 54.4434 2.66011 54.4L2.78011 54.5L2.93011 54.39C2.99257 54.3751 3.05765 54.3751 3.12011 54.39L2.86011 54.14V53.5C3.02176 53.4362 3.16885 53.3405 3.29258 53.2185C3.4163 53.0965 3.5141 52.9507 3.58011 52.79V52L3.25011 52.52V52.15L3.52011 52C3.52011 51.73 3.22011 51.5 3.52011 51.25L3.37011 50.55L3.17011 50.36L3.25011 50.19C3.25011 50.19 3.32011 50.13 3.36011 50.1L3.27011 50L3.19011 50.11C2.93011 50.11 3.19011 49.81 2.95011 49.72L2.58011 50V49.68L3.14011 49.4H2.34011L2.62011 48.69L2.30011 48.58C2.44011 48.48 2.56011 48.39 2.68011 48.32L2.47011 47.94L2.70011 47.76L2.97011 47.58C2.93191 47.1468 3.04115 46.7134 3.28011 46.35C3.39011 46.12 3.42011 45.86 3.73011 45.83L3.54011 45.27C3.47834 45.2899 3.41188 45.2899 3.35011 45.27V45.17C3.53981 45.1852 3.73042 45.1852 3.92011 45.17L4.08011 45L3.97011 44.8L3.77011 44.66L4.22011 44.3L3.98011 43.97C4.22011 43.88 4.55011 43.97 4.64011 43.59C4.64011 43.59 4.75011 43.59 4.81011 43.59C4.88297 43.5826 4.95228 43.5549 5.01011 43.51C5.06434 43.4643 5.09992 43.4002 5.11011 43.33C5.11011 43.33 4.98011 43.26 4.99011 43.23C5.05011 43 4.91011 42.82 4.83011 42.62C4.7732 42.5303 4.74298 42.4262 4.74298 42.32C4.74298 42.2138 4.7732 42.1097 4.83011 42.02L4.73011 41.91L4.87011 41.62L5.56011 41.42V41.24H5.89011C5.81011 41.01 5.46011 40.95 5.53011 40.64L5.63011 40.56L5.54011 40.66L4.75011 40L4.94011 39.86L5.02011 39.96L4.92011 39.88C4.92011 39.64 4.69011 39.8 4.57011 39.76C4.45011 39.72 4.24011 39.87 4.13011 39.66C4.20011 39.6 4.28011 39.57 4.28011 39.53C4.30726 39.3526 4.29358 39.1713 4.24011 39C4.18172 38.8289 4.07804 38.6769 3.94011 38.56V38.18L3.67011 38L4.47011 37.8C4.26011 37.58 4.26011 37.58 3.71011 37.58L3.36011 37.23V37C3.08011 36.9 3.04011 36.57 2.76011 36.4C2.48011 36.23 2.46011 35.96 2.30011 35.71H1.81011C1.80002 35.6471 1.80002 35.5829 1.81011 35.52C1.84793 35.3902 1.89471 35.2633 1.95011 35.14L1.47011 34.91L1.63011 34.35L1.86011 34.27L1.59011 34.14V34L1.86011 34.15L2.05011 34C2.05801 33.9863 2.06217 33.9708 2.06217 33.955C2.06217 33.9392 2.05801 33.9237 2.05011 33.91L1.47011 33.54L1.79011 33.2V32.88L2.36011 32.09L2.13011 32L2.21011 31.64L1.84011 31.82L1.97011 32L1.75011 32.47L1.67011 31.91L1.47011 32L1.22011 31.7L1.66011 31.45C1.66011 31.29 1.75011 31.09 1.54011 30.93L1.76011 30.71L1.81011 31.09C1.88195 31.0977 1.95252 31.1145 2.02011 31.14L1.90011 30.69L2.47011 30.25H2.74011V30H2.47011V30.22H2.15011L2.45011 29.78C2.13011 29.46 2.70011 29.13 2.45011 28.78L2.79011 28.61L2.91011 28.71L3.10011 28.33C2.83011 28.33 2.53011 28.68 2.33011 28.23H3.07011V27.6L2.47011 28.06H2.07011C1.98582 27.9729 1.91805 27.8713 1.87011 27.76C1.82901 27.6516 1.81195 27.5356 1.82011 27.42C1.82011 27.36 1.74011 27.31 1.70011 27.25C1.70011 27.51 1.46011 27.25 1.38011 27.42L1.27011 26.93L1.75011 26.53L1.60011 26.25H1.86011C1.86011 26.16 1.92011 26.02 1.73011 26.05C1.82011 25.82 1.88011 25.62 2.11011 25.56V25.38L2.21011 25.29L2.12011 25.39L1.92011 25.5L1.74011 24.95L1.86011 24.81L1.67011 24.6L2.23011 24.76L2.28011 24.31L1.99011 24.17L2.22011 23.71L2.65011 23.87C2.6303 23.8116 2.6303 23.7484 2.65011 23.69C2.67244 23.6307 2.71492 23.5811 2.77011 23.55L3.28011 23.24L3.45011 23.34C3.92722 22.9589 4.43953 22.624 4.98011 22.34L4.66011 21.88L4.78011 21.25C4.69685 21.2411 4.61291 21.2586 4.54011 21.3V20.7L4.72011 21.07L4.84011 21L5.05011 21.19L4.91011 20.69L5.27011 20.46L4.97011 20.16L4.54011 20.28V19.9C4.73011 19.79 4.90011 19.69 5.08011 19.6L5.25011 19.74L5.63011 19.31C5.77011 19.16 6.06011 19.19 6.10011 18.89H6.42011V18.67C6.19011 18.67 5.97011 18.56 5.86011 18.77L5.13011 18.6C5.38011 18.54 5.59011 18.47 5.94011 18.37L4.94011 18.13L4.81011 17.67C4.89978 17.6809 4.99044 17.6809 5.08011 17.67L5.47011 18.05C5.79011 18.13 5.87011 17.87 6.11011 17.71H5.74011V17.26L4.98011 16.95L5.10011 17.27C5.00011 17.37 4.87011 17.33 4.60011 17.09L4.67011 16.83L4.16011 16.36C3.64011 16.36 3.51011 16.29 3.26011 15.94C3.60011 15.83 3.75011 15.94 3.95011 16.22H4.81011C4.81011 16.22 4.83011 16 4.87011 16L5.08011 16.26C5.41011 16.18 5.43011 15.83 5.64011 15.62H5.73011L5.63011 15.51L5.76011 15.29C5.63539 15.2798 5.51168 15.2597 5.39011 15.23V14.84C5.05011 14.45 4.47011 14.28 4.30011 13.73H4.02011L4.12011 13.3L3.86011 13.08V12.5L4.04011 12.33C4.07849 12.3751 4.12214 12.4153 4.17011 12.45L4.37011 12.07L4.13011 11.65L4.29011 11.34C4.55011 11.55 4.85011 11.43 5.11011 11.42C4.86011 11.33 4.60011 11.27 4.51011 11.02L4.75011 9.49L4.93011 9.36L5.12011 8.43L4.69011 8.12C4.74751 8.06917 4.79498 8.00814 4.83011 7.94C4.84521 7.86744 4.84521 7.79256 4.83011 7.72C4.83232 7.64592 4.81926 7.57217 4.79173 7.50335C4.7642 7.43454 4.7228 7.37212 4.67011 7.32C4.87011 7.16 4.81011 6.93 4.82011 6.71C4.54011 6.62 4.77011 6.38 4.66011 6.25C4.55011 6.12 4.57011 6.19 4.47011 6.17V5.54C4.54531 5.51878 4.61884 5.49204 4.69011 5.46V5L4.55011 5.36C4.44044 5.34802 4.32979 5.34802 4.22011 5.36V4.84L3.91011 4.16L3.47011 3.81C3.75011 3.65 3.90011 3.41 4.16011 3.29C4.42011 3.17 4.32011 2.69 4.65011 2.56V2.13C4.87011 2.01 5.06011 1.89 5.02011 1.62C5.49011 1.62 5.50011 1.24 5.59011 0.93C5.68011 0.62 6.24011 0.49 6.37011 0H47.9301V900Z" fill="white"/>
</g>
<defs>
<clipPath id="clip0_2_3">
<rect width="47" height="900" fill="white" transform="translate(0.990112)"/>
</clipPath>
</defs>
</svg>
